G04 DipTrace 2.3.0.3*
%INBottomPaste.gbr*%
%MOIN*%
%ADD45R,0.1495X0.1495*%
%ADD47R,0.118X0.118*%
%ADD49R,0.1298X0.0392*%
%ADD51R,0.0589X0.0117*%
%ADD53R,0.0117X0.0589*%
%ADD55R,0.04X0.011*%
%ADD59R,0.0707X0.0156*%
%ADD61R,0.053X0.0432*%
%ADD63R,0.0176X0.0333*%
%ADD67R,0.0629X0.055*%
%ADD69R,0.055X0.0629*%
%FSLAX44Y44*%
G04*
G70*
G90*
G75*
G01*
%LNBotPaste*%
%LPD*%
D69*
X15770Y12940D3*
X16872D3*
X16542Y7565D3*
X17645D3*
D67*
X19082Y16315D3*
Y15213D3*
D69*
X15645Y7565D3*
X14542D3*
X15082Y6627D3*
X13980D3*
X19707Y6190D3*
X20810D3*
D67*
X5457Y11753D3*
Y10650D3*
X9645Y13127D3*
Y14230D3*
Y10252D3*
Y9150D3*
D63*
X12207Y4667D3*
X11459D3*
X11833Y5573D3*
D69*
X20832Y7190D3*
X19730D3*
D67*
X11207Y7582D3*
Y6480D3*
X12207Y6503D3*
Y7605D3*
D61*
X26707Y6440D3*
Y4668D3*
X23578D3*
Y6440D3*
X9832D3*
Y4668D3*
X6703D3*
Y6440D3*
Y16418D3*
Y18190D3*
X9832D3*
Y16418D3*
D59*
X22207Y16502D3*
Y16002D3*
Y15502D3*
Y15002D3*
X20082D3*
Y15502D3*
Y16002D3*
Y16502D3*
D55*
X6365Y11388D3*
Y11758D3*
Y12128D3*
X7395D3*
Y11388D3*
D59*
X10770Y9752D3*
Y10252D3*
Y10752D3*
Y11252D3*
Y11752D3*
Y12252D3*
Y12752D3*
Y13252D3*
X12896D3*
Y12752D3*
Y12252D3*
Y11752D3*
Y11252D3*
Y10752D3*
Y10252D3*
Y9752D3*
D53*
X17651Y8559D3*
X17336D3*
X17021D3*
X16706D3*
X16391D3*
X16076D3*
X15761D3*
X15446D3*
D51*
X14895Y9110D3*
Y9425D3*
Y9740D3*
Y10055D3*
Y10370D3*
Y10685D3*
Y11000D3*
Y11315D3*
D53*
X15446Y11866D3*
X15761D3*
X16076D3*
X16391D3*
X16706D3*
X17021D3*
X17336D3*
X17651D3*
D51*
X18202Y11315D3*
Y11000D3*
Y10685D3*
Y10370D3*
Y10055D3*
Y9740D3*
Y9425D3*
Y9110D3*
D49*
X14334Y5128D3*
X16499D3*
G36*
X21851Y18098D2*
Y18418D1*
X22564D1*
Y18098D1*
X21851D1*
G37*
G36*
Y17098D2*
Y17418D1*
X22564D1*
Y17098D1*
X21851D1*
G37*
G36*
X21473Y17364D2*
X19072D1*
Y18151D1*
X21473D1*
Y17364D1*
G37*
D61*
X23578Y16418D3*
Y18190D3*
X26707D3*
Y16418D3*
D47*
X17520Y16502D3*
D45*
X14429D3*
D47*
X11339D3*
M02*
