G04 DipTrace 2.3.0.3*
%INBottomMask.gbr*%
%MOIN*%
%ADD36C,0.1181*%
%ADD42C,0.067*%
%ADD44R,0.1655X0.1655*%
%ADD46R,0.134X0.134*%
%ADD48R,0.1458X0.0552*%
%ADD50R,0.0749X0.0277*%
%ADD52R,0.0277X0.0749*%
%ADD54R,0.056X0.027*%
%ADD58R,0.0867X0.0316*%
%ADD60R,0.069X0.0592*%
%ADD62R,0.0336X0.0493*%
%ADD64C,0.0671*%
%ADD66R,0.0789X0.071*%
%ADD68R,0.071X0.0789*%
%FSLAX44Y44*%
G04*
G70*
G90*
G75*
G01*
%LNBotMask*%
%LPD*%
D68*
X15770Y12940D3*
X16872D3*
X16542Y7565D3*
X17645D3*
D66*
X19082Y16315D3*
Y15213D3*
D68*
X15645Y7565D3*
X14542D3*
X15082Y6627D3*
X13980D3*
X19707Y6190D3*
X20810D3*
D66*
X5457Y11753D3*
Y10650D3*
X9645Y13127D3*
Y14230D3*
Y10252D3*
Y9150D3*
D64*
X28207Y13940D3*
Y12940D3*
Y11940D3*
Y10940D3*
Y9940D3*
Y8940D3*
D62*
X12207Y4667D3*
X11459D3*
X11833Y5573D3*
D68*
X20832Y7190D3*
X19730D3*
D66*
X11207Y7582D3*
Y6480D3*
X12207Y6503D3*
Y7605D3*
D60*
X26707Y6440D3*
Y4668D3*
X23578D3*
Y6440D3*
X9832D3*
Y4668D3*
X6703D3*
Y6440D3*
Y16418D3*
Y18190D3*
X9832D3*
Y16418D3*
D58*
X22207Y16502D3*
Y16002D3*
Y15502D3*
Y15002D3*
X20082D3*
Y15502D3*
Y16002D3*
Y16502D3*
D54*
X6365Y11388D3*
Y11758D3*
Y12128D3*
X7395D3*
Y11388D3*
D58*
X10770Y9752D3*
Y10252D3*
Y10752D3*
Y11252D3*
Y11752D3*
Y12252D3*
Y12752D3*
Y13252D3*
X12896D3*
Y12752D3*
Y12252D3*
Y11752D3*
Y11252D3*
Y10752D3*
Y10252D3*
Y9752D3*
D52*
X17651Y8559D3*
X17336D3*
X17021D3*
X16706D3*
X16391D3*
X16076D3*
X15761D3*
X15446D3*
D50*
X14895Y9110D3*
Y9425D3*
Y9740D3*
Y10055D3*
Y10370D3*
Y10685D3*
Y11000D3*
Y11315D3*
D52*
X15446Y11866D3*
X15761D3*
X16076D3*
X16391D3*
X16706D3*
X17021D3*
X17336D3*
X17651D3*
D50*
X18202Y11315D3*
Y11000D3*
Y10685D3*
Y10370D3*
Y10055D3*
Y9740D3*
Y9425D3*
Y9110D3*
D48*
X14334Y5128D3*
X16499D3*
G36*
X21771Y18018D2*
Y18498D1*
X22644D1*
Y18018D1*
X21771D1*
G37*
G36*
Y17018D2*
Y17498D1*
X22644D1*
Y17018D1*
X21771D1*
G37*
G36*
X21553Y17284D2*
X18992D1*
Y18231D1*
X21553D1*
Y17284D1*
G37*
D60*
X23578Y16418D3*
Y18190D3*
X26707D3*
Y16418D3*
D46*
X17520Y16502D3*
D44*
X14429D3*
D46*
X11339D3*
D42*
X20897Y11940D3*
Y12940D3*
Y13940D3*
X21897D3*
Y12940D3*
Y11940D3*
D36*
X5207Y5190D3*
Y17690D3*
X28207D3*
Y5190D3*
M02*
