G04 DipTrace 2.3.0.3*
%INBottomSilk.gbr*%
%MOIN*%
%ADD10C,0.0098*%
%ADD12C,0.003*%
%ADD19C,0.0154*%
%ADD21C,0.0236*%
%ADD26O,0.0164X0.0165*%
%ADD30C,0.0315*%
%ADD33C,0.0313*%
%FSLAX44Y44*%
G04*
G70*
G90*
G75*
G01*
%LNBotSilk*%
%LPD*%
X16278Y13255D2*
D10*
Y12625D1*
X16203Y13255D2*
Y12625D1*
Y13255D2*
X16439D1*
X16203Y12625D2*
X16439D1*
X17050Y7880D2*
Y7250D1*
X16976Y7880D2*
Y7250D1*
Y7880D2*
X17211D1*
X16976Y7250D2*
X17211D1*
X19397Y15807D2*
X18768D1*
X19397Y15882D2*
X18768D1*
X19397D2*
Y15646D1*
X18768Y15882D2*
Y15646D1*
X15137Y7250D2*
Y7880D1*
X15211Y7250D2*
Y7880D1*
Y7250D2*
X14976D1*
X15211Y7880D2*
X14976D1*
X14574Y6313D2*
Y6942D1*
X14649Y6313D2*
Y6942D1*
Y6313D2*
X14413D1*
X14649Y6942D2*
X14413D1*
X20215Y6505D2*
Y5875D1*
X20141Y6505D2*
Y5875D1*
Y6505D2*
X20376D1*
X20141Y5875D2*
X20376D1*
X5772Y11245D2*
X5143D1*
X5772Y11319D2*
X5143D1*
X5772D2*
Y11084D1*
X5143Y11319D2*
Y11084D1*
X9330Y13635D2*
X9960D1*
X9330Y13561D2*
X9960D1*
X9330D2*
Y13796D1*
X9960Y13561D2*
Y13796D1*
Y9745D2*
X9330D1*
X9960Y9819D2*
X9330D1*
X9960D2*
Y9584D1*
X9330Y9819D2*
Y9584D1*
D19*
X12516Y4520D3*
X12424Y5021D2*
D10*
X11243D1*
Y5218D1*
X12424D1*
Y5021D1*
X20399Y6875D2*
X20164D1*
X20399Y7505D2*
X20164D1*
X11522Y7149D2*
Y6913D1*
X10893Y7149D2*
Y6913D1*
X11893Y6936D2*
Y7171D1*
X12522Y6936D2*
Y7171D1*
X26143Y6804D2*
X24142D1*
Y4304D1*
X26143D1*
Y6804D1*
X24642Y5554D2*
G02X24642Y5554I500J0D01*
G01*
D21*
X26678Y6916D3*
X9268Y6804D2*
D10*
X7267D1*
Y4304D1*
X9268D1*
Y6804D1*
X7767Y5554D2*
G02X7767Y5554I500J0D01*
G01*
D21*
X9803Y6916D3*
X7267Y16054D2*
D10*
X9268D1*
Y18554D1*
X7267D1*
Y16054D1*
X7767Y17304D2*
G02X7767Y17304I500J0D01*
G01*
D21*
X6732Y15942D3*
X21656Y16737D2*
D10*
Y14768D1*
X20633Y16737D2*
Y14768D1*
X21656D2*
X20633D1*
X21341Y16737D2*
X21656D1*
X20948D2*
X20633D1*
X21341D2*
G02X20948Y16737I-197J0D01*
G01*
X11321Y9534D2*
Y13471D1*
X12345Y9534D2*
Y13471D1*
X11321D2*
X12345D1*
X11321Y9534D2*
X11636D1*
X12030D2*
X12345D1*
X11636D2*
G02X12030Y9534I197J0D01*
G01*
X17670Y9071D2*
X15387D1*
Y11354D1*
X17670D1*
Y9071D1*
D26*
X17982Y8554D3*
G36*
X17670Y9071D2*
X17356D1*
X17670Y9386D1*
Y9071D1*
G37*
X14629Y4340D2*
D10*
G02X14629Y5915I229J787D01*
G01*
X16204Y4340D2*
G03X16204Y5915I-229J787D01*
G01*
X14629Y4340D2*
X16204D1*
X14629Y5915D2*
X16204D1*
X14038Y4340D2*
X16794D1*
Y5915D1*
X14038D1*
Y4340D1*
X21582Y18257D2*
X18957D1*
Y17258D1*
X21582D1*
Y18257D1*
Y17850D2*
G03X21895Y17975I31J374D01*
G01*
X21582Y17665D2*
G02X21895Y17540I31J-374D01*
G01*
X24142Y16054D2*
X26143D1*
Y18554D1*
X24142D1*
Y16054D1*
X24642Y17304D2*
G02X24642Y17304I500J0D01*
G01*
D21*
X23607Y15942D3*
X17008Y15026D2*
D10*
X15197Y13806D1*
X17008Y17270D2*
Y18156D1*
X11812Y17270D2*
Y18156D1*
Y18176D2*
G02X12185Y18569I403J-9D01*
G01*
X12205D2*
G02X12835Y18392I148J-683D01*
G01*
X15197Y13806D2*
X13623D1*
X17008Y15617D2*
Y15026D1*
X11812Y15617D2*
Y15026D1*
X13623Y13806D2*
X11812Y15026D1*
X15866Y18353D2*
G02X12855Y18372I-1492J2015D01*
G01*
X16516Y18569D2*
G02X17008Y18176I48J-443D01*
G01*
X16615Y18569D2*
G03X15866Y18353I-88J-1099D01*
G01*
D30*
X18445Y16502D3*
D33*
X20429Y11471D3*
X17596Y13187D2*
D12*
X17611D1*
X17836D2*
X17971D1*
X17596Y13172D2*
X17626D1*
X17836D2*
X17993D1*
X17596Y13157D2*
X17641D1*
X17913D2*
X18012D1*
X17596Y13142D2*
X17656D1*
X17966D2*
X18027D1*
X17596Y13127D2*
X17611D1*
X17641D2*
X17671D1*
X18004D2*
X18039D1*
X17596Y13112D2*
X17611D1*
X17656D2*
X17686D1*
X18020D2*
X18048D1*
X17596Y13097D2*
X17611D1*
X17671D2*
X17701D1*
X18031D2*
X18054D1*
X17596Y13082D2*
X17611D1*
X17686D2*
X17716D1*
X18039D2*
X18058D1*
X17596Y13067D2*
X17611D1*
X18043D2*
X18060D1*
X17596Y13052D2*
X17611D1*
X18045D2*
X18060D1*
X17596Y13037D2*
X17611D1*
X18045D2*
X18061D1*
X17596Y13022D2*
X17611D1*
X18046D2*
X18061D1*
X17596Y13007D2*
X17611D1*
X18046D2*
X18061D1*
X17596Y12992D2*
X17611D1*
X18046D2*
X18061D1*
X17596Y12977D2*
X17611D1*
X18046D2*
X18061D1*
X17596Y12962D2*
X17611D1*
X18046D2*
X18061D1*
X17596Y12947D2*
X17611D1*
X18046D2*
X18061D1*
X17596Y12932D2*
X17611D1*
X18046D2*
X18061D1*
X17596Y12917D2*
X17611D1*
X18046D2*
X18061D1*
X17596Y12902D2*
X17611D1*
X18046D2*
X18061D1*
X17596Y12887D2*
X17611D1*
X18046D2*
X18061D1*
X17596Y12872D2*
X17611D1*
X18046D2*
X18061D1*
X17596Y12857D2*
X17611D1*
X18045D2*
X18061D1*
X17596Y12842D2*
X17611D1*
X18043D2*
X18060D1*
X17596Y12827D2*
X17611D1*
X18039D2*
X18058D1*
X17596Y12812D2*
X17611D1*
X18033D2*
X18054D1*
X17596Y12797D2*
X17611D1*
X18024D2*
X18048D1*
X17596Y12782D2*
X17611D1*
X18011D2*
X18039D1*
X17596Y12767D2*
X17611D1*
X17974D2*
X18027D1*
X17596Y12752D2*
X17611D1*
X17913D2*
X18012D1*
X17596Y12737D2*
X17611D1*
X17836D2*
X17992D1*
X17596Y12722D2*
X17611D1*
X17836D2*
X17971D1*
X16884Y7062D2*
X16959D1*
X17154D2*
X17289D1*
X16866Y7047D2*
X16980D1*
X17154D2*
X17310D1*
X16851Y7032D2*
X16884D1*
X16974D2*
X16999D1*
X17231D2*
X17329D1*
X16839Y7017D2*
X16869D1*
X16988D2*
X17014D1*
X17284D2*
X17344D1*
X16831Y7002D2*
X16857D1*
X17001D2*
X17025D1*
X17322D2*
X17356D1*
X16827Y6987D2*
X16848D1*
X17011D2*
X17030D1*
X17338D2*
X17365D1*
X16825Y6972D2*
X16843D1*
X17019D2*
X17034D1*
X17349D2*
X17372D1*
X16824Y6957D2*
X16840D1*
X17356D2*
X17375D1*
X16824Y6942D2*
X16840D1*
X17360D2*
X17377D1*
X16826Y6927D2*
X16842D1*
X17362D2*
X17378D1*
X16830Y6912D2*
X16847D1*
X17363D2*
X17378D1*
X16836Y6897D2*
X16855D1*
X17363D2*
X17379D1*
X16843Y6882D2*
X16864D1*
X17364D2*
X17379D1*
X16851Y6867D2*
X16874D1*
X17364D2*
X17379D1*
X16859Y6852D2*
X16884D1*
X17364D2*
X17379D1*
X16869Y6837D2*
X16893D1*
X17364D2*
X17379D1*
X16879Y6822D2*
X16902D1*
X17364D2*
X17379D1*
X16889Y6807D2*
X16910D1*
X17364D2*
X17379D1*
X16899Y6792D2*
X16919D1*
X17364D2*
X17379D1*
X16908Y6777D2*
X16929D1*
X17364D2*
X17379D1*
X16917Y6762D2*
X16939D1*
X17364D2*
X17379D1*
X16925Y6747D2*
X16949D1*
X17364D2*
X17379D1*
X16934Y6732D2*
X16959D1*
X17363D2*
X17379D1*
X16944Y6717D2*
X16968D1*
X17361D2*
X17378D1*
X16954Y6702D2*
X16977D1*
X17357D2*
X17376D1*
X16964Y6687D2*
X16985D1*
X17351D2*
X17372D1*
X16974Y6672D2*
X16994D1*
X17341D2*
X17366D1*
X16984Y6657D2*
X17004D1*
X17329D2*
X17357D1*
X16994Y6642D2*
X17013D1*
X17292D2*
X17345D1*
X17006Y6627D2*
X17021D1*
X17231D2*
X17329D1*
X16824Y6612D2*
X17028D1*
X17154D2*
X17310D1*
X16824Y6597D2*
X17034D1*
X17154D2*
X17289D1*
X18120Y15501D2*
X18255D1*
X18375D2*
X18450D1*
X18099Y15486D2*
X18278D1*
X18350D2*
X18471D1*
X18081Y15471D2*
X18123D1*
X18255D2*
X18303D1*
X18325D2*
X18361D1*
X18446D2*
X18489D1*
X18068Y15456D2*
X18102D1*
X18269D2*
X18348D1*
X18468D2*
X18502D1*
X18059Y15441D2*
X18086D1*
X18282D2*
X18337D1*
X18484D2*
X18511D1*
X18052Y15426D2*
X18075D1*
X18291D2*
X18328D1*
X18495D2*
X18518D1*
X18048Y15411D2*
X18067D1*
X18296D2*
X18322D1*
X18503D2*
X18522D1*
X18046Y15396D2*
X18063D1*
X18298D2*
X18318D1*
X18507D2*
X18524D1*
X18045Y15381D2*
X18061D1*
X18299D2*
X18316D1*
X18509D2*
X18524D1*
X18045Y15366D2*
X18061D1*
X18300D2*
X18315D1*
X18509D2*
X18525D1*
X18045Y15351D2*
X18060D1*
X18300D2*
X18315D1*
X18510D2*
X18525D1*
X18045Y15336D2*
X18060D1*
X18300D2*
X18315D1*
X18510D2*
X18525D1*
X18045Y15321D2*
X18060D1*
X18510D2*
X18525D1*
X18045Y15306D2*
X18060D1*
X18510D2*
X18525D1*
X18045Y15291D2*
X18060D1*
X18510D2*
X18525D1*
X18045Y15141D2*
X18060D1*
X18510D2*
X18525D1*
X18045Y15126D2*
X18060D1*
X18510D2*
X18525D1*
X18045Y15111D2*
X18060D1*
X18510D2*
X18525D1*
X18045Y15096D2*
X18060D1*
X18510D2*
X18525D1*
X18045Y15081D2*
X18061D1*
X18510D2*
X18525D1*
X18045Y15066D2*
X18062D1*
X18509D2*
X18524D1*
X18046Y15051D2*
X18066D1*
X18507D2*
X18522D1*
X18048Y15036D2*
X18071D1*
X18503D2*
X18519D1*
X18052Y15021D2*
X18076D1*
X18497D2*
X18514D1*
X18058Y15006D2*
X18083D1*
X18488D2*
X18509D1*
X18067Y14991D2*
X18094D1*
X18477D2*
X18502D1*
X18079Y14976D2*
X18107D1*
X18464D2*
X18491D1*
X18094Y14961D2*
X18121D1*
X18450D2*
X18475D1*
X18114Y14946D2*
X18456D1*
X18135Y14931D2*
X18435D1*
X14381Y8562D2*
X14396D1*
X14621D2*
X14756D1*
X14382Y8547D2*
X14398D1*
X14621D2*
X14778D1*
X14384Y8532D2*
X14402D1*
X14698D2*
X14797D1*
X14387Y8517D2*
X14407D1*
X14752D2*
X14812D1*
X14392Y8502D2*
X14411D1*
X14789D2*
X14824D1*
X14396Y8487D2*
X14416D1*
X14805D2*
X14833D1*
X14401Y8472D2*
X14421D1*
X14816D2*
X14839D1*
X14406Y8457D2*
X14424D1*
X14824D2*
X14843D1*
X14409Y8442D2*
X14427D1*
X14828D2*
X14845D1*
X14412Y8427D2*
X14432D1*
X14830D2*
X14846D1*
X14417Y8412D2*
X14436D1*
X14831D2*
X14846D1*
X14421Y8397D2*
X14441D1*
X14831D2*
X14846D1*
X14426Y8382D2*
X14446D1*
X14831D2*
X14846D1*
X14431Y8367D2*
X14451D1*
X14831D2*
X14846D1*
X14436Y8352D2*
X14454D1*
X14831D2*
X14846D1*
X14439Y8337D2*
X14457D1*
X14831D2*
X14846D1*
X14442Y8322D2*
X14462D1*
X14831D2*
X14846D1*
X14306Y8307D2*
X14321D1*
X14447D2*
X14466D1*
X14831D2*
X14846D1*
X14306Y8292D2*
X14321D1*
X14451D2*
X14471D1*
X14831D2*
X14846D1*
X14306Y8277D2*
X14321D1*
X14454D2*
X14476D1*
X14831D2*
X14846D1*
X14306Y8262D2*
X14321D1*
X14458D2*
X14481D1*
X14831D2*
X14846D1*
X14306Y8247D2*
X14321D1*
X14462D2*
X14484D1*
X14831D2*
X14846D1*
X14306Y8232D2*
X14321D1*
X14467D2*
X14488D1*
X14831D2*
X14846D1*
X14306Y8217D2*
X14321D1*
X14471D2*
X14492D1*
X14829D2*
X14846D1*
X14231Y8202D2*
X14497D1*
X14824D2*
X14844D1*
X14231Y8187D2*
X14501D1*
X14818D2*
X14839D1*
X14306Y8172D2*
X14321D1*
X14809D2*
X14833D1*
X14306Y8157D2*
X14321D1*
X14797D2*
X14824D1*
X14306Y8142D2*
X14321D1*
X14759D2*
X14812D1*
X14306Y8127D2*
X14321D1*
X14698D2*
X14797D1*
X14306Y8112D2*
X14321D1*
X14621D2*
X14778D1*
X14306Y8097D2*
X14321D1*
X14621D2*
X14756D1*
X13151Y6062D2*
X13346D1*
X13466D2*
X13601D1*
X13151Y6047D2*
X13346D1*
X13466D2*
X13623D1*
X13331Y6032D2*
X13346D1*
X13543D2*
X13642D1*
X13331Y6017D2*
X13346D1*
X13597D2*
X13657D1*
X13331Y6002D2*
X13346D1*
X13634D2*
X13669D1*
X13331Y5987D2*
X13346D1*
X13650D2*
X13678D1*
X13331Y5972D2*
X13346D1*
X13661D2*
X13684D1*
X13331Y5957D2*
X13346D1*
X13669D2*
X13688D1*
X13331Y5942D2*
X13346D1*
X13673D2*
X13690D1*
X13331Y5927D2*
X13346D1*
X13675D2*
X13691D1*
X13331Y5912D2*
X13346D1*
X13676D2*
X13691D1*
X13331Y5897D2*
X13346D1*
X13676D2*
X13691D1*
X13331Y5882D2*
X13346D1*
X13676D2*
X13691D1*
X13331Y5867D2*
X13346D1*
X13676D2*
X13691D1*
X13256Y5852D2*
X13346D1*
X13676D2*
X13691D1*
X13202Y5837D2*
X13346D1*
X13676D2*
X13691D1*
X13164Y5822D2*
X13264D1*
X13676D2*
X13691D1*
X13148Y5807D2*
X13208D1*
X13676D2*
X13691D1*
X13136Y5792D2*
X13169D1*
X13676D2*
X13691D1*
X13129Y5777D2*
X13154D1*
X13676D2*
X13691D1*
X13124Y5762D2*
X13143D1*
X13676D2*
X13691D1*
X13122Y5747D2*
X13140D1*
X13676D2*
X13691D1*
X13122Y5732D2*
X13138D1*
X13675D2*
X13691D1*
X13121Y5717D2*
X13137D1*
X13673D2*
X13690D1*
X13122Y5702D2*
X13139D1*
X13669D2*
X13688D1*
X13124Y5687D2*
X13143D1*
X13663D2*
X13684D1*
X13128Y5672D2*
X13150D1*
X13654D2*
X13678D1*
X13134Y5657D2*
X13161D1*
X13642D2*
X13669D1*
X13143Y5642D2*
X13201D1*
X13604D2*
X13657D1*
X13157Y5627D2*
X13265D1*
X13543D2*
X13642D1*
X13175Y5612D2*
X13346D1*
X13466D2*
X13623D1*
X13196Y5597D2*
X13346D1*
X13466D2*
X13601D1*
X21346Y6437D2*
X21361D1*
X21631D2*
X21766D1*
X21357Y6422D2*
X21388D1*
X21631D2*
X21788D1*
X21371Y6407D2*
X21412D1*
X21708D2*
X21807D1*
X21388Y6392D2*
X21431D1*
X21762D2*
X21822D1*
X21404Y6377D2*
X21447D1*
X21799D2*
X21834D1*
X21420Y6362D2*
X21459D1*
X21815D2*
X21843D1*
X21435Y6347D2*
X21470D1*
X21826D2*
X21849D1*
X21448Y6332D2*
X21480D1*
X21834D2*
X21853D1*
X21459Y6317D2*
X21489D1*
X21838D2*
X21855D1*
X21468Y6302D2*
X21495D1*
X21840D2*
X21856D1*
X21475Y6287D2*
X21501D1*
X21841D2*
X21856D1*
X21481Y6272D2*
X21506D1*
X21841D2*
X21856D1*
X21488Y6257D2*
X21509D1*
X21841D2*
X21856D1*
X21496Y6242D2*
X21510D1*
X21841D2*
X21856D1*
X21419Y6227D2*
X21511D1*
X21841D2*
X21856D1*
X21365Y6212D2*
X21511D1*
X21841D2*
X21856D1*
X21331Y6197D2*
X21347D1*
X21496D2*
X21511D1*
X21841D2*
X21856D1*
X21307Y6182D2*
X21334D1*
X21496D2*
X21511D1*
X21841D2*
X21856D1*
X21297Y6167D2*
X21325D1*
X21496D2*
X21511D1*
X21841D2*
X21856D1*
X21291Y6152D2*
X21320D1*
X21496D2*
X21511D1*
X21841D2*
X21856D1*
X21288Y6137D2*
X21318D1*
X21496D2*
X21511D1*
X21841D2*
X21856D1*
X21288Y6122D2*
X21317D1*
X21496D2*
X21511D1*
X21841D2*
X21856D1*
X21289Y6107D2*
X21316D1*
X21496D2*
X21511D1*
X21841D2*
X21856D1*
X21292Y6092D2*
X21316D1*
X21496D2*
X21511D1*
X21839D2*
X21856D1*
X21296Y6077D2*
X21317D1*
X21494D2*
X21509D1*
X21834D2*
X21854D1*
X21299Y6062D2*
X21319D1*
X21489D2*
X21505D1*
X21828D2*
X21849D1*
X21303Y6047D2*
X21324D1*
X21483D2*
X21501D1*
X21819D2*
X21843D1*
X21308Y6032D2*
X21332D1*
X21474D2*
X21495D1*
X21807D2*
X21834D1*
X21315Y6017D2*
X21345D1*
X21449D2*
X21487D1*
X21769D2*
X21822D1*
X21326Y6002D2*
X21361D1*
X21410D2*
X21475D1*
X21708D2*
X21807D1*
X21342Y5987D2*
X21457D1*
X21631D2*
X21788D1*
X21361Y5972D2*
X21436D1*
X21631D2*
X21766D1*
X6387Y11001D2*
X6462D1*
X6322Y10986D2*
X6462D1*
X6255Y10971D2*
X6390D1*
X6447D2*
X6462D1*
X6189Y10956D2*
X6319D1*
X6447D2*
X6462D1*
X6126Y10941D2*
X6250D1*
X6447D2*
X6462D1*
X6069Y10926D2*
X6181D1*
X6447D2*
X6462D1*
X6023Y10911D2*
X6112D1*
X6447D2*
X6462D1*
X5982Y10896D2*
X6042D1*
X6447D2*
X6462D1*
X6447Y10881D2*
X6462D1*
X6447Y10866D2*
X6462D1*
X6447Y10851D2*
X6462D1*
X6447Y10836D2*
X6462D1*
X6447Y10821D2*
X6462D1*
X6387Y10806D2*
X6462D1*
X6387Y10791D2*
X6462D1*
X5982Y10641D2*
X5997D1*
X6447D2*
X6462D1*
X5982Y10626D2*
X5997D1*
X6447D2*
X6462D1*
X5982Y10611D2*
X5997D1*
X6447D2*
X6462D1*
X5982Y10596D2*
X5998D1*
X6447D2*
X6462D1*
X5982Y10581D2*
X5998D1*
X6447D2*
X6462D1*
X5983Y10566D2*
X6000D1*
X6447D2*
X6462D1*
X5983Y10551D2*
X6004D1*
X6445D2*
X6460D1*
X5985Y10536D2*
X6008D1*
X6441D2*
X6456D1*
X5989Y10521D2*
X6013D1*
X6434D2*
X6452D1*
X5996Y10506D2*
X6021D1*
X6426D2*
X6447D1*
X6004Y10491D2*
X6031D1*
X6414D2*
X6439D1*
X6016Y10476D2*
X6044D1*
X6401D2*
X6428D1*
X6032Y10461D2*
X6058D1*
X6387D2*
X6413D1*
X6051Y10446D2*
X6394D1*
X6072Y10431D2*
X6372D1*
X9435Y15211D2*
X9510D1*
X9705D2*
X9840D1*
X9417Y15196D2*
X9531D1*
X9705D2*
X9862D1*
X9402Y15181D2*
X9440D1*
X9506D2*
X9549D1*
X9782D2*
X9881D1*
X9391Y15166D2*
X9421D1*
X9528D2*
X9562D1*
X9835D2*
X9896D1*
X9383Y15151D2*
X9407D1*
X9544D2*
X9571D1*
X9873D2*
X9908D1*
X9379Y15136D2*
X9397D1*
X9555D2*
X9578D1*
X9889D2*
X9917D1*
X9376Y15121D2*
X9393D1*
X9564D2*
X9582D1*
X9900D2*
X9923D1*
X9376Y15106D2*
X9391D1*
X9565D2*
X9583D1*
X9908D2*
X9927D1*
X9375Y15091D2*
X9391D1*
X9563D2*
X9582D1*
X9912D2*
X9929D1*
X9376Y15076D2*
X9393D1*
X9559D2*
X9578D1*
X9914D2*
X9929D1*
X9378Y15061D2*
X9398D1*
X9553D2*
X9572D1*
X9914D2*
X9930D1*
X9384Y15046D2*
X9411D1*
X9545D2*
X9563D1*
X9915D2*
X9930D1*
X9394Y15031D2*
X9433D1*
X9516D2*
X9552D1*
X9915D2*
X9930D1*
X9407Y15016D2*
X9468D1*
X9473D2*
X9539D1*
X9915D2*
X9930D1*
X9420Y15001D2*
X9525D1*
X9915D2*
X9930D1*
X9406Y14986D2*
X9541D1*
X9915D2*
X9930D1*
X9393Y14971D2*
X9440D1*
X9506D2*
X9554D1*
X9915D2*
X9930D1*
X9384Y14956D2*
X9421D1*
X9528D2*
X9564D1*
X9915D2*
X9930D1*
X9379Y14941D2*
X9407D1*
X9544D2*
X9572D1*
X9915D2*
X9930D1*
X9377Y14926D2*
X9397D1*
X9555D2*
X9578D1*
X9915D2*
X9930D1*
X9376Y14911D2*
X9393D1*
X9563D2*
X9582D1*
X9915D2*
X9930D1*
X9375Y14896D2*
X9391D1*
X9567D2*
X9584D1*
X9915D2*
X9930D1*
X9375Y14881D2*
X9391D1*
X9569D2*
X9584D1*
X9914D2*
X9930D1*
X9375Y14866D2*
X9390D1*
X9569D2*
X9585D1*
X9912D2*
X9929D1*
X9375Y14851D2*
X9391D1*
X9567D2*
X9584D1*
X9908D2*
X9927D1*
X9376Y14836D2*
X9393D1*
X9563D2*
X9582D1*
X9902D2*
X9923D1*
X9378Y14821D2*
X9398D1*
X9556D2*
X9578D1*
X9893D2*
X9917D1*
X9382Y14806D2*
X9405D1*
X9546D2*
X9572D1*
X9880D2*
X9908D1*
X9391Y14791D2*
X9429D1*
X9520D2*
X9563D1*
X9843D2*
X9896D1*
X9403Y14776D2*
X9466D1*
X9481D2*
X9549D1*
X9782D2*
X9881D1*
X9418Y14761D2*
X9531D1*
X9705D2*
X9861D1*
X9435Y14746D2*
X9510D1*
X9705D2*
X9840D1*
X8773Y10556D2*
X9013D1*
X8741Y10541D2*
X9034D1*
X8714Y10526D2*
X8758D1*
X8818D2*
X8833D1*
X9009D2*
X9051D1*
X8691Y10511D2*
X8731D1*
X8818D2*
X8833D1*
X9030D2*
X9062D1*
X8672Y10496D2*
X8707D1*
X8818D2*
X8833D1*
X9047D2*
X9070D1*
X8657Y10481D2*
X8687D1*
X8818D2*
X8833D1*
X9055D2*
X9077D1*
X8645Y10466D2*
X8672D1*
X8818D2*
X8833D1*
X9063D2*
X9081D1*
X8635Y10451D2*
X8660D1*
X8818D2*
X8833D1*
X9073D2*
X9084D1*
X8627Y10436D2*
X8650D1*
X8818D2*
X8836D1*
X9065D2*
X9081D1*
X8619Y10421D2*
X8641D1*
X8821D2*
X8840D1*
X9058D2*
X9077D1*
X8613Y10406D2*
X8632D1*
X8827D2*
X8853D1*
X9047D2*
X9072D1*
X8608Y10391D2*
X8623D1*
X8837D2*
X8887D1*
X9031D2*
X9064D1*
X8852Y10376D2*
X8942D1*
X9013D2*
X9051D1*
X8871Y10361D2*
X9033D1*
X8893Y10346D2*
X9013D1*
X8608Y10196D2*
X8623D1*
X9073D2*
X9088D1*
X8608Y10181D2*
X8623D1*
X9073D2*
X9088D1*
X8608Y10166D2*
X8623D1*
X9073D2*
X9088D1*
X8608Y10151D2*
X8623D1*
X9073D2*
X9088D1*
X8608Y10136D2*
X8623D1*
X9072D2*
X9087D1*
X8608Y10121D2*
X8625D1*
X9072D2*
X9087D1*
X8608Y10106D2*
X8629D1*
X9070D2*
X9085D1*
X8610Y10091D2*
X8633D1*
X9066D2*
X9081D1*
X8614Y10076D2*
X8638D1*
X9059D2*
X9077D1*
X8621Y10061D2*
X8646D1*
X9051D2*
X9072D1*
X8629Y10046D2*
X8656D1*
X9039D2*
X9064D1*
X8641Y10031D2*
X8669D1*
X9026D2*
X9053D1*
X8657Y10016D2*
X8683D1*
X9012D2*
X9038D1*
X8676Y10001D2*
X9019D1*
X8698Y9986D2*
X8998D1*
X10390Y5762D2*
X10405D1*
X10780D2*
X10855D1*
X10390Y5747D2*
X10420D1*
X10758D2*
X10884D1*
X10390Y5732D2*
X10435D1*
X10740D2*
X10783D1*
X10867D2*
X10907D1*
X10390Y5717D2*
X10450D1*
X10724D2*
X10760D1*
X10890D2*
X10924D1*
X10390Y5702D2*
X10405D1*
X10435D2*
X10465D1*
X10713D2*
X10742D1*
X10908D2*
X10935D1*
X10390Y5687D2*
X10405D1*
X10450D2*
X10480D1*
X10704D2*
X10729D1*
X10920D2*
X10943D1*
X10390Y5672D2*
X10405D1*
X10465D2*
X10495D1*
X10697D2*
X10719D1*
X10928D2*
X10949D1*
X10390Y5657D2*
X10405D1*
X10480D2*
X10510D1*
X10693D2*
X10712D1*
X10934D2*
X10954D1*
X10390Y5642D2*
X10405D1*
X10692D2*
X10708D1*
X10939D2*
X10958D1*
X10390Y5627D2*
X10405D1*
X10691D2*
X10707D1*
X10943D2*
X10959D1*
X10390Y5612D2*
X10405D1*
X10690D2*
X10706D1*
X10944D2*
X10960D1*
X10390Y5597D2*
X10405D1*
X10690D2*
X10705D1*
X10945D2*
X10960D1*
X10390Y5582D2*
X10405D1*
X10690D2*
X10705D1*
X10945D2*
X10960D1*
X10390Y5567D2*
X10405D1*
X10690D2*
X10705D1*
X10945D2*
X10960D1*
X10390Y5552D2*
X10405D1*
X10690D2*
X10705D1*
X10945D2*
X10960D1*
X10390Y5537D2*
X10405D1*
X10690D2*
X10705D1*
X10945D2*
X10960D1*
X10390Y5522D2*
X10405D1*
X10690D2*
X10705D1*
X10945D2*
X10960D1*
X10390Y5507D2*
X10405D1*
X10690D2*
X10705D1*
X10945D2*
X10960D1*
X10390Y5492D2*
X10405D1*
X10690D2*
X10705D1*
X10945D2*
X10960D1*
X10390Y5477D2*
X10405D1*
X10690D2*
X10705D1*
X10943D2*
X10960D1*
X10390Y5462D2*
X10405D1*
X10690D2*
X10705D1*
X10939D2*
X10960D1*
X10390Y5447D2*
X10405D1*
X10690D2*
X10705D1*
X10935D2*
X10960D1*
X10390Y5432D2*
X10405D1*
X10690D2*
X10707D1*
X10933D2*
X10960D1*
X10390Y5417D2*
X10405D1*
X10691D2*
X10709D1*
X10931D2*
X10958D1*
X10390Y5402D2*
X10405D1*
X10693D2*
X10721D1*
X10750D2*
X10780D1*
X10930D2*
X10954D1*
X10390Y5387D2*
X10405D1*
X10698D2*
X10765D1*
X10927D2*
X10948D1*
X10390Y5372D2*
X10405D1*
X10705D2*
X10750D1*
X10922D2*
X10941D1*
X10390Y5357D2*
X10405D1*
X10690D2*
X10735D1*
X10909D2*
X10933D1*
X10390Y5342D2*
X10405D1*
X10675D2*
X10769D1*
X10878D2*
X10923D1*
X10390Y5327D2*
X10405D1*
X10660D2*
X10690D1*
X10720D2*
X10816D1*
X10834D2*
X10909D1*
X10390Y5312D2*
X10405D1*
X10645D2*
X10675D1*
X10750D2*
X10891D1*
X10390Y5297D2*
X10405D1*
X10630D2*
X10660D1*
X10780D2*
X10870D1*
X21401Y7438D2*
X21416D1*
X21746D2*
X21926D1*
X21401Y7422D2*
X21431D1*
X21724D2*
X21926D1*
X21401Y7408D2*
X21446D1*
X21706D2*
X21731D1*
X21911D2*
X21926D1*
X21401Y7392D2*
X21461D1*
X21690D2*
X21716D1*
X21911D2*
X21926D1*
X21401Y7378D2*
X21416D1*
X21446D2*
X21476D1*
X21679D2*
X21702D1*
X21911D2*
X21926D1*
X21401Y7362D2*
X21416D1*
X21461D2*
X21491D1*
X21670D2*
X21689D1*
X21911D2*
X21926D1*
X21401Y7348D2*
X21416D1*
X21476D2*
X21506D1*
X21663D2*
X21681D1*
X21911D2*
X21926D1*
X21401Y7332D2*
X21416D1*
X21491D2*
X21521D1*
X21659D2*
X21675D1*
X21911D2*
X21926D1*
X21401Y7318D2*
X21416D1*
X21658D2*
X21673D1*
X21911D2*
X21926D1*
X21401Y7302D2*
X21416D1*
X21657D2*
X21672D1*
X21911D2*
X21926D1*
X21401Y7288D2*
X21416D1*
X21657D2*
X21672D1*
X21911D2*
X21926D1*
X21401Y7272D2*
X21416D1*
X21659D2*
X21675D1*
X21911D2*
X21926D1*
X21401Y7258D2*
X21416D1*
X21663D2*
X21681D1*
X21911D2*
X21926D1*
X21401Y7242D2*
X21416D1*
X21669D2*
X21692D1*
X21911D2*
X21926D1*
X21401Y7228D2*
X21416D1*
X21679D2*
X21707D1*
X21911D2*
X21926D1*
X21401Y7212D2*
X21416D1*
X21692D2*
X21754D1*
X21911D2*
X21926D1*
X21401Y7198D2*
X21416D1*
X21709D2*
X21831D1*
X21911D2*
X21926D1*
X21401Y7182D2*
X21416D1*
X21727D2*
X21926D1*
X21401Y7167D2*
X21416D1*
X21746D2*
X21926D1*
X21401Y7152D2*
X21416D1*
X21737D2*
X21764D1*
X21911D2*
X21926D1*
X21401Y7137D2*
X21416D1*
X21728D2*
X21753D1*
X21911D2*
X21926D1*
X21401Y7122D2*
X21416D1*
X21720D2*
X21744D1*
X21911D2*
X21926D1*
X21401Y7107D2*
X21416D1*
X21713D2*
X21736D1*
X21911D2*
X21926D1*
X21401Y7092D2*
X21416D1*
X21705D2*
X21728D1*
X21911D2*
X21926D1*
X21401Y7077D2*
X21416D1*
X21698D2*
X21720D1*
X21911D2*
X21926D1*
X21401Y7062D2*
X21416D1*
X21690D2*
X21713D1*
X21911D2*
X21926D1*
X21401Y7047D2*
X21416D1*
X21683D2*
X21705D1*
X21911D2*
X21926D1*
X21401Y7032D2*
X21416D1*
X21675D2*
X21698D1*
X21911D2*
X21926D1*
X21401Y7017D2*
X21416D1*
X21668D2*
X21690D1*
X21911D2*
X21926D1*
X21401Y7002D2*
X21416D1*
X21663D2*
X21683D1*
X21911D2*
X21926D1*
X21401Y6987D2*
X21416D1*
X21659D2*
X21677D1*
X21911D2*
X21926D1*
X21401Y6972D2*
X21416D1*
X21656D2*
X21671D1*
X21911D2*
X21926D1*
X10092Y7813D2*
X10167D1*
X10467D2*
X10647D1*
X10075Y7798D2*
X10189D1*
X10446D2*
X10647D1*
X10059Y7783D2*
X10092D1*
X10182D2*
X10208D1*
X10427D2*
X10452D1*
X10632D2*
X10647D1*
X10048Y7768D2*
X10078D1*
X10197D2*
X10223D1*
X10412D2*
X10437D1*
X10632D2*
X10647D1*
X10040Y7753D2*
X10066D1*
X10209D2*
X10234D1*
X10400D2*
X10423D1*
X10632D2*
X10647D1*
X10036Y7738D2*
X10057D1*
X10219D2*
X10239D1*
X10391D2*
X10411D1*
X10632D2*
X10647D1*
X10034Y7723D2*
X10052D1*
X10227D2*
X10242D1*
X10384D2*
X10402D1*
X10632D2*
X10647D1*
X10033Y7708D2*
X10049D1*
X10381D2*
X10397D1*
X10632D2*
X10647D1*
X10033Y7693D2*
X10049D1*
X10379D2*
X10394D1*
X10632D2*
X10647D1*
X10035Y7678D2*
X10051D1*
X10378D2*
X10393D1*
X10632D2*
X10647D1*
X10039Y7663D2*
X10056D1*
X10378D2*
X10393D1*
X10632D2*
X10647D1*
X10045Y7648D2*
X10064D1*
X10380D2*
X10396D1*
X10632D2*
X10647D1*
X10052Y7633D2*
X10073D1*
X10384D2*
X10402D1*
X10632D2*
X10647D1*
X10059Y7618D2*
X10083D1*
X10391D2*
X10413D1*
X10632D2*
X10647D1*
X10068Y7603D2*
X10093D1*
X10400D2*
X10428D1*
X10632D2*
X10647D1*
X10078Y7588D2*
X10102D1*
X10413D2*
X10475D1*
X10632D2*
X10647D1*
X10087Y7573D2*
X10110D1*
X10430D2*
X10552D1*
X10632D2*
X10647D1*
X10097Y7558D2*
X10119D1*
X10449D2*
X10647D1*
X10107Y7543D2*
X10128D1*
X10467D2*
X10647D1*
X10117Y7528D2*
X10138D1*
X10458D2*
X10485D1*
X10632D2*
X10647D1*
X10125Y7513D2*
X10147D1*
X10450D2*
X10474D1*
X10632D2*
X10647D1*
X10134Y7498D2*
X10157D1*
X10441D2*
X10465D1*
X10632D2*
X10647D1*
X10143Y7483D2*
X10167D1*
X10434D2*
X10457D1*
X10632D2*
X10647D1*
X10153Y7468D2*
X10177D1*
X10426D2*
X10449D1*
X10632D2*
X10647D1*
X10162Y7453D2*
X10185D1*
X10419D2*
X10441D1*
X10632D2*
X10647D1*
X10172Y7438D2*
X10194D1*
X10411D2*
X10434D1*
X10632D2*
X10647D1*
X10183Y7423D2*
X10203D1*
X10404D2*
X10426D1*
X10632D2*
X10647D1*
X10192Y7408D2*
X10213D1*
X10396D2*
X10419D1*
X10632D2*
X10647D1*
X10203Y7393D2*
X10222D1*
X10389D2*
X10411D1*
X10632D2*
X10647D1*
X10215Y7378D2*
X10230D1*
X10384D2*
X10404D1*
X10632D2*
X10647D1*
X10032Y7363D2*
X10237D1*
X10380D2*
X10398D1*
X10632D2*
X10647D1*
X10032Y7348D2*
X10242D1*
X10377D2*
X10392D1*
X10632D2*
X10647D1*
X11995Y8744D2*
X12130D1*
X12250D2*
X12325D1*
X11974Y8729D2*
X12153D1*
X12225D2*
X12346D1*
X11956Y8714D2*
X11999D1*
X12130D2*
X12178D1*
X12200D2*
X12236D1*
X12321D2*
X12364D1*
X11943Y8699D2*
X11977D1*
X12144D2*
X12223D1*
X12343D2*
X12377D1*
X11934Y8684D2*
X11961D1*
X12157D2*
X12212D1*
X12359D2*
X12386D1*
X11927Y8669D2*
X11950D1*
X12166D2*
X12203D1*
X12370D2*
X12393D1*
X11923Y8654D2*
X11942D1*
X12171D2*
X12197D1*
X12378D2*
X12397D1*
X11921Y8639D2*
X11938D1*
X12173D2*
X12193D1*
X12382D2*
X12399D1*
X11921Y8624D2*
X11936D1*
X12174D2*
X12191D1*
X12384D2*
X12399D1*
X11920Y8609D2*
X11936D1*
X12175D2*
X12190D1*
X12384D2*
X12400D1*
X11920Y8594D2*
X11935D1*
X12175D2*
X12190D1*
X12385D2*
X12400D1*
X11920Y8579D2*
X11935D1*
X12175D2*
X12190D1*
X12385D2*
X12400D1*
X11920Y8564D2*
X11935D1*
X12385D2*
X12400D1*
X11920Y8549D2*
X11935D1*
X12385D2*
X12400D1*
X11920Y8534D2*
X11935D1*
X12385D2*
X12400D1*
X11920Y8399D2*
X11950D1*
X12220D2*
X12295D1*
X11936Y8384D2*
X11975D1*
X12198D2*
X12321D1*
X11958Y8369D2*
X12001D1*
X12179D2*
X12223D1*
X12307D2*
X12343D1*
X11983Y8354D2*
X12029D1*
X12165D2*
X12199D1*
X12330D2*
X12359D1*
X12011Y8339D2*
X12062D1*
X12154D2*
X12180D1*
X12348D2*
X12371D1*
X12040Y8324D2*
X12102D1*
X12145D2*
X12165D1*
X12360D2*
X12380D1*
X12069Y8309D2*
X12153D1*
X12368D2*
X12388D1*
X12094Y8294D2*
X12149D1*
X12374D2*
X12394D1*
X12114Y8279D2*
X12147D1*
X12379D2*
X12397D1*
X12122Y8264D2*
X12146D1*
X12382D2*
X12399D1*
X12127Y8249D2*
X12145D1*
X12384D2*
X12400D1*
X12129Y8234D2*
X12145D1*
X12385D2*
X12400D1*
X12130Y8219D2*
X12145D1*
X12385D2*
X12400D1*
X12130Y8204D2*
X12145D1*
X12385D2*
X12400D1*
X12130Y8189D2*
X12145D1*
X12385D2*
X12400D1*
X12130Y8174D2*
X12145D1*
X12385D2*
X12400D1*
X12130Y8159D2*
X12145D1*
X12385D2*
X12400D1*
X11920Y8144D2*
X12400D1*
X11920Y8129D2*
X12400D1*
X24888Y5854D2*
X24903D1*
X25233D2*
X25338D1*
X24888Y5839D2*
X24918D1*
X25206D2*
X25357D1*
X24888Y5824D2*
X24933D1*
X25187D2*
X25233D1*
X25334D2*
X25372D1*
X24888Y5809D2*
X24948D1*
X25173D2*
X25188D1*
X25355D2*
X25383D1*
X24888Y5794D2*
X24903D1*
X24933D2*
X24963D1*
X25372D2*
X25393D1*
X24888Y5779D2*
X24903D1*
X24948D2*
X24978D1*
X25380D2*
X25400D1*
X24888Y5764D2*
X24903D1*
X24963D2*
X24993D1*
X25389D2*
X25406D1*
X24888Y5749D2*
X24903D1*
X24978D2*
X25008D1*
X25398D2*
X25409D1*
X24888Y5734D2*
X24903D1*
X25390D2*
X25409D1*
X24888Y5719D2*
X24903D1*
X25383D2*
X25405D1*
X24888Y5704D2*
X24903D1*
X25374D2*
X25399D1*
X24888Y5689D2*
X24903D1*
X25361D2*
X25390D1*
X24888Y5674D2*
X24903D1*
X25342D2*
X25376D1*
X24888Y5659D2*
X24903D1*
X25318D2*
X25357D1*
X24888Y5644D2*
X24903D1*
X25291D2*
X25333D1*
X24888Y5629D2*
X24903D1*
X25262D2*
X25306D1*
X24888Y5614D2*
X24903D1*
X25233D2*
X25279D1*
X24888Y5599D2*
X24903D1*
X25206D2*
X25253D1*
X24888Y5584D2*
X24903D1*
X25182D2*
X25229D1*
X24888Y5569D2*
X24903D1*
X25165D2*
X25206D1*
X24888Y5554D2*
X24903D1*
X25152D2*
X25187D1*
X24888Y5539D2*
X24903D1*
X25147D2*
X25174D1*
X24888Y5524D2*
X24903D1*
X25144D2*
X25166D1*
X24888Y5509D2*
X24903D1*
X25143D2*
X25161D1*
X24888Y5494D2*
X24903D1*
X25143D2*
X25160D1*
X24888Y5479D2*
X24903D1*
X25143D2*
X25160D1*
X24888Y5464D2*
X24903D1*
X25146D2*
X25167D1*
X24888Y5449D2*
X24903D1*
X25152D2*
X25177D1*
X25383D2*
X25413D1*
X24888Y5434D2*
X24903D1*
X25162D2*
X25206D1*
X25346D2*
X25396D1*
X24888Y5419D2*
X24903D1*
X25177D2*
X25251D1*
X25308D2*
X25372D1*
X24888Y5404D2*
X24903D1*
X25196D2*
X25342D1*
X24888Y5389D2*
X24903D1*
X25218D2*
X25308D1*
X8028Y5854D2*
X8103D1*
X8403D2*
X8508D1*
X8010Y5839D2*
X8124D1*
X8376D2*
X8527D1*
X7995Y5824D2*
X8028D1*
X8117D2*
X8143D1*
X8357D2*
X8403D1*
X8504D2*
X8542D1*
X7983Y5809D2*
X8013D1*
X8132D2*
X8158D1*
X8343D2*
X8358D1*
X8525D2*
X8553D1*
X7975Y5794D2*
X8001D1*
X8145D2*
X8169D1*
X8542D2*
X8563D1*
X7971Y5779D2*
X7992D1*
X8154D2*
X8174D1*
X8550D2*
X8570D1*
X7969Y5764D2*
X7987D1*
X8163D2*
X8178D1*
X8559D2*
X8576D1*
X7968Y5749D2*
X7984D1*
X8568D2*
X8579D1*
X7968Y5734D2*
X7984D1*
X8560D2*
X8579D1*
X7970Y5719D2*
X7986D1*
X8553D2*
X8575D1*
X7974Y5704D2*
X7991D1*
X8544D2*
X8569D1*
X7980Y5689D2*
X7999D1*
X8531D2*
X8560D1*
X7987Y5674D2*
X8008D1*
X8512D2*
X8546D1*
X7994Y5659D2*
X8018D1*
X8488D2*
X8527D1*
X8003Y5644D2*
X8028D1*
X8461D2*
X8503D1*
X8013Y5629D2*
X8037D1*
X8432D2*
X8476D1*
X8023Y5614D2*
X8046D1*
X8403D2*
X8449D1*
X8032Y5599D2*
X8054D1*
X8376D2*
X8423D1*
X8043Y5584D2*
X8063D1*
X8352D2*
X8399D1*
X8052Y5569D2*
X8073D1*
X8335D2*
X8376D1*
X8061Y5554D2*
X8083D1*
X8322D2*
X8357D1*
X8069Y5539D2*
X8092D1*
X8317D2*
X8344D1*
X8078Y5524D2*
X8103D1*
X8314D2*
X8336D1*
X8088Y5509D2*
X8112D1*
X8313D2*
X8331D1*
X8098Y5494D2*
X8121D1*
X8313D2*
X8330D1*
X8107Y5479D2*
X8129D1*
X8313D2*
X8330D1*
X8118Y5464D2*
X8138D1*
X8316D2*
X8337D1*
X8128Y5449D2*
X8148D1*
X8322D2*
X8347D1*
X8553D2*
X8583D1*
X8138Y5434D2*
X8157D1*
X8332D2*
X8376D1*
X8516D2*
X8566D1*
X8150Y5419D2*
X8165D1*
X8347D2*
X8421D1*
X8478D2*
X8542D1*
X7968Y5404D2*
X8172D1*
X8366D2*
X8512D1*
X7968Y5389D2*
X8178D1*
X8388D2*
X8478D1*
X8028Y17499D2*
X8178D1*
X8403D2*
X8508D1*
X8010Y17484D2*
X8178D1*
X8376D2*
X8527D1*
X7995Y17469D2*
X8097D1*
X8357D2*
X8403D1*
X8504D2*
X8542D1*
X7983Y17454D2*
X8044D1*
X8343D2*
X8358D1*
X8525D2*
X8553D1*
X7975Y17439D2*
X8007D1*
X8542D2*
X8563D1*
X7971Y17424D2*
X7993D1*
X8550D2*
X8570D1*
X7969Y17409D2*
X7987D1*
X8559D2*
X8576D1*
X7968Y17394D2*
X7985D1*
X8568D2*
X8579D1*
X7968Y17379D2*
X7984D1*
X8560D2*
X8579D1*
X7968Y17364D2*
X7985D1*
X8553D2*
X8575D1*
X7971Y17349D2*
X7991D1*
X8544D2*
X8569D1*
X7977Y17334D2*
X8008D1*
X8531D2*
X8560D1*
X7987Y17319D2*
X8033D1*
X8512D2*
X8546D1*
X7999Y17304D2*
X8064D1*
X8488D2*
X8527D1*
X8013Y17289D2*
X8092D1*
X8461D2*
X8503D1*
X7998Y17274D2*
X8118D1*
X8432D2*
X8476D1*
X7986Y17259D2*
X8062D1*
X8403D2*
X8449D1*
X7977Y17244D2*
X8023D1*
X8376D2*
X8423D1*
X7972Y17229D2*
X7997D1*
X8352D2*
X8399D1*
X7969Y17214D2*
X7989D1*
X8335D2*
X8376D1*
X7968Y17199D2*
X7985D1*
X8322D2*
X8357D1*
X7968Y17184D2*
X7984D1*
X8317D2*
X8344D1*
X7968Y17169D2*
X7983D1*
X8314D2*
X8336D1*
X7968Y17154D2*
X7983D1*
X8313D2*
X8331D1*
X7968Y17139D2*
X7983D1*
X8313D2*
X8330D1*
X7968Y17124D2*
X7985D1*
X8313D2*
X8330D1*
X7970Y17109D2*
X7989D1*
X8316D2*
X8337D1*
X7974Y17094D2*
X7999D1*
X8322D2*
X8347D1*
X8553D2*
X8583D1*
X7981Y17079D2*
X8036D1*
X8332D2*
X8376D1*
X8516D2*
X8566D1*
X7992Y17064D2*
X8098D1*
X8347D2*
X8421D1*
X8478D2*
X8542D1*
X8008Y17049D2*
X8178D1*
X8366D2*
X8512D1*
X8028Y17034D2*
X8178D1*
X8388D2*
X8478D1*
X22842Y15785D2*
X22917D1*
X23127D2*
X23142D1*
X23382D2*
X23397D1*
X22824Y15770D2*
X22939D1*
X23127D2*
X23142D1*
X23382D2*
X23397D1*
X22809Y15755D2*
X22842D1*
X22932D2*
X22958D1*
X23127D2*
X23142D1*
X23382D2*
X23397D1*
X22798Y15740D2*
X22828D1*
X22946D2*
X22972D1*
X23127D2*
X23142D1*
X23382D2*
X23397D1*
X22790Y15725D2*
X22815D1*
X22959D2*
X22984D1*
X23127D2*
X23142D1*
X23382D2*
X23397D1*
X22786Y15710D2*
X22806D1*
X22969D2*
X22988D1*
X23127D2*
X23142D1*
X23382D2*
X23397D1*
X22783Y15695D2*
X22801D1*
X22977D2*
X22992D1*
X23127D2*
X23142D1*
X23382D2*
X23397D1*
X22783Y15680D2*
X22799D1*
X23127D2*
X23142D1*
X23382D2*
X23397D1*
X22783Y15665D2*
X22798D1*
X23127D2*
X23142D1*
X23382D2*
X23397D1*
X22785Y15650D2*
X22800D1*
X23127D2*
X23142D1*
X23382D2*
X23397D1*
X22789Y15635D2*
X22806D1*
X23127D2*
X23142D1*
X23382D2*
X23397D1*
X22795Y15620D2*
X22814D1*
X23127D2*
X23142D1*
X23382D2*
X23397D1*
X22801Y15605D2*
X22823D1*
X23127D2*
X23142D1*
X23382D2*
X23397D1*
X22809Y15590D2*
X22832D1*
X23127D2*
X23142D1*
X23382D2*
X23397D1*
X22818Y15575D2*
X22842D1*
X23127D2*
X23142D1*
X23382D2*
X23397D1*
X22827Y15560D2*
X22851D1*
X23127D2*
X23142D1*
X23382D2*
X23397D1*
X22837Y15545D2*
X22860D1*
X23127D2*
X23142D1*
X23382D2*
X23397D1*
X22847Y15530D2*
X22868D1*
X23127D2*
X23142D1*
X23382D2*
X23397D1*
X22857Y15515D2*
X22878D1*
X23127D2*
X23142D1*
X23382D2*
X23397D1*
X22866Y15500D2*
X22887D1*
X23127D2*
X23142D1*
X23382D2*
X23397D1*
X22875Y15485D2*
X22897D1*
X23127D2*
X23142D1*
X23382D2*
X23397D1*
X22883Y15470D2*
X22907D1*
X23127D2*
X23142D1*
X23381D2*
X23397D1*
X22893Y15455D2*
X22917D1*
X23127D2*
X23142D1*
X23380D2*
X23396D1*
X22902Y15440D2*
X22926D1*
X23127D2*
X23143D1*
X23376D2*
X23394D1*
X22912Y15425D2*
X22935D1*
X23128D2*
X23145D1*
X23371D2*
X23390D1*
X22922Y15410D2*
X22943D1*
X23130D2*
X23151D1*
X23366D2*
X23385D1*
X22932Y15395D2*
X22953D1*
X23136D2*
X23162D1*
X23360D2*
X23378D1*
X22942Y15380D2*
X22962D1*
X23146D2*
X23177D1*
X23343D2*
X23369D1*
X22952Y15365D2*
X22972D1*
X23159D2*
X23196D1*
X23315D2*
X23358D1*
X22964Y15350D2*
X22980D1*
X23176D2*
X23217D1*
X23270D2*
X23340D1*
X22782Y15335D2*
X22986D1*
X23195D2*
X23317D1*
X22782Y15320D2*
X22992D1*
X23217D2*
X23292D1*
X6200Y13000D2*
X6215D1*
X6455D2*
X6470D1*
X6710D2*
X6725D1*
X6201Y12985D2*
X6217D1*
X6455D2*
X6470D1*
X6710D2*
X6725D1*
X6202Y12970D2*
X6221D1*
X6455D2*
X6470D1*
X6710D2*
X6725D1*
X6206Y12955D2*
X6226D1*
X6455D2*
X6470D1*
X6710D2*
X6725D1*
X6211Y12940D2*
X6230D1*
X6455D2*
X6470D1*
X6710D2*
X6725D1*
X6215Y12925D2*
X6235D1*
X6455D2*
X6470D1*
X6710D2*
X6725D1*
X6220Y12910D2*
X6240D1*
X6455D2*
X6470D1*
X6710D2*
X6725D1*
X6225Y12895D2*
X6243D1*
X6455D2*
X6470D1*
X6710D2*
X6725D1*
X6228Y12880D2*
X6246D1*
X6455D2*
X6470D1*
X6710D2*
X6725D1*
X6231Y12865D2*
X6251D1*
X6455D2*
X6470D1*
X6710D2*
X6725D1*
X6236Y12850D2*
X6255D1*
X6455D2*
X6470D1*
X6710D2*
X6725D1*
X6240Y12835D2*
X6260D1*
X6455D2*
X6470D1*
X6710D2*
X6725D1*
X6245Y12820D2*
X6265D1*
X6455D2*
X6470D1*
X6710D2*
X6725D1*
X6250Y12805D2*
X6270D1*
X6455D2*
X6470D1*
X6710D2*
X6725D1*
X6255Y12790D2*
X6273D1*
X6455D2*
X6470D1*
X6710D2*
X6725D1*
X6258Y12775D2*
X6276D1*
X6455D2*
X6470D1*
X6710D2*
X6725D1*
X6261Y12760D2*
X6281D1*
X6455D2*
X6470D1*
X6710D2*
X6725D1*
X6125Y12745D2*
X6140D1*
X6266D2*
X6285D1*
X6455D2*
X6470D1*
X6710D2*
X6725D1*
X6125Y12730D2*
X6140D1*
X6270D2*
X6290D1*
X6455D2*
X6470D1*
X6710D2*
X6725D1*
X6125Y12715D2*
X6140D1*
X6273D2*
X6295D1*
X6455D2*
X6470D1*
X6710D2*
X6725D1*
X6125Y12700D2*
X6140D1*
X6276D2*
X6300D1*
X6455D2*
X6470D1*
X6710D2*
X6725D1*
X6125Y12685D2*
X6140D1*
X6281D2*
X6303D1*
X6455D2*
X6470D1*
X6709D2*
X6725D1*
X6125Y12670D2*
X6140D1*
X6286D2*
X6306D1*
X6455D2*
X6470D1*
X6708D2*
X6724D1*
X6125Y12655D2*
X6140D1*
X6290D2*
X6311D1*
X6455D2*
X6471D1*
X6704D2*
X6722D1*
X6050Y12640D2*
X6316D1*
X6456D2*
X6473D1*
X6699D2*
X6718D1*
X6050Y12625D2*
X6320D1*
X6458D2*
X6479D1*
X6694D2*
X6713D1*
X6125Y12610D2*
X6140D1*
X6464D2*
X6490D1*
X6688D2*
X6706D1*
X6125Y12595D2*
X6140D1*
X6474D2*
X6505D1*
X6671D2*
X6697D1*
X6125Y12580D2*
X6140D1*
X6487D2*
X6524D1*
X6643D2*
X6685D1*
X6125Y12565D2*
X6140D1*
X6504D2*
X6545D1*
X6598D2*
X6668D1*
X6125Y12550D2*
X6140D1*
X6523D2*
X6645D1*
X6125Y12535D2*
X6140D1*
X6545D2*
X6620D1*
X11668Y12442D2*
X11818D1*
X11654Y12427D2*
X11838D1*
X11641Y12412D2*
X11669D1*
X11813D2*
X11853D1*
X12073D2*
X12088D1*
X11630Y12397D2*
X11656D1*
X11832D2*
X11863D1*
X12073D2*
X12088D1*
X11621Y12382D2*
X11645D1*
X11846D2*
X11871D1*
X12073D2*
X12088D1*
X11615Y12367D2*
X11636D1*
X11856D2*
X11875D1*
X12073D2*
X12088D1*
X11611Y12352D2*
X11630D1*
X11860D2*
X11877D1*
X12073D2*
X12088D1*
X11609Y12337D2*
X11626D1*
X11862D2*
X11877D1*
X12073D2*
X12088D1*
X11608Y12322D2*
X11624D1*
X11862D2*
X11878D1*
X12073D2*
X12088D1*
X11608Y12307D2*
X11623D1*
X11863D2*
X11878D1*
X12073D2*
X12088D1*
X11608Y12292D2*
X11623D1*
X11863D2*
X11878D1*
X12073D2*
X12088D1*
X11608Y12277D2*
X11623D1*
X11863D2*
X11878D1*
X12073D2*
X12088D1*
X11608Y12262D2*
X11623D1*
X11863D2*
X11878D1*
X12073D2*
X12088D1*
X11608Y12247D2*
X11623D1*
X11863D2*
X12088D1*
X11608Y12232D2*
X11623D1*
X11863D2*
X12088D1*
X11698Y12097D2*
X12088D1*
X11677Y12082D2*
X12088D1*
X11659Y12067D2*
X11702D1*
X11646Y12052D2*
X11680D1*
X11636Y12037D2*
X11664D1*
X11628Y12022D2*
X11652D1*
X11620Y12007D2*
X11643D1*
X11614Y11992D2*
X11635D1*
X11611Y11977D2*
X11630D1*
X11610Y11962D2*
X11627D1*
X11611Y11947D2*
X11630D1*
X11615Y11932D2*
X11634D1*
X11621Y11917D2*
X11639D1*
X11627Y11902D2*
X11647D1*
X11636Y11887D2*
X11660D1*
X11647Y11872D2*
X11679D1*
X11665Y11857D2*
X11702D1*
X11688Y11842D2*
X12088D1*
X11713Y11827D2*
X12088D1*
X16731Y9960D2*
X16746D1*
X17031D2*
X17046D1*
X17286D2*
X17301D1*
X16741Y9945D2*
X16773D1*
X17031D2*
X17046D1*
X17286D2*
X17301D1*
X16756Y9930D2*
X16797D1*
X17031D2*
X17046D1*
X17286D2*
X17301D1*
X16772Y9915D2*
X16816D1*
X17031D2*
X17046D1*
X17286D2*
X17301D1*
X16789Y9900D2*
X16832D1*
X17031D2*
X17046D1*
X17286D2*
X17301D1*
X16805Y9885D2*
X16844D1*
X17031D2*
X17046D1*
X17286D2*
X17301D1*
X16820Y9870D2*
X16855D1*
X17031D2*
X17046D1*
X17286D2*
X17301D1*
X16833Y9855D2*
X16865D1*
X17031D2*
X17046D1*
X17286D2*
X17301D1*
X16844Y9840D2*
X16873D1*
X17031D2*
X17046D1*
X17286D2*
X17301D1*
X16853Y9825D2*
X16880D1*
X17031D2*
X17046D1*
X17286D2*
X17301D1*
X16860Y9810D2*
X16885D1*
X17031D2*
X17046D1*
X17286D2*
X17301D1*
X16866Y9795D2*
X16890D1*
X17031D2*
X17046D1*
X17286D2*
X17301D1*
X16873Y9780D2*
X16893D1*
X17031D2*
X17046D1*
X17286D2*
X17301D1*
X16881Y9765D2*
X16895D1*
X17031D2*
X17046D1*
X17286D2*
X17301D1*
X16804Y9750D2*
X16895D1*
X17031D2*
X17046D1*
X17286D2*
X17301D1*
X16750Y9735D2*
X16896D1*
X17031D2*
X17046D1*
X17286D2*
X17301D1*
X16716Y9720D2*
X16731D1*
X16881D2*
X16896D1*
X17031D2*
X17046D1*
X17286D2*
X17301D1*
X16691Y9705D2*
X16719D1*
X16881D2*
X16896D1*
X17031D2*
X17046D1*
X17286D2*
X17301D1*
X16681Y9690D2*
X16710D1*
X16881D2*
X16896D1*
X17031D2*
X17046D1*
X17286D2*
X17301D1*
X16676Y9675D2*
X16705D1*
X16881D2*
X16896D1*
X17031D2*
X17046D1*
X17286D2*
X17301D1*
X16673Y9660D2*
X16703D1*
X16881D2*
X16896D1*
X17031D2*
X17046D1*
X17286D2*
X17301D1*
X16672Y9645D2*
X16701D1*
X16881D2*
X16896D1*
X17031D2*
X17046D1*
X17285D2*
X17301D1*
X16674Y9630D2*
X16701D1*
X16881D2*
X16896D1*
X17031D2*
X17046D1*
X17283D2*
X17300D1*
X16677Y9615D2*
X16701D1*
X16880D2*
X16895D1*
X17031D2*
X17046D1*
X17280D2*
X17298D1*
X16681Y9600D2*
X16701D1*
X16878D2*
X16893D1*
X17031D2*
X17049D1*
X17275D2*
X17294D1*
X16684Y9585D2*
X16703D1*
X16874D2*
X16890D1*
X17034D2*
X17055D1*
X17270D2*
X17288D1*
X16687Y9570D2*
X16708D1*
X16867D2*
X16885D1*
X17040D2*
X17066D1*
X17264D2*
X17281D1*
X16692Y9555D2*
X16717D1*
X16859D2*
X16880D1*
X17050D2*
X17080D1*
X17247D2*
X17273D1*
X16699Y9540D2*
X16730D1*
X16834D2*
X16872D1*
X17063D2*
X17100D1*
X17218D2*
X17261D1*
X16710Y9525D2*
X16746D1*
X16794D2*
X16859D1*
X17079D2*
X17121D1*
X17174D2*
X17244D1*
X16727Y9510D2*
X16841D1*
X17099D2*
X17221D1*
X16746Y9495D2*
X16821D1*
X17121D2*
X17196D1*
X17514Y5375D2*
X17529D1*
X18069D2*
X18084D1*
X17514Y5360D2*
X17544D1*
X17769D2*
X17784D1*
X18056D2*
X18076D1*
X17514Y5345D2*
X17559D1*
X17776D2*
X17794D1*
X18045D2*
X18068D1*
X17514Y5330D2*
X17574D1*
X17785D2*
X17804D1*
X18034D2*
X18058D1*
X17514Y5315D2*
X17529D1*
X17559D2*
X17589D1*
X17794D2*
X17814D1*
X18024D2*
X18049D1*
X17514Y5300D2*
X17529D1*
X17574D2*
X17604D1*
X17804D2*
X17824D1*
X18014D2*
X18039D1*
X17514Y5285D2*
X17529D1*
X17589D2*
X17619D1*
X17814D2*
X17834D1*
X18004D2*
X18029D1*
X17514Y5270D2*
X17529D1*
X17604D2*
X17634D1*
X17824D2*
X17844D1*
X17994D2*
X18019D1*
X17514Y5255D2*
X17529D1*
X17834D2*
X17854D1*
X17984D2*
X18009D1*
X17514Y5240D2*
X17529D1*
X17844D2*
X17864D1*
X17974D2*
X17999D1*
X17514Y5225D2*
X17529D1*
X17854D2*
X17874D1*
X17964D2*
X17989D1*
X17514Y5210D2*
X17529D1*
X17864D2*
X17884D1*
X17953D2*
X17979D1*
X17514Y5195D2*
X17529D1*
X17874D2*
X17897D1*
X17940D2*
X17969D1*
X17514Y5180D2*
X17529D1*
X17884D2*
X17914D1*
X17923D2*
X17959D1*
X17514Y5165D2*
X17529D1*
X17894D2*
X17949D1*
X17514Y5150D2*
X17529D1*
X17903D2*
X17942D1*
X17514Y5135D2*
X17529D1*
X17911D2*
X17938D1*
X17514Y5120D2*
X17529D1*
X17915D2*
X17935D1*
X17514Y5105D2*
X17529D1*
X17917D2*
X17934D1*
X17514Y5090D2*
X17529D1*
X17918D2*
X17934D1*
X17514Y5075D2*
X17529D1*
X17919D2*
X17934D1*
X17514Y5060D2*
X17529D1*
X17919D2*
X17934D1*
X17514Y5045D2*
X17529D1*
X17919D2*
X17934D1*
X17514Y5030D2*
X17529D1*
X17919D2*
X17934D1*
X17514Y5015D2*
X17529D1*
X17919D2*
X17934D1*
X17514Y5000D2*
X17529D1*
X17919D2*
X17934D1*
X17514Y4985D2*
X17529D1*
X17919D2*
X17934D1*
X17514Y4970D2*
X17529D1*
X17919D2*
X17934D1*
X17514Y4955D2*
X17529D1*
X17919D2*
X17934D1*
X17514Y4940D2*
X17529D1*
X17919D2*
X17934D1*
X17514Y4925D2*
X17529D1*
X17919D2*
X17934D1*
X17514Y4910D2*
X17529D1*
X17919D2*
X17934D1*
X18144Y18005D2*
X18219D1*
X18729D2*
X18744D1*
X18126Y17990D2*
X18240D1*
X18429D2*
X18444D1*
X18716D2*
X18736D1*
X18111Y17975D2*
X18144D1*
X18233D2*
X18259D1*
X18436D2*
X18453D1*
X18705D2*
X18727D1*
X18099Y17960D2*
X18129D1*
X18248D2*
X18274D1*
X18445D2*
X18463D1*
X18694D2*
X18718D1*
X18091Y17945D2*
X18117D1*
X18261D2*
X18285D1*
X18454D2*
X18474D1*
X18684D2*
X18708D1*
X18087Y17930D2*
X18108D1*
X18270D2*
X18290D1*
X18464D2*
X18483D1*
X18674D2*
X18698D1*
X18085Y17915D2*
X18103D1*
X18279D2*
X18294D1*
X18474D2*
X18493D1*
X18664D2*
X18689D1*
X18084Y17900D2*
X18100D1*
X18484D2*
X18504D1*
X18653D2*
X18679D1*
X18084Y17885D2*
X18100D1*
X18493D2*
X18513D1*
X18644D2*
X18668D1*
X18086Y17870D2*
X18102D1*
X18504D2*
X18523D1*
X18634D2*
X18659D1*
X18090Y17855D2*
X18107D1*
X18513D2*
X18534D1*
X18623D2*
X18649D1*
X18096Y17840D2*
X18115D1*
X18523D2*
X18544D1*
X18613D2*
X18638D1*
X18103Y17825D2*
X18124D1*
X18534D2*
X18557D1*
X18600D2*
X18629D1*
X18110Y17810D2*
X18134D1*
X18543D2*
X18574D1*
X18583D2*
X18619D1*
X18119Y17795D2*
X18144D1*
X18553D2*
X18609D1*
X18129Y17780D2*
X18153D1*
X18563D2*
X18602D1*
X18139Y17765D2*
X18162D1*
X18570D2*
X18597D1*
X18148Y17750D2*
X18170D1*
X18575D2*
X18595D1*
X18159Y17735D2*
X18179D1*
X18577D2*
X18594D1*
X18168Y17720D2*
X18189D1*
X18578D2*
X18594D1*
X18177Y17705D2*
X18199D1*
X18578D2*
X18594D1*
X18185Y17690D2*
X18208D1*
X18578D2*
X18594D1*
X18194Y17675D2*
X18219D1*
X18578D2*
X18594D1*
X18204Y17660D2*
X18228D1*
X18579D2*
X18594D1*
X18214Y17645D2*
X18237D1*
X18579D2*
X18594D1*
X18223Y17630D2*
X18245D1*
X18579D2*
X18594D1*
X18234Y17615D2*
X18254D1*
X18579D2*
X18594D1*
X18244Y17600D2*
X18264D1*
X18579D2*
X18594D1*
X18254Y17585D2*
X18273D1*
X18579D2*
X18594D1*
X18266Y17570D2*
X18281D1*
X18579D2*
X18594D1*
X18084Y17555D2*
X18288D1*
X18579D2*
X18594D1*
X18084Y17540D2*
X18294D1*
X18579D2*
X18594D1*
X24963Y17499D2*
X24978D1*
X25308D2*
X25413D1*
X24963Y17484D2*
X24980D1*
X25281D2*
X25432D1*
X24965Y17469D2*
X24984D1*
X25262D2*
X25308D1*
X25409D2*
X25447D1*
X24969Y17454D2*
X24988D1*
X25248D2*
X25263D1*
X25430D2*
X25458D1*
X24973Y17439D2*
X24993D1*
X25447D2*
X25468D1*
X24978Y17424D2*
X24998D1*
X25455D2*
X25475D1*
X24983Y17409D2*
X25002D1*
X25464D2*
X25481D1*
X24987Y17394D2*
X25006D1*
X25473D2*
X25484D1*
X24991Y17379D2*
X25009D1*
X25465D2*
X25484D1*
X24994Y17364D2*
X25013D1*
X25458D2*
X25480D1*
X24998Y17349D2*
X25018D1*
X25449D2*
X25474D1*
X25003Y17334D2*
X25023D1*
X25436D2*
X25465D1*
X25008Y17319D2*
X25028D1*
X25417D2*
X25451D1*
X25013Y17304D2*
X25032D1*
X25393D2*
X25432D1*
X25017Y17289D2*
X25036D1*
X25366D2*
X25408D1*
X25021Y17274D2*
X25039D1*
X25337D2*
X25381D1*
X25024Y17259D2*
X25043D1*
X25308D2*
X25354D1*
X24888Y17244D2*
X24903D1*
X25028D2*
X25048D1*
X25281D2*
X25328D1*
X24888Y17229D2*
X24903D1*
X25032D2*
X25053D1*
X25257D2*
X25304D1*
X24888Y17214D2*
X24903D1*
X25036D2*
X25058D1*
X25240D2*
X25281D1*
X24888Y17199D2*
X24903D1*
X25039D2*
X25062D1*
X25227D2*
X25262D1*
X24888Y17184D2*
X24903D1*
X25043D2*
X25066D1*
X25222D2*
X25249D1*
X24888Y17169D2*
X24903D1*
X25048D2*
X25069D1*
X25219D2*
X25241D1*
X24888Y17154D2*
X24903D1*
X25053D2*
X25073D1*
X25218D2*
X25236D1*
X24813Y17139D2*
X25078D1*
X25218D2*
X25235D1*
X24813Y17124D2*
X25083D1*
X25218D2*
X25235D1*
X24888Y17109D2*
X24903D1*
X25221D2*
X25242D1*
X24888Y17094D2*
X24903D1*
X25227D2*
X25252D1*
X25458D2*
X25488D1*
X24888Y17079D2*
X24903D1*
X25237D2*
X25281D1*
X25421D2*
X25471D1*
X24888Y17064D2*
X24903D1*
X25252D2*
X25326D1*
X25383D2*
X25447D1*
X24888Y17049D2*
X24903D1*
X25271D2*
X25417D1*
X24888Y17034D2*
X24903D1*
X25293D2*
X25383D1*
X10978Y17818D2*
X11053D1*
X11353D2*
X11533D1*
X10961Y17803D2*
X11075D1*
X11338D2*
X11533D1*
X10945Y17788D2*
X10978D1*
X11068D2*
X11094D1*
X11324D2*
X11359D1*
X11518D2*
X11533D1*
X10934Y17773D2*
X10964D1*
X11083D2*
X11109D1*
X11311D2*
X11339D1*
X11518D2*
X11533D1*
X10926Y17758D2*
X10951D1*
X11095D2*
X11120D1*
X11303D2*
X11326D1*
X11518D2*
X11533D1*
X10922Y17743D2*
X10943D1*
X11105D2*
X11125D1*
X11297D2*
X11315D1*
X11518D2*
X11533D1*
X10920Y17728D2*
X10937D1*
X11113D2*
X11128D1*
X11295D2*
X11312D1*
X11518D2*
X11533D1*
X10919Y17713D2*
X10935D1*
X11294D2*
X11310D1*
X11518D2*
X11533D1*
X10919Y17698D2*
X10935D1*
X11294D2*
X11310D1*
X11518D2*
X11533D1*
X10921Y17683D2*
X10937D1*
X11296D2*
X11312D1*
X11518D2*
X11533D1*
X10925Y17668D2*
X10942D1*
X11300D2*
X11316D1*
X11518D2*
X11533D1*
X10931Y17653D2*
X10950D1*
X11306D2*
X11329D1*
X11518D2*
X11533D1*
X10938Y17638D2*
X10959D1*
X11315D2*
X11368D1*
X11518D2*
X11533D1*
X10945Y17623D2*
X10968D1*
X11326D2*
X11434D1*
X11518D2*
X11533D1*
X10954Y17608D2*
X10978D1*
X11338D2*
X11533D1*
X10964Y17593D2*
X10988D1*
X11317D2*
X11533D1*
X10973Y17578D2*
X10996D1*
X11300D2*
X11338D1*
X11518D2*
X11533D1*
X10983Y17563D2*
X11005D1*
X11287D2*
X11324D1*
X11518D2*
X11533D1*
X10993Y17548D2*
X11014D1*
X11277D2*
X11311D1*
X11518D2*
X11533D1*
X11003Y17533D2*
X11024D1*
X11270D2*
X11300D1*
X11518D2*
X11533D1*
X11011Y17518D2*
X11033D1*
X11267D2*
X11291D1*
X11518D2*
X11533D1*
X11020Y17503D2*
X11043D1*
X11265D2*
X11285D1*
X11518D2*
X11533D1*
X11029Y17488D2*
X11053D1*
X11264D2*
X11281D1*
X11518D2*
X11533D1*
X11039Y17473D2*
X11063D1*
X11264D2*
X11280D1*
X11518D2*
X11533D1*
X11048Y17458D2*
X11071D1*
X11264D2*
X11281D1*
X11518D2*
X11533D1*
X11058Y17443D2*
X11080D1*
X11266D2*
X11287D1*
X11518D2*
X11533D1*
X11068Y17428D2*
X11089D1*
X11273D2*
X11299D1*
X11518D2*
X11533D1*
X11078Y17413D2*
X11099D1*
X11283D2*
X11314D1*
X11518D2*
X11533D1*
X11089Y17398D2*
X11108D1*
X11296D2*
X11361D1*
X11518D2*
X11533D1*
X11101Y17383D2*
X11116D1*
X11312D2*
X11438D1*
X11518D2*
X11533D1*
X10918Y17368D2*
X11123D1*
X11332D2*
X11533D1*
X10918Y17353D2*
X11128D1*
X11353D2*
X11533D1*
X21042Y11432D2*
X21222D1*
X21447D2*
X21552D1*
X21762D2*
X21777D1*
X21021Y11417D2*
X21222D1*
X21421D2*
X21572D1*
X21762D2*
X21777D1*
X21002Y11402D2*
X21027D1*
X21207D2*
X21222D1*
X21402D2*
X21447D1*
X21549D2*
X21587D1*
X21762D2*
X21777D1*
X20987Y11387D2*
X21013D1*
X21207D2*
X21222D1*
X21387D2*
X21402D1*
X21570D2*
X21598D1*
X21762D2*
X21777D1*
X20975Y11372D2*
X20998D1*
X21207D2*
X21222D1*
X21587D2*
X21608D1*
X21762D2*
X21777D1*
X20966Y11357D2*
X20986D1*
X21207D2*
X21222D1*
X21595D2*
X21615D1*
X21762D2*
X21777D1*
X20959Y11342D2*
X20977D1*
X21207D2*
X21222D1*
X21603D2*
X21621D1*
X21762D2*
X21777D1*
X20956Y11327D2*
X20972D1*
X21207D2*
X21222D1*
X21612D2*
X21624D1*
X21762D2*
X21777D1*
X20954Y11312D2*
X20969D1*
X21207D2*
X21222D1*
X21605D2*
X21624D1*
X21762D2*
X21777D1*
X20953Y11297D2*
X20968D1*
X21207D2*
X21222D1*
X21598D2*
X21620D1*
X21762D2*
X21777D1*
X20953Y11282D2*
X20968D1*
X21207D2*
X21222D1*
X21589D2*
X21614D1*
X21762D2*
X21777D1*
X20955Y11267D2*
X20971D1*
X21207D2*
X21222D1*
X21576D2*
X21605D1*
X21762D2*
X21777D1*
X20959Y11252D2*
X20977D1*
X21207D2*
X21222D1*
X21557D2*
X21591D1*
X21762D2*
X21777D1*
X20966Y11237D2*
X20988D1*
X21207D2*
X21222D1*
X21533D2*
X21572D1*
X21762D2*
X21777D1*
X20974Y11222D2*
X21003D1*
X21207D2*
X21222D1*
X21506D2*
X21548D1*
X21762D2*
X21777D1*
X20987Y11207D2*
X21050D1*
X21207D2*
X21222D1*
X21477D2*
X21521D1*
X21762D2*
X21777D1*
X21003Y11192D2*
X21127D1*
X21207D2*
X21222D1*
X21448D2*
X21494D1*
X21762D2*
X21777D1*
X21047Y11177D2*
X21222D1*
X21421D2*
X21468D1*
X21762D2*
X21777D1*
X21119Y11162D2*
X21222D1*
X21397D2*
X21444D1*
X21762D2*
X21777D1*
X21207Y11147D2*
X21222D1*
X21380D2*
X21421D1*
X21762D2*
X21777D1*
X21207Y11132D2*
X21222D1*
X21366D2*
X21402D1*
X21762D2*
X21777D1*
X21207Y11117D2*
X21222D1*
X21362D2*
X21389D1*
X21762D2*
X21777D1*
X21207Y11102D2*
X21222D1*
X21359D2*
X21381D1*
X21762D2*
X21777D1*
X21207Y11087D2*
X21222D1*
X21358D2*
X21376D1*
X21762D2*
X21777D1*
X21207Y11072D2*
X21222D1*
X21358D2*
X21375D1*
X21762D2*
X21777D1*
X21207Y11057D2*
X21222D1*
X21358D2*
X21375D1*
X21762D2*
X21777D1*
X21207Y11042D2*
X21222D1*
X21361D2*
X21382D1*
X21762D2*
X21777D1*
X21207Y11027D2*
X21222D1*
X21367D2*
X21392D1*
X21597D2*
X21627D1*
X21762D2*
X21777D1*
X21207Y11012D2*
X21222D1*
X21377D2*
X21421D1*
X21560D2*
X21611D1*
X21762D2*
X21777D1*
X21207Y10997D2*
X21222D1*
X21392D2*
X21466D1*
X21522D2*
X21587D1*
X21762D2*
X21777D1*
X21207Y10982D2*
X21222D1*
X21411D2*
X21556D1*
X21762D2*
X21777D1*
X21207Y10967D2*
X21222D1*
X21432D2*
X21522D1*
X21762D2*
X21777D1*
X25435Y14152D2*
X25615D1*
X25750D2*
X25765D1*
X26005D2*
X26020D1*
X26155D2*
X26320D1*
X25413Y14137D2*
X25615D1*
X25750D2*
X25765D1*
X25995D2*
X26020D1*
X26155D2*
X26346D1*
X25394Y14122D2*
X25438D1*
X25600D2*
X25615D1*
X25750D2*
X25765D1*
X25985D2*
X26020D1*
X26332D2*
X26368D1*
X25379Y14107D2*
X25415D1*
X25600D2*
X25615D1*
X25750D2*
X25765D1*
X25975D2*
X26020D1*
X26355D2*
X26384D1*
X25367Y14092D2*
X25397D1*
X25600D2*
X25615D1*
X25750D2*
X25765D1*
X25966D2*
X26020D1*
X26373D2*
X26396D1*
X25358Y14077D2*
X25383D1*
X25600D2*
X25615D1*
X25750D2*
X25765D1*
X25957D2*
X26020D1*
X26385D2*
X26405D1*
X25352Y14062D2*
X25374D1*
X25600D2*
X25615D1*
X25750D2*
X25765D1*
X25949D2*
X25977D1*
X26005D2*
X26020D1*
X26393D2*
X26413D1*
X25348Y14047D2*
X25367D1*
X25600D2*
X25615D1*
X25750D2*
X25765D1*
X25941D2*
X25967D1*
X26005D2*
X26020D1*
X26399D2*
X26419D1*
X25346Y14032D2*
X25363D1*
X25600D2*
X25615D1*
X25750D2*
X25765D1*
X25934D2*
X25957D1*
X26005D2*
X26020D1*
X26404D2*
X26422D1*
X25346Y14017D2*
X25361D1*
X25600D2*
X25615D1*
X25750D2*
X25765D1*
X25926D2*
X25949D1*
X26005D2*
X26020D1*
X26407D2*
X26424D1*
X25345Y14002D2*
X25361D1*
X25600D2*
X25615D1*
X25750D2*
X25765D1*
X25918D2*
X25941D1*
X26005D2*
X26020D1*
X26409D2*
X26425D1*
X25345Y13987D2*
X25360D1*
X25600D2*
X25615D1*
X25750D2*
X25765D1*
X25909D2*
X25933D1*
X26005D2*
X26020D1*
X26410D2*
X26425D1*
X25345Y13972D2*
X25360D1*
X25600D2*
X25615D1*
X25750D2*
X25765D1*
X25900D2*
X25924D1*
X26005D2*
X26020D1*
X26410D2*
X26425D1*
X25345Y13957D2*
X25360D1*
X25600D2*
X25615D1*
X25750D2*
X25765D1*
X25890D2*
X25915D1*
X26005D2*
X26020D1*
X26410D2*
X26425D1*
X25345Y13942D2*
X25360D1*
X25600D2*
X25615D1*
X25750D2*
X25765D1*
X25882D2*
X25905D1*
X26005D2*
X26020D1*
X26155D2*
X26245D1*
X26410D2*
X26425D1*
X25345Y13927D2*
X25360D1*
X25600D2*
X25615D1*
X25750D2*
X25765D1*
X25874D2*
X25897D1*
X26005D2*
X26020D1*
X26155D2*
X26245D1*
X26410D2*
X26425D1*
X25345Y13912D2*
X25360D1*
X25600D2*
X25615D1*
X25750D2*
X25765D1*
X25866D2*
X25889D1*
X26005D2*
X26020D1*
X26155D2*
X26170D1*
X26410D2*
X26425D1*
X25345Y13897D2*
X25360D1*
X25600D2*
X25615D1*
X25750D2*
X25765D1*
X25859D2*
X25881D1*
X26005D2*
X26020D1*
X26155D2*
X26170D1*
X26410D2*
X26425D1*
X25345Y13882D2*
X25360D1*
X25600D2*
X25615D1*
X25750D2*
X25765D1*
X25851D2*
X25873D1*
X26005D2*
X26020D1*
X26155D2*
X26170D1*
X26410D2*
X26425D1*
X25345Y13867D2*
X25360D1*
X25600D2*
X25615D1*
X25750D2*
X25765D1*
X25843D2*
X25864D1*
X26005D2*
X26020D1*
X26155D2*
X26170D1*
X26410D2*
X26425D1*
X25345Y13852D2*
X25360D1*
X25600D2*
X25615D1*
X25750D2*
X25765D1*
X25834D2*
X25855D1*
X26005D2*
X26020D1*
X26155D2*
X26170D1*
X26410D2*
X26425D1*
X25345Y13837D2*
X25360D1*
X25600D2*
X25615D1*
X25750D2*
X25765D1*
X25825D2*
X25845D1*
X26005D2*
X26020D1*
X26155D2*
X26170D1*
X26409D2*
X26425D1*
X25345Y13822D2*
X25361D1*
X25600D2*
X25615D1*
X25750D2*
X25765D1*
X25815D2*
X25837D1*
X26005D2*
X26020D1*
X26155D2*
X26170D1*
X26408D2*
X26424D1*
X25346Y13807D2*
X25363D1*
X25600D2*
X25615D1*
X25750D2*
X25766D1*
X25807D2*
X25829D1*
X26005D2*
X26020D1*
X26155D2*
X26170D1*
X26404D2*
X26422D1*
X25348Y13792D2*
X25367D1*
X25600D2*
X25615D1*
X25750D2*
X25768D1*
X25799D2*
X25821D1*
X26005D2*
X26020D1*
X26155D2*
X26170D1*
X26399D2*
X26418D1*
X25352Y13777D2*
X25373D1*
X25600D2*
X25615D1*
X25750D2*
X25773D1*
X25790D2*
X25813D1*
X26005D2*
X26020D1*
X26155D2*
X26170D1*
X26394D2*
X26413D1*
X25358Y13762D2*
X25381D1*
X25600D2*
X25615D1*
X25750D2*
X25804D1*
X26005D2*
X26020D1*
X26155D2*
X26170D1*
X26388D2*
X26406D1*
X25367Y13747D2*
X25397D1*
X25600D2*
X25615D1*
X25750D2*
X25795D1*
X26005D2*
X26020D1*
X26155D2*
X26170D1*
X26373D2*
X26398D1*
X25381Y13732D2*
X25444D1*
X25600D2*
X25615D1*
X25750D2*
X25786D1*
X26005D2*
X26020D1*
X26155D2*
X26170D1*
X26326D2*
X26388D1*
X25400Y13717D2*
X25520D1*
X25600D2*
X25615D1*
X25750D2*
X25777D1*
X26005D2*
X26020D1*
X26155D2*
X26170D1*
X26250D2*
X26374D1*
X25424Y13702D2*
X25615D1*
X25750D2*
X25771D1*
X26005D2*
X26020D1*
X26155D2*
X26356D1*
X25450Y13687D2*
X25615D1*
X25750D2*
X25765D1*
X26005D2*
X26020D1*
X26155D2*
X26335D1*
X25498Y13152D2*
X25603D1*
X25813D2*
X26083D1*
X26203D2*
X26338D1*
X25471Y13137D2*
X25622D1*
X25813D2*
X26083D1*
X26203D2*
X26359D1*
X25452Y13122D2*
X25498D1*
X25599D2*
X25637D1*
X25933D2*
X25948D1*
X26280D2*
X26378D1*
X25438Y13107D2*
X25453D1*
X25620D2*
X25648D1*
X25933D2*
X25948D1*
X26333D2*
X26393D1*
X25637Y13092D2*
X25658D1*
X25933D2*
X25948D1*
X26371D2*
X26405D1*
X25645Y13077D2*
X25665D1*
X25933D2*
X25948D1*
X26386D2*
X26414D1*
X25654Y13062D2*
X25671D1*
X25933D2*
X25948D1*
X26398D2*
X26421D1*
X25663Y13047D2*
X25674D1*
X25933D2*
X25948D1*
X26405D2*
X26424D1*
X25655Y13032D2*
X25674D1*
X25933D2*
X25948D1*
X26409D2*
X26426D1*
X25648Y13017D2*
X25670D1*
X25933D2*
X25948D1*
X26411D2*
X26427D1*
X25639Y13002D2*
X25664D1*
X25933D2*
X25948D1*
X26412D2*
X26427D1*
X25626Y12987D2*
X25655D1*
X25933D2*
X25948D1*
X26412D2*
X26427D1*
X25607Y12972D2*
X25641D1*
X25933D2*
X25948D1*
X26412D2*
X26427D1*
X25583Y12957D2*
X25622D1*
X25933D2*
X25948D1*
X26412D2*
X26428D1*
X25556Y12942D2*
X25598D1*
X25933D2*
X25948D1*
X26413D2*
X26428D1*
X25527Y12927D2*
X25571D1*
X25933D2*
X25948D1*
X26413D2*
X26428D1*
X25498Y12912D2*
X25544D1*
X25933D2*
X25948D1*
X26413D2*
X26428D1*
X25471Y12897D2*
X25518D1*
X25933D2*
X25948D1*
X26413D2*
X26428D1*
X25447Y12882D2*
X25494D1*
X25933D2*
X25948D1*
X26413D2*
X26428D1*
X25430Y12867D2*
X25471D1*
X25933D2*
X25948D1*
X26413D2*
X26428D1*
X25416Y12852D2*
X25452D1*
X25933D2*
X25948D1*
X26413D2*
X26428D1*
X25412Y12837D2*
X25439D1*
X25933D2*
X25948D1*
X26412D2*
X26428D1*
X25409Y12822D2*
X25431D1*
X25933D2*
X25948D1*
X26412D2*
X26427D1*
X25408Y12807D2*
X25426D1*
X25933D2*
X25948D1*
X26410D2*
X26427D1*
X25408Y12792D2*
X25425D1*
X25933D2*
X25948D1*
X26406D2*
X26425D1*
X25408Y12777D2*
X25425D1*
X25933D2*
X25948D1*
X26399D2*
X26421D1*
X25411Y12762D2*
X25432D1*
X25933D2*
X25948D1*
X26390D2*
X26414D1*
X25417Y12747D2*
X25442D1*
X25648D2*
X25678D1*
X25933D2*
X25948D1*
X26378D2*
X26406D1*
X25427Y12732D2*
X25471D1*
X25610D2*
X25661D1*
X25933D2*
X25948D1*
X26341D2*
X26394D1*
X25442Y12717D2*
X25516D1*
X25573D2*
X25637D1*
X25933D2*
X25948D1*
X26280D2*
X26378D1*
X25461Y12702D2*
X25607D1*
X25933D2*
X25948D1*
X26203D2*
X26359D1*
X25483Y12687D2*
X25573D1*
X25933D2*
X25948D1*
X26203D2*
X26338D1*
X25830Y12152D2*
X25845D1*
X26145D2*
X26340D1*
X25530Y12137D2*
X25545D1*
X25823D2*
X25840D1*
X26145D2*
X26340D1*
X25532Y12122D2*
X25547D1*
X25816D2*
X25835D1*
X26325D2*
X26340D1*
X25536Y12107D2*
X25551D1*
X25810D2*
X25830D1*
X26325D2*
X26340D1*
X25541Y12092D2*
X25556D1*
X25805D2*
X25825D1*
X26325D2*
X26340D1*
X25545Y12077D2*
X25560D1*
X25800D2*
X25820D1*
X26325D2*
X26340D1*
X25550Y12062D2*
X25565D1*
X25795D2*
X25815D1*
X26325D2*
X26340D1*
X25555Y12047D2*
X25570D1*
X25790D2*
X25810D1*
X26325D2*
X26340D1*
X25560Y12032D2*
X25575D1*
X25785D2*
X25805D1*
X26325D2*
X26340D1*
X25565Y12017D2*
X25580D1*
X25780D2*
X25800D1*
X26325D2*
X26340D1*
X25570Y12002D2*
X25585D1*
X25775D2*
X25795D1*
X26325D2*
X26340D1*
X25575Y11987D2*
X25590D1*
X25770D2*
X25790D1*
X26325D2*
X26340D1*
X25580Y11972D2*
X25595D1*
X25765D2*
X25785D1*
X26325D2*
X26340D1*
X25585Y11957D2*
X25600D1*
X25760D2*
X25780D1*
X26325D2*
X26340D1*
X25590Y11942D2*
X25605D1*
X25755D2*
X25775D1*
X26250D2*
X26340D1*
X25595Y11927D2*
X25610D1*
X25750D2*
X25770D1*
X26196D2*
X26340D1*
X25600Y11912D2*
X25615D1*
X25745D2*
X25765D1*
X26158D2*
X26258D1*
X25605Y11897D2*
X25620D1*
X25740D2*
X25760D1*
X26142D2*
X26202D1*
X25610Y11882D2*
X25625D1*
X25735D2*
X25755D1*
X26130D2*
X26163D1*
X25615Y11867D2*
X25630D1*
X25730D2*
X25750D1*
X26123D2*
X26148D1*
X25620Y11852D2*
X25635D1*
X25725D2*
X25745D1*
X26118D2*
X26137D1*
X25625Y11837D2*
X25640D1*
X25720D2*
X25740D1*
X26116D2*
X26133D1*
X25630Y11822D2*
X25645D1*
X25715D2*
X25735D1*
X26116D2*
X26131D1*
X25635Y11807D2*
X25650D1*
X25710D2*
X25730D1*
X26115D2*
X26130D1*
X25640Y11792D2*
X25656D1*
X25704D2*
X25725D1*
X25645Y11777D2*
X25662D1*
X25698D2*
X25720D1*
X26115D2*
X26130D1*
X25650Y11762D2*
X25671D1*
X25689D2*
X25715D1*
X26121D2*
X26141D1*
X25655Y11747D2*
X25710D1*
X26128D2*
X26154D1*
X25660Y11732D2*
X25705D1*
X26137D2*
X26194D1*
X25665Y11717D2*
X25700D1*
X26151D2*
X26259D1*
X25672Y11702D2*
X25697D1*
X26169D2*
X26340D1*
X25680Y11687D2*
X25695D1*
X26190D2*
X26340D1*
X25830Y11152D2*
X25845D1*
X26100D2*
X26370D1*
X25530Y11137D2*
X25545D1*
X25817D2*
X25837D1*
X26100D2*
X26370D1*
X25537Y11122D2*
X25555D1*
X25806D2*
X25829D1*
X26220D2*
X26235D1*
X25546Y11107D2*
X25565D1*
X25795D2*
X25820D1*
X26220D2*
X26235D1*
X25555Y11092D2*
X25575D1*
X25785D2*
X25810D1*
X26220D2*
X26235D1*
X25565Y11077D2*
X25585D1*
X25775D2*
X25800D1*
X26220D2*
X26235D1*
X25575Y11062D2*
X25595D1*
X25765D2*
X25790D1*
X26220D2*
X26235D1*
X25585Y11047D2*
X25605D1*
X25755D2*
X25780D1*
X26220D2*
X26235D1*
X25595Y11032D2*
X25615D1*
X25745D2*
X25770D1*
X26220D2*
X26235D1*
X25605Y11017D2*
X25625D1*
X25735D2*
X25760D1*
X26220D2*
X26235D1*
X25615Y11002D2*
X25635D1*
X25725D2*
X25750D1*
X26220D2*
X26235D1*
X25625Y10987D2*
X25646D1*
X25714D2*
X25740D1*
X26220D2*
X26235D1*
X25635Y10972D2*
X25658D1*
X25702D2*
X25730D1*
X26220D2*
X26235D1*
X25644Y10957D2*
X25675D1*
X25685D2*
X25720D1*
X26220D2*
X26235D1*
X25652Y10942D2*
X25711D1*
X26220D2*
X26235D1*
X25657Y10927D2*
X25704D1*
X26220D2*
X26235D1*
X25656Y10912D2*
X25705D1*
X26220D2*
X26235D1*
X25651Y10897D2*
X25713D1*
X26220D2*
X26235D1*
X25643Y10882D2*
X25721D1*
X26220D2*
X26235D1*
X25634Y10867D2*
X25666D1*
X25695D2*
X25730D1*
X26220D2*
X26235D1*
X25625Y10852D2*
X25652D1*
X25709D2*
X25740D1*
X26220D2*
X26235D1*
X25615Y10837D2*
X25641D1*
X25722D2*
X25750D1*
X26220D2*
X26235D1*
X25605Y10822D2*
X25630D1*
X25734D2*
X25760D1*
X26220D2*
X26235D1*
X25595Y10807D2*
X25620D1*
X25744D2*
X25770D1*
X26220D2*
X26235D1*
X25585Y10792D2*
X25610D1*
X25755D2*
X25780D1*
X26220D2*
X26235D1*
X25575Y10777D2*
X25600D1*
X25765D2*
X25790D1*
X26220D2*
X26235D1*
X25565Y10762D2*
X25590D1*
X25775D2*
X25800D1*
X26220D2*
X26235D1*
X25555Y10747D2*
X25580D1*
X25785D2*
X25810D1*
X26220D2*
X26235D1*
X25545Y10732D2*
X25570D1*
X25795D2*
X25820D1*
X26220D2*
X26235D1*
X25537Y10717D2*
X25558D1*
X25805D2*
X25830D1*
X26220D2*
X26235D1*
X25530Y10702D2*
X25545D1*
X25817D2*
X25838D1*
X26220D2*
X26235D1*
X25830Y10687D2*
X25845D1*
X26220D2*
X26235D1*
X25830Y10152D2*
X25845D1*
X26190D2*
X26370D1*
X25530Y10137D2*
X25545D1*
X25817D2*
X25838D1*
X26168D2*
X26370D1*
X25538Y10122D2*
X25555D1*
X25806D2*
X25829D1*
X26149D2*
X26175D1*
X26355D2*
X26370D1*
X25546Y10107D2*
X25565D1*
X25796D2*
X25820D1*
X26134D2*
X26161D1*
X26355D2*
X26370D1*
X25555Y10092D2*
X25575D1*
X25785D2*
X25810D1*
X26122D2*
X26148D1*
X26355D2*
X26370D1*
X25565Y10077D2*
X25585D1*
X25775D2*
X25800D1*
X26113D2*
X26137D1*
X26355D2*
X26370D1*
X25575Y10062D2*
X25595D1*
X25765D2*
X25790D1*
X26107D2*
X26128D1*
X26355D2*
X26370D1*
X25585Y10047D2*
X25605D1*
X25755D2*
X25780D1*
X26103D2*
X26122D1*
X26355D2*
X26370D1*
X25595Y10032D2*
X25615D1*
X25745D2*
X25770D1*
X26101D2*
X26118D1*
X26355D2*
X26370D1*
X25605Y10017D2*
X25625D1*
X25735D2*
X25760D1*
X26101D2*
X26117D1*
X26355D2*
X26370D1*
X25615Y10002D2*
X25635D1*
X25725D2*
X25750D1*
X26101D2*
X26118D1*
X26355D2*
X26370D1*
X25625Y9987D2*
X25646D1*
X25714D2*
X25740D1*
X26103D2*
X26122D1*
X26355D2*
X26370D1*
X25635Y9972D2*
X25658D1*
X25702D2*
X25730D1*
X26107D2*
X26128D1*
X26355D2*
X26370D1*
X25644Y9957D2*
X25675D1*
X25685D2*
X25720D1*
X26113D2*
X26136D1*
X26355D2*
X26370D1*
X25652Y9942D2*
X25711D1*
X26122D2*
X26152D1*
X26355D2*
X26370D1*
X25657Y9927D2*
X25704D1*
X26136D2*
X26199D1*
X26355D2*
X26370D1*
X25656Y9912D2*
X25705D1*
X26153D2*
X26275D1*
X26355D2*
X26370D1*
X25651Y9897D2*
X25713D1*
X26171D2*
X26370D1*
X25643Y9882D2*
X25721D1*
X26190D2*
X26370D1*
X25634Y9867D2*
X25666D1*
X25695D2*
X25730D1*
X26181D2*
X26202D1*
X26355D2*
X26370D1*
X25625Y9852D2*
X25653D1*
X25709D2*
X25740D1*
X26172D2*
X26196D1*
X26355D2*
X26370D1*
X25615Y9837D2*
X25641D1*
X25723D2*
X25750D1*
X26164D2*
X26188D1*
X26355D2*
X26370D1*
X25605Y9822D2*
X25631D1*
X25734D2*
X25760D1*
X26156D2*
X26180D1*
X26355D2*
X26370D1*
X25595Y9807D2*
X25620D1*
X25744D2*
X25770D1*
X26149D2*
X26172D1*
X26355D2*
X26370D1*
X25585Y9792D2*
X25610D1*
X25755D2*
X25780D1*
X26141D2*
X26164D1*
X26355D2*
X26370D1*
X25575Y9777D2*
X25600D1*
X25765D2*
X25790D1*
X26134D2*
X26156D1*
X26355D2*
X26370D1*
X25565Y9762D2*
X25590D1*
X25775D2*
X25800D1*
X26126D2*
X26149D1*
X26355D2*
X26370D1*
X25555Y9747D2*
X25580D1*
X25785D2*
X25810D1*
X26119D2*
X26141D1*
X26355D2*
X26370D1*
X25545Y9732D2*
X25570D1*
X25795D2*
X25820D1*
X26112D2*
X26134D1*
X26355D2*
X26370D1*
X25537Y9717D2*
X25558D1*
X25805D2*
X25830D1*
X26106D2*
X26127D1*
X26355D2*
X26370D1*
X25530Y9702D2*
X25545D1*
X25817D2*
X25838D1*
X26103D2*
X26120D1*
X26355D2*
X26370D1*
X25830Y9687D2*
X25845D1*
X26100D2*
X26115D1*
X26355D2*
X26370D1*
X25435Y9215D2*
X25615D1*
X25750D2*
X26020D1*
X26245D2*
X26425D1*
X25413Y9200D2*
X25615D1*
X25750D2*
X26020D1*
X26223D2*
X26425D1*
X25394Y9185D2*
X25420D1*
X25600D2*
X25615D1*
X25870D2*
X25885D1*
X26204D2*
X26248D1*
X26410D2*
X26425D1*
X25379Y9170D2*
X25405D1*
X25600D2*
X25615D1*
X25870D2*
X25885D1*
X26189D2*
X26225D1*
X26410D2*
X26425D1*
X25367Y9155D2*
X25391D1*
X25600D2*
X25615D1*
X25870D2*
X25885D1*
X26177D2*
X26207D1*
X26410D2*
X26425D1*
X25358Y9140D2*
X25378D1*
X25600D2*
X25615D1*
X25870D2*
X25885D1*
X26168D2*
X26193D1*
X26410D2*
X26425D1*
X25352Y9125D2*
X25369D1*
X25600D2*
X25615D1*
X25870D2*
X25885D1*
X26162D2*
X26184D1*
X26410D2*
X26425D1*
X25348Y9110D2*
X25364D1*
X25600D2*
X25615D1*
X25870D2*
X25885D1*
X26158D2*
X26177D1*
X26410D2*
X26425D1*
X25346Y9095D2*
X25362D1*
X25600D2*
X25615D1*
X25870D2*
X25885D1*
X26156D2*
X26173D1*
X26410D2*
X26425D1*
X25346Y9080D2*
X25361D1*
X25600D2*
X25615D1*
X25870D2*
X25885D1*
X26156D2*
X26171D1*
X26410D2*
X26425D1*
X25346Y9065D2*
X25361D1*
X25600D2*
X25615D1*
X25870D2*
X25885D1*
X26155D2*
X26171D1*
X26410D2*
X26425D1*
X25348Y9050D2*
X25363D1*
X25600D2*
X25615D1*
X25870D2*
X25885D1*
X26155D2*
X26170D1*
X26410D2*
X26425D1*
X25352Y9035D2*
X25369D1*
X25600D2*
X25615D1*
X25870D2*
X25885D1*
X26155D2*
X26170D1*
X26410D2*
X26425D1*
X25358Y9020D2*
X25380D1*
X25600D2*
X25615D1*
X25870D2*
X25885D1*
X26155D2*
X26170D1*
X26410D2*
X26425D1*
X25367Y9005D2*
X25396D1*
X25600D2*
X25615D1*
X25870D2*
X25885D1*
X26155D2*
X26170D1*
X26410D2*
X26425D1*
X25381Y8990D2*
X25443D1*
X25600D2*
X25615D1*
X25870D2*
X25885D1*
X26155D2*
X26170D1*
X26410D2*
X26425D1*
X25398Y8975D2*
X25519D1*
X25600D2*
X25615D1*
X25870D2*
X25885D1*
X26155D2*
X26170D1*
X26410D2*
X26425D1*
X25416Y8960D2*
X25615D1*
X25870D2*
X25885D1*
X26155D2*
X26170D1*
X26410D2*
X26425D1*
X25435Y8945D2*
X25615D1*
X25870D2*
X25885D1*
X26155D2*
X26170D1*
X26410D2*
X26425D1*
X25426Y8930D2*
X25452D1*
X25600D2*
X25615D1*
X25870D2*
X25885D1*
X26155D2*
X26170D1*
X26410D2*
X26425D1*
X25417Y8915D2*
X25442D1*
X25600D2*
X25615D1*
X25870D2*
X25885D1*
X26155D2*
X26170D1*
X26410D2*
X26425D1*
X25409Y8900D2*
X25432D1*
X25600D2*
X25615D1*
X25870D2*
X25885D1*
X26155D2*
X26170D1*
X26410D2*
X26425D1*
X25401Y8885D2*
X25424D1*
X25600D2*
X25615D1*
X25870D2*
X25885D1*
X26155D2*
X26171D1*
X26410D2*
X26425D1*
X25394Y8870D2*
X25416D1*
X25600D2*
X25615D1*
X25870D2*
X25885D1*
X26156D2*
X26173D1*
X26410D2*
X26425D1*
X25386Y8855D2*
X25409D1*
X25600D2*
X25615D1*
X25870D2*
X25885D1*
X26158D2*
X26177D1*
X26410D2*
X26425D1*
X25379Y8840D2*
X25401D1*
X25600D2*
X25615D1*
X25870D2*
X25885D1*
X26162D2*
X26183D1*
X26410D2*
X26425D1*
X25371Y8825D2*
X25394D1*
X25600D2*
X25615D1*
X25870D2*
X25885D1*
X26168D2*
X26191D1*
X26410D2*
X26425D1*
X25364Y8810D2*
X25386D1*
X25600D2*
X25615D1*
X25870D2*
X25885D1*
X26177D2*
X26207D1*
X26410D2*
X26425D1*
X25357Y8795D2*
X25379D1*
X25600D2*
X25615D1*
X25870D2*
X25885D1*
X26191D2*
X26254D1*
X26410D2*
X26425D1*
X25351Y8780D2*
X25372D1*
X25600D2*
X25615D1*
X25870D2*
X25885D1*
X26210D2*
X26330D1*
X26410D2*
X26425D1*
X25348Y8765D2*
X25365D1*
X25600D2*
X25615D1*
X25870D2*
X25885D1*
X26234D2*
X26425D1*
X25345Y8750D2*
X25360D1*
X25600D2*
X25615D1*
X25870D2*
X25885D1*
X26260D2*
X26425D1*
X17596Y13187D2*
Y13172D1*
Y13157D1*
Y13142D1*
Y13127D1*
Y13112D1*
Y13097D1*
Y13082D1*
Y13067D1*
Y13052D1*
Y13037D1*
Y13022D1*
Y13007D1*
Y12992D1*
Y12977D1*
Y12962D1*
Y12947D1*
Y12932D1*
Y12917D1*
Y12902D1*
Y12887D1*
Y12872D1*
Y12857D1*
Y12842D1*
Y12827D1*
Y12812D1*
Y12797D1*
Y12782D1*
Y12767D1*
Y12752D1*
Y12737D1*
Y12722D1*
X17611Y13187D2*
X17626Y13172D1*
X17641Y13157D1*
X17656Y13142D1*
X17671Y13127D1*
X17686Y13112D1*
X17701Y13097D1*
X17716Y13082D1*
X17836Y13187D2*
Y13172D1*
X17913Y13157D1*
X17966Y13142D1*
X18004Y13127D1*
X18020Y13112D1*
X18031Y13097D1*
X18039Y13082D1*
X18043Y13067D1*
X18045Y13052D1*
Y13037D1*
X18046Y13022D1*
Y13007D1*
Y12992D1*
Y12977D1*
Y12962D1*
Y12947D1*
Y12932D1*
Y12917D1*
Y12902D1*
Y12887D1*
Y12872D1*
X18045Y12857D1*
X18043Y12842D1*
X18039Y12827D1*
X18033Y12812D1*
X18024Y12797D1*
X18011Y12782D1*
X17974Y12767D1*
X17913Y12752D1*
X17836Y12737D1*
Y12722D1*
X17971Y13187D2*
X17993Y13172D1*
X18012Y13157D1*
X18027Y13142D1*
X18039Y13127D1*
X18048Y13112D1*
X18054Y13097D1*
X18058Y13082D1*
X18060Y13067D1*
Y13052D1*
X18061Y13037D1*
Y13022D1*
Y13007D1*
Y12992D1*
Y12977D1*
Y12962D1*
Y12947D1*
Y12932D1*
Y12917D1*
Y12902D1*
Y12887D1*
Y12872D1*
Y12857D1*
X18060Y12842D1*
X18058Y12827D1*
X18054Y12812D1*
X18048Y12797D1*
X18039Y12782D1*
X18027Y12767D1*
X18012Y12752D1*
X17992Y12737D1*
X17971Y12722D1*
X17611Y13142D2*
Y13127D1*
Y13112D1*
Y13097D1*
Y13082D1*
Y13067D1*
Y13052D1*
Y13037D1*
Y13022D1*
Y13007D1*
Y12992D1*
Y12977D1*
Y12962D1*
Y12947D1*
Y12932D1*
Y12917D1*
Y12902D1*
Y12887D1*
Y12872D1*
Y12857D1*
Y12842D1*
Y12827D1*
Y12812D1*
Y12797D1*
Y12782D1*
Y12767D1*
Y12752D1*
Y12737D1*
Y12722D1*
X17626Y13142D2*
X17641Y13127D1*
X17656Y13112D1*
X17671Y13097D1*
X17686Y13082D1*
X16884Y7062D2*
X16866Y7047D1*
X16851Y7032D1*
X16839Y7017D1*
X16831Y7002D1*
X16827Y6987D1*
X16825Y6972D1*
X16824Y6957D1*
Y6942D1*
X16826Y6927D1*
X16830Y6912D1*
X16836Y6897D1*
X16843Y6882D1*
X16851Y6867D1*
X16859Y6852D1*
X16869Y6837D1*
X16879Y6822D1*
X16889Y6807D1*
X16899Y6792D1*
X16908Y6777D1*
X16917Y6762D1*
X16925Y6747D1*
X16934Y6732D1*
X16944Y6717D1*
X16954Y6702D1*
X16964Y6687D1*
X16974Y6672D1*
X16984Y6657D1*
X16994Y6642D1*
X17006Y6627D1*
X17019Y6612D1*
X16959Y7062D2*
X16980Y7047D1*
X16999Y7032D1*
X17014Y7017D1*
X17025Y7002D1*
X17030Y6987D1*
X17034Y6972D1*
X17154Y7062D2*
Y7047D1*
X17231Y7032D1*
X17284Y7017D1*
X17322Y7002D1*
X17338Y6987D1*
X17349Y6972D1*
X17356Y6957D1*
X17360Y6942D1*
X17362Y6927D1*
X17363Y6912D1*
Y6897D1*
X17364Y6882D1*
Y6867D1*
Y6852D1*
Y6837D1*
Y6822D1*
Y6807D1*
Y6792D1*
Y6777D1*
Y6762D1*
Y6747D1*
X17363Y6732D1*
X17361Y6717D1*
X17357Y6702D1*
X17351Y6687D1*
X17341Y6672D1*
X17329Y6657D1*
X17292Y6642D1*
X17231Y6627D1*
X17154Y6612D1*
Y6597D1*
X17289Y7062D2*
X17310Y7047D1*
X17329Y7032D1*
X17344Y7017D1*
X17356Y7002D1*
X17365Y6987D1*
X17372Y6972D1*
X17375Y6957D1*
X17377Y6942D1*
X17378Y6927D1*
Y6912D1*
X17379Y6897D1*
Y6882D1*
Y6867D1*
Y6852D1*
Y6837D1*
Y6822D1*
Y6807D1*
Y6792D1*
Y6777D1*
Y6762D1*
Y6747D1*
Y6732D1*
X17378Y6717D1*
X17376Y6702D1*
X17372Y6687D1*
X17366Y6672D1*
X17357Y6657D1*
X17345Y6642D1*
X17329Y6627D1*
X17310Y6612D1*
X17289Y6597D1*
X16899Y7047D2*
X16884Y7032D1*
X16869Y7017D1*
X16857Y7002D1*
X16848Y6987D1*
X16843Y6972D1*
X16840Y6957D1*
Y6942D1*
X16842Y6927D1*
X16847Y6912D1*
X16855Y6897D1*
X16864Y6882D1*
X16874Y6867D1*
X16884Y6852D1*
X16893Y6837D1*
X16902Y6822D1*
X16910Y6807D1*
X16919Y6792D1*
X16929Y6777D1*
X16939Y6762D1*
X16949Y6747D1*
X16959Y6732D1*
X16968Y6717D1*
X16977Y6702D1*
X16985Y6687D1*
X16994Y6672D1*
X17004Y6657D1*
X17013Y6642D1*
X17021Y6627D1*
X17028Y6612D1*
X17034Y6597D1*
X16959Y7047D2*
X16974Y7032D1*
X16988Y7017D1*
X17001Y7002D1*
X17011Y6987D1*
X17019Y6972D1*
X16824Y6612D2*
Y6597D1*
X18120Y15501D2*
X18099Y15486D1*
X18081Y15471D1*
X18068Y15456D1*
X18059Y15441D1*
X18052Y15426D1*
X18048Y15411D1*
X18046Y15396D1*
X18045Y15381D1*
Y15366D1*
Y15351D1*
Y15336D1*
Y15321D1*
Y15306D1*
Y15291D1*
X18255Y15501D2*
X18278Y15486D1*
X18303Y15471D1*
X18330Y15456D1*
X18375Y15501D2*
X18350Y15486D1*
X18325Y15471D1*
X18300Y15456D1*
X18450Y15501D2*
X18471Y15486D1*
X18489Y15471D1*
X18502Y15456D1*
X18511Y15441D1*
X18518Y15426D1*
X18522Y15411D1*
X18524Y15396D1*
Y15381D1*
X18525Y15366D1*
Y15351D1*
Y15336D1*
Y15321D1*
Y15306D1*
Y15291D1*
X18150Y15486D2*
X18123Y15471D1*
X18102Y15456D1*
X18086Y15441D1*
X18075Y15426D1*
X18067Y15411D1*
X18063Y15396D1*
X18061Y15381D1*
Y15366D1*
X18060Y15351D1*
Y15336D1*
Y15321D1*
Y15306D1*
Y15291D1*
X18240Y15486D2*
X18255Y15471D1*
X18269Y15456D1*
X18282Y15441D1*
X18291Y15426D1*
X18296Y15411D1*
X18298Y15396D1*
X18299Y15381D1*
X18300Y15366D1*
Y15351D1*
Y15336D1*
X18375Y15486D2*
X18361Y15471D1*
X18348Y15456D1*
X18337Y15441D1*
X18328Y15426D1*
X18322Y15411D1*
X18318Y15396D1*
X18316Y15381D1*
X18315Y15366D1*
Y15351D1*
Y15336D1*
X18420Y15486D2*
X18446Y15471D1*
X18468Y15456D1*
X18484Y15441D1*
X18495Y15426D1*
X18503Y15411D1*
X18507Y15396D1*
X18509Y15381D1*
Y15366D1*
X18510Y15351D1*
Y15336D1*
Y15321D1*
Y15306D1*
Y15291D1*
X18045Y15141D2*
Y15126D1*
Y15111D1*
Y15096D1*
Y15081D1*
Y15066D1*
X18046Y15051D1*
X18048Y15036D1*
X18052Y15021D1*
X18058Y15006D1*
X18067Y14991D1*
X18079Y14976D1*
X18094Y14961D1*
X18114Y14946D1*
X18135Y14931D1*
X18060Y15141D2*
Y15126D1*
Y15111D1*
Y15096D1*
X18061Y15081D1*
X18062Y15066D1*
X18066Y15051D1*
X18071Y15036D1*
X18076Y15021D1*
X18083Y15006D1*
X18094Y14991D1*
X18107Y14976D1*
X18121Y14961D1*
X18135Y14946D1*
X18510Y15141D2*
Y15126D1*
Y15111D1*
Y15096D1*
Y15081D1*
X18509Y15066D1*
X18507Y15051D1*
X18503Y15036D1*
X18497Y15021D1*
X18488Y15006D1*
X18477Y14991D1*
X18464Y14976D1*
X18450Y14961D1*
X18435Y14946D1*
X18525Y15141D2*
Y15126D1*
Y15111D1*
Y15096D1*
Y15081D1*
X18524Y15066D1*
X18522Y15051D1*
X18519Y15036D1*
X18514Y15021D1*
X18509Y15006D1*
X18502Y14991D1*
X18491Y14976D1*
X18475Y14961D1*
X18456Y14946D1*
X18435Y14931D1*
X14381Y8562D2*
X14382Y8547D1*
X14384Y8532D1*
X14387Y8517D1*
X14392Y8502D1*
X14396Y8487D1*
X14401Y8472D1*
X14406Y8457D1*
X14409Y8442D1*
X14412Y8427D1*
X14417Y8412D1*
X14421Y8397D1*
X14426Y8382D1*
X14431Y8367D1*
X14436Y8352D1*
X14439Y8337D1*
X14442Y8322D1*
X14447Y8307D1*
X14451Y8292D1*
X14454Y8277D1*
X14458Y8262D1*
X14462Y8247D1*
X14467Y8232D1*
X14471Y8217D1*
X14336Y8202D1*
X14396Y8562D2*
X14398Y8547D1*
X14402Y8532D1*
X14407Y8517D1*
X14411Y8502D1*
X14416Y8487D1*
X14421Y8472D1*
X14424Y8457D1*
X14427Y8442D1*
X14432Y8427D1*
X14436Y8412D1*
X14441Y8397D1*
X14446Y8382D1*
X14451Y8367D1*
X14454Y8352D1*
X14457Y8337D1*
X14462Y8322D1*
X14466Y8307D1*
X14471Y8292D1*
X14476Y8277D1*
X14481Y8262D1*
X14484Y8247D1*
X14488Y8232D1*
X14492Y8217D1*
X14497Y8202D1*
X14501Y8187D1*
X14621Y8562D2*
Y8547D1*
X14698Y8532D1*
X14752Y8517D1*
X14789Y8502D1*
X14805Y8487D1*
X14816Y8472D1*
X14824Y8457D1*
X14828Y8442D1*
X14830Y8427D1*
X14831Y8412D1*
Y8397D1*
Y8382D1*
Y8367D1*
Y8352D1*
Y8337D1*
Y8322D1*
Y8307D1*
Y8292D1*
Y8277D1*
Y8262D1*
Y8247D1*
Y8232D1*
X14829Y8217D1*
X14824Y8202D1*
X14818Y8187D1*
X14809Y8172D1*
X14797Y8157D1*
X14759Y8142D1*
X14698Y8127D1*
X14621Y8112D1*
Y8097D1*
X14756Y8562D2*
X14778Y8547D1*
X14797Y8532D1*
X14812Y8517D1*
X14824Y8502D1*
X14833Y8487D1*
X14839Y8472D1*
X14843Y8457D1*
X14845Y8442D1*
X14846Y8427D1*
Y8412D1*
Y8397D1*
Y8382D1*
Y8367D1*
Y8352D1*
Y8337D1*
Y8322D1*
Y8307D1*
Y8292D1*
Y8277D1*
Y8262D1*
Y8247D1*
Y8232D1*
Y8217D1*
X14844Y8202D1*
X14839Y8187D1*
X14833Y8172D1*
X14824Y8157D1*
X14812Y8142D1*
X14797Y8127D1*
X14778Y8112D1*
X14756Y8097D1*
X14306Y8307D2*
Y8292D1*
Y8277D1*
Y8262D1*
Y8247D1*
Y8232D1*
Y8217D1*
Y8202D1*
X14231D1*
Y8187D1*
Y8172D1*
X14306D1*
Y8157D1*
Y8142D1*
Y8127D1*
Y8112D1*
Y8097D1*
X14321Y8307D2*
Y8292D1*
Y8277D1*
Y8262D1*
Y8247D1*
Y8232D1*
Y8217D1*
X14456Y8202D1*
X14321Y8187D2*
Y8172D1*
Y8157D1*
Y8142D1*
Y8127D1*
Y8112D1*
Y8097D1*
X13151Y6062D2*
Y6047D1*
X13346Y6062D2*
Y6047D1*
Y6032D1*
Y6017D1*
Y6002D1*
Y5987D1*
Y5972D1*
Y5957D1*
Y5942D1*
Y5927D1*
Y5912D1*
Y5897D1*
Y5882D1*
Y5867D1*
Y5852D1*
Y5837D1*
X13264Y5822D1*
X13208Y5807D1*
X13169Y5792D1*
X13154Y5777D1*
X13143Y5762D1*
X13140Y5747D1*
X13138Y5732D1*
X13137Y5717D1*
X13139Y5702D1*
X13143Y5687D1*
X13150Y5672D1*
X13161Y5657D1*
X13201Y5642D1*
X13265Y5627D1*
X13346Y5612D1*
Y5597D1*
X13466Y6062D2*
Y6047D1*
X13543Y6032D1*
X13597Y6017D1*
X13634Y6002D1*
X13650Y5987D1*
X13661Y5972D1*
X13669Y5957D1*
X13673Y5942D1*
X13675Y5927D1*
X13676Y5912D1*
Y5897D1*
Y5882D1*
Y5867D1*
Y5852D1*
Y5837D1*
Y5822D1*
Y5807D1*
Y5792D1*
Y5777D1*
Y5762D1*
Y5747D1*
X13675Y5732D1*
X13673Y5717D1*
X13669Y5702D1*
X13663Y5687D1*
X13654Y5672D1*
X13642Y5657D1*
X13604Y5642D1*
X13543Y5627D1*
X13466Y5612D1*
Y5597D1*
X13601Y6062D2*
X13623Y6047D1*
X13642Y6032D1*
X13657Y6017D1*
X13669Y6002D1*
X13678Y5987D1*
X13684Y5972D1*
X13688Y5957D1*
X13690Y5942D1*
X13691Y5927D1*
Y5912D1*
Y5897D1*
Y5882D1*
Y5867D1*
Y5852D1*
Y5837D1*
Y5822D1*
Y5807D1*
Y5792D1*
Y5777D1*
Y5762D1*
Y5747D1*
Y5732D1*
X13690Y5717D1*
X13688Y5702D1*
X13684Y5687D1*
X13678Y5672D1*
X13669Y5657D1*
X13657Y5642D1*
X13642Y5627D1*
X13623Y5612D1*
X13601Y5597D1*
X13331Y6047D2*
Y6032D1*
Y6017D1*
Y6002D1*
Y5987D1*
Y5972D1*
Y5957D1*
Y5942D1*
Y5927D1*
Y5912D1*
Y5897D1*
Y5882D1*
Y5867D1*
X13256Y5852D1*
X13202Y5837D1*
X13164Y5822D1*
X13148Y5807D1*
X13136Y5792D1*
X13129Y5777D1*
X13124Y5762D1*
X13122Y5747D1*
Y5732D1*
X13121Y5717D1*
X13122Y5702D1*
X13124Y5687D1*
X13128Y5672D1*
X13134Y5657D1*
X13143Y5642D1*
X13157Y5627D1*
X13175Y5612D1*
X13196Y5597D1*
X21346Y6437D2*
X21357Y6422D1*
X21371Y6407D1*
X21388Y6392D1*
X21404Y6377D1*
X21420Y6362D1*
X21435Y6347D1*
X21448Y6332D1*
X21459Y6317D1*
X21468Y6302D1*
X21475Y6287D1*
X21481Y6272D1*
X21488Y6257D1*
X21496Y6242D1*
X21419Y6227D1*
X21365Y6212D1*
X21331Y6197D1*
X21307Y6182D1*
X21297Y6167D1*
X21291Y6152D1*
X21288Y6137D1*
Y6122D1*
X21289Y6107D1*
X21292Y6092D1*
X21296Y6077D1*
X21299Y6062D1*
X21303Y6047D1*
X21308Y6032D1*
X21315Y6017D1*
X21326Y6002D1*
X21342Y5987D1*
X21361Y5972D1*
Y6437D2*
X21388Y6422D1*
X21412Y6407D1*
X21431Y6392D1*
X21447Y6377D1*
X21459Y6362D1*
X21470Y6347D1*
X21480Y6332D1*
X21489Y6317D1*
X21495Y6302D1*
X21501Y6287D1*
X21506Y6272D1*
X21509Y6257D1*
X21510Y6242D1*
X21511Y6227D1*
Y6212D1*
Y6197D1*
Y6182D1*
Y6167D1*
Y6152D1*
Y6137D1*
Y6122D1*
Y6107D1*
Y6092D1*
X21509Y6077D1*
X21505Y6062D1*
X21501Y6047D1*
X21495Y6032D1*
X21487Y6017D1*
X21475Y6002D1*
X21457Y5987D1*
X21436Y5972D1*
X21631Y6437D2*
Y6422D1*
X21708Y6407D1*
X21762Y6392D1*
X21799Y6377D1*
X21815Y6362D1*
X21826Y6347D1*
X21834Y6332D1*
X21838Y6317D1*
X21840Y6302D1*
X21841Y6287D1*
Y6272D1*
Y6257D1*
Y6242D1*
Y6227D1*
Y6212D1*
Y6197D1*
Y6182D1*
Y6167D1*
Y6152D1*
Y6137D1*
Y6122D1*
Y6107D1*
X21839Y6092D1*
X21834Y6077D1*
X21828Y6062D1*
X21819Y6047D1*
X21807Y6032D1*
X21769Y6017D1*
X21708Y6002D1*
X21631Y5987D1*
Y5972D1*
X21766Y6437D2*
X21788Y6422D1*
X21807Y6407D1*
X21822Y6392D1*
X21834Y6377D1*
X21843Y6362D1*
X21849Y6347D1*
X21853Y6332D1*
X21855Y6317D1*
X21856Y6302D1*
Y6287D1*
Y6272D1*
Y6257D1*
Y6242D1*
Y6227D1*
Y6212D1*
Y6197D1*
Y6182D1*
Y6167D1*
Y6152D1*
Y6137D1*
Y6122D1*
Y6107D1*
Y6092D1*
X21854Y6077D1*
X21849Y6062D1*
X21843Y6047D1*
X21834Y6032D1*
X21822Y6017D1*
X21807Y6002D1*
X21788Y5987D1*
X21766Y5972D1*
X21361Y6212D2*
X21347Y6197D1*
X21334Y6182D1*
X21325Y6167D1*
X21320Y6152D1*
X21318Y6137D1*
X21317Y6122D1*
X21316Y6107D1*
Y6092D1*
X21317Y6077D1*
X21319Y6062D1*
X21324Y6047D1*
X21332Y6032D1*
X21345Y6017D1*
X21361Y6002D1*
X21496Y6212D2*
Y6197D1*
Y6182D1*
Y6167D1*
Y6152D1*
Y6137D1*
Y6122D1*
Y6107D1*
Y6092D1*
X21494Y6077D1*
X21489Y6062D1*
X21483Y6047D1*
X21474Y6032D1*
X21449Y6017D1*
X21410Y6002D1*
X21361Y5987D1*
X6387Y11001D2*
X6322Y10986D1*
X6255Y10971D1*
X6189Y10956D1*
X6126Y10941D1*
X6069Y10926D1*
X6023Y10911D1*
X5982Y10896D1*
X6462Y11001D2*
Y10986D1*
Y10971D1*
Y10956D1*
Y10941D1*
Y10926D1*
Y10911D1*
Y10896D1*
Y10881D1*
Y10866D1*
Y10851D1*
Y10836D1*
Y10821D1*
Y10806D1*
Y10791D1*
Y10986D2*
X6390Y10971D1*
X6319Y10956D1*
X6250Y10941D1*
X6181Y10926D1*
X6112Y10911D1*
X6042Y10896D1*
X6447Y10986D2*
Y10971D1*
Y10956D1*
Y10941D1*
Y10926D1*
Y10911D1*
Y10896D1*
Y10881D1*
Y10866D1*
Y10851D1*
Y10836D1*
Y10821D1*
Y10806D1*
X6387D1*
Y10791D1*
X5982Y10641D2*
Y10626D1*
Y10611D1*
Y10596D1*
Y10581D1*
X5983Y10566D1*
Y10551D1*
X5985Y10536D1*
X5989Y10521D1*
X5996Y10506D1*
X6004Y10491D1*
X6016Y10476D1*
X6032Y10461D1*
X6051Y10446D1*
X6072Y10431D1*
X5997Y10641D2*
Y10626D1*
Y10611D1*
X5998Y10596D1*
Y10581D1*
X6000Y10566D1*
X6004Y10551D1*
X6008Y10536D1*
X6013Y10521D1*
X6021Y10506D1*
X6031Y10491D1*
X6044Y10476D1*
X6058Y10461D1*
X6072Y10446D1*
X6447Y10641D2*
Y10626D1*
Y10611D1*
Y10596D1*
Y10581D1*
Y10566D1*
X6445Y10551D1*
X6441Y10536D1*
X6434Y10521D1*
X6426Y10506D1*
X6414Y10491D1*
X6401Y10476D1*
X6387Y10461D1*
X6372Y10446D1*
X6462Y10641D2*
Y10626D1*
Y10611D1*
Y10596D1*
Y10581D1*
Y10566D1*
X6460Y10551D1*
X6456Y10536D1*
X6452Y10521D1*
X6447Y10506D1*
X6439Y10491D1*
X6428Y10476D1*
X6413Y10461D1*
X6394Y10446D1*
X6372Y10431D1*
X9435Y15211D2*
X9417Y15196D1*
X9402Y15181D1*
X9391Y15166D1*
X9383Y15151D1*
X9379Y15136D1*
X9376Y15121D1*
Y15106D1*
X9375Y15091D1*
X9376Y15076D1*
X9378Y15061D1*
X9384Y15046D1*
X9394Y15031D1*
X9407Y15016D1*
X9420Y15001D1*
X9406Y14986D1*
X9393Y14971D1*
X9384Y14956D1*
X9379Y14941D1*
X9377Y14926D1*
X9376Y14911D1*
X9375Y14896D1*
Y14881D1*
Y14866D1*
Y14851D1*
X9376Y14836D1*
X9378Y14821D1*
X9382Y14806D1*
X9391Y14791D1*
X9403Y14776D1*
X9418Y14761D1*
X9435Y14746D1*
X9510Y15211D2*
X9531Y15196D1*
X9549Y15181D1*
X9562Y15166D1*
X9571Y15151D1*
X9578Y15136D1*
X9582Y15121D1*
X9583Y15106D1*
X9582Y15091D1*
X9578Y15076D1*
X9572Y15061D1*
X9563Y15046D1*
X9552Y15031D1*
X9539Y15016D1*
X9525Y15001D1*
X9541Y14986D1*
X9554Y14971D1*
X9564Y14956D1*
X9572Y14941D1*
X9578Y14926D1*
X9582Y14911D1*
X9584Y14896D1*
Y14881D1*
X9585Y14866D1*
X9584Y14851D1*
X9582Y14836D1*
X9578Y14821D1*
X9572Y14806D1*
X9563Y14791D1*
X9549Y14776D1*
X9531Y14761D1*
X9510Y14746D1*
X9705Y15211D2*
Y15196D1*
X9782Y15181D1*
X9835Y15166D1*
X9873Y15151D1*
X9889Y15136D1*
X9900Y15121D1*
X9908Y15106D1*
X9912Y15091D1*
X9914Y15076D1*
Y15061D1*
X9915Y15046D1*
Y15031D1*
Y15016D1*
Y15001D1*
Y14986D1*
Y14971D1*
Y14956D1*
Y14941D1*
Y14926D1*
Y14911D1*
Y14896D1*
X9914Y14881D1*
X9912Y14866D1*
X9908Y14851D1*
X9902Y14836D1*
X9893Y14821D1*
X9880Y14806D1*
X9843Y14791D1*
X9782Y14776D1*
X9705Y14761D1*
Y14746D1*
X9840Y15211D2*
X9862Y15196D1*
X9881Y15181D1*
X9896Y15166D1*
X9908Y15151D1*
X9917Y15136D1*
X9923Y15121D1*
X9927Y15106D1*
X9929Y15091D1*
Y15076D1*
X9930Y15061D1*
Y15046D1*
Y15031D1*
Y15016D1*
Y15001D1*
Y14986D1*
Y14971D1*
Y14956D1*
Y14941D1*
Y14926D1*
Y14911D1*
Y14896D1*
Y14881D1*
X9929Y14866D1*
X9927Y14851D1*
X9923Y14836D1*
X9917Y14821D1*
X9908Y14806D1*
X9896Y14791D1*
X9881Y14776D1*
X9861Y14761D1*
X9840Y14746D1*
X9465Y15196D2*
X9440Y15181D1*
X9421Y15166D1*
X9407Y15151D1*
X9397Y15136D1*
X9393Y15121D1*
X9391Y15106D1*
Y15091D1*
X9393Y15076D1*
X9398Y15061D1*
X9411Y15046D1*
X9433Y15031D1*
X9468Y15016D1*
X9510Y15001D1*
X9480Y15196D2*
X9506Y15181D1*
X9528Y15166D1*
X9544Y15151D1*
X9555Y15136D1*
X9564Y15121D1*
X9565Y15106D1*
X9563Y15091D1*
X9559Y15076D1*
X9553Y15061D1*
X9545Y15046D1*
X9516Y15031D1*
X9473Y15016D1*
X9420Y15001D1*
X9465Y14986D2*
X9440Y14971D1*
X9421Y14956D1*
X9407Y14941D1*
X9397Y14926D1*
X9393Y14911D1*
X9391Y14896D1*
Y14881D1*
X9390Y14866D1*
X9391Y14851D1*
X9393Y14836D1*
X9398Y14821D1*
X9405Y14806D1*
X9429Y14791D1*
X9466Y14776D1*
X9510Y14761D1*
X9480Y14986D2*
X9506Y14971D1*
X9528Y14956D1*
X9544Y14941D1*
X9555Y14926D1*
X9563Y14911D1*
X9567Y14896D1*
X9569Y14881D1*
Y14866D1*
X9567Y14851D1*
X9563Y14836D1*
X9556Y14821D1*
X9546Y14806D1*
X9520Y14791D1*
X9481Y14776D1*
X9435Y14761D1*
X8773Y10556D2*
X8741Y10541D1*
X8714Y10526D1*
X8691Y10511D1*
X8672Y10496D1*
X8657Y10481D1*
X8645Y10466D1*
X8635Y10451D1*
X8627Y10436D1*
X8619Y10421D1*
X8613Y10406D1*
X8608Y10391D1*
X9013Y10556D2*
X9034Y10541D1*
X9051Y10526D1*
X9062Y10511D1*
X9070Y10496D1*
X9077Y10481D1*
X9081Y10466D1*
X9084Y10451D1*
X9081Y10436D1*
X9077Y10421D1*
X9072Y10406D1*
X9064Y10391D1*
X9051Y10376D1*
X9033Y10361D1*
X9013Y10346D1*
X8788Y10541D2*
X8758Y10526D1*
X8731Y10511D1*
X8707Y10496D1*
X8687Y10481D1*
X8672Y10466D1*
X8660Y10451D1*
X8650Y10436D1*
X8641Y10421D1*
X8632Y10406D1*
X8623Y10391D1*
X8818Y10541D2*
Y10526D1*
Y10511D1*
Y10496D1*
Y10481D1*
Y10466D1*
Y10451D1*
Y10436D1*
X8821Y10421D1*
X8827Y10406D1*
X8837Y10391D1*
X8852Y10376D1*
X8871Y10361D1*
X8893Y10346D1*
X8833Y10541D2*
Y10526D1*
Y10511D1*
Y10496D1*
Y10481D1*
Y10466D1*
Y10451D1*
X8836Y10436D1*
X8840Y10421D1*
X8853Y10406D1*
X8887Y10391D1*
X8942Y10376D1*
X9013Y10361D1*
X8983Y10541D2*
X9009Y10526D1*
X9030Y10511D1*
X9047Y10496D1*
X9055Y10481D1*
X9063Y10466D1*
X9073Y10451D1*
X9065Y10436D1*
X9058Y10421D1*
X9047Y10406D1*
X9031Y10391D1*
X9013Y10376D1*
X8608Y10196D2*
Y10181D1*
Y10166D1*
Y10151D1*
Y10136D1*
Y10121D1*
Y10106D1*
X8610Y10091D1*
X8614Y10076D1*
X8621Y10061D1*
X8629Y10046D1*
X8641Y10031D1*
X8657Y10016D1*
X8676Y10001D1*
X8698Y9986D1*
X8623Y10196D2*
Y10181D1*
Y10166D1*
Y10151D1*
Y10136D1*
X8625Y10121D1*
X8629Y10106D1*
X8633Y10091D1*
X8638Y10076D1*
X8646Y10061D1*
X8656Y10046D1*
X8669Y10031D1*
X8683Y10016D1*
X8698Y10001D1*
X9073Y10196D2*
Y10181D1*
Y10166D1*
Y10151D1*
X9072Y10136D1*
Y10121D1*
X9070Y10106D1*
X9066Y10091D1*
X9059Y10076D1*
X9051Y10061D1*
X9039Y10046D1*
X9026Y10031D1*
X9012Y10016D1*
X8998Y10001D1*
X9088Y10196D2*
Y10181D1*
Y10166D1*
Y10151D1*
X9087Y10136D1*
Y10121D1*
X9085Y10106D1*
X9081Y10091D1*
X9077Y10076D1*
X9072Y10061D1*
X9064Y10046D1*
X9053Y10031D1*
X9038Y10016D1*
X9019Y10001D1*
X8998Y9986D1*
X10390Y5762D2*
Y5747D1*
Y5732D1*
Y5717D1*
Y5702D1*
Y5687D1*
Y5672D1*
Y5657D1*
Y5642D1*
Y5627D1*
Y5612D1*
Y5597D1*
Y5582D1*
Y5567D1*
Y5552D1*
Y5537D1*
Y5522D1*
Y5507D1*
Y5492D1*
Y5477D1*
Y5462D1*
Y5447D1*
Y5432D1*
Y5417D1*
Y5402D1*
Y5387D1*
Y5372D1*
Y5357D1*
Y5342D1*
Y5327D1*
Y5312D1*
Y5297D1*
X10405Y5762D2*
X10420Y5747D1*
X10435Y5732D1*
X10450Y5717D1*
X10465Y5702D1*
X10480Y5687D1*
X10495Y5672D1*
X10510Y5657D1*
X10780Y5762D2*
X10758Y5747D1*
X10740Y5732D1*
X10724Y5717D1*
X10713Y5702D1*
X10704Y5687D1*
X10697Y5672D1*
X10693Y5657D1*
X10692Y5642D1*
X10691Y5627D1*
X10690Y5612D1*
Y5597D1*
Y5582D1*
Y5567D1*
Y5552D1*
Y5537D1*
Y5522D1*
Y5507D1*
Y5492D1*
Y5477D1*
Y5462D1*
Y5447D1*
Y5432D1*
X10691Y5417D1*
X10693Y5402D1*
X10698Y5387D1*
X10705Y5372D1*
X10690Y5357D1*
X10675Y5342D1*
X10660Y5327D1*
X10645Y5312D1*
X10630Y5297D1*
X10855Y5762D2*
X10884Y5747D1*
X10907Y5732D1*
X10924Y5717D1*
X10935Y5702D1*
X10943Y5687D1*
X10949Y5672D1*
X10954Y5657D1*
X10958Y5642D1*
X10959Y5627D1*
X10960Y5612D1*
Y5597D1*
Y5582D1*
Y5567D1*
Y5552D1*
Y5537D1*
Y5522D1*
Y5507D1*
Y5492D1*
Y5477D1*
Y5462D1*
Y5447D1*
Y5432D1*
X10958Y5417D1*
X10954Y5402D1*
X10948Y5387D1*
X10941Y5372D1*
X10933Y5357D1*
X10923Y5342D1*
X10909Y5327D1*
X10891Y5312D1*
X10870Y5297D1*
X10810Y5747D2*
X10783Y5732D1*
X10760Y5717D1*
X10742Y5702D1*
X10729Y5687D1*
X10719Y5672D1*
X10712Y5657D1*
X10708Y5642D1*
X10707Y5627D1*
X10706Y5612D1*
X10705Y5597D1*
Y5582D1*
Y5567D1*
Y5552D1*
Y5537D1*
Y5522D1*
Y5507D1*
Y5492D1*
Y5477D1*
Y5462D1*
Y5447D1*
X10707Y5432D1*
X10709Y5417D1*
X10721Y5402D1*
X10735Y5387D1*
X10840Y5747D2*
X10867Y5732D1*
X10890Y5717D1*
X10908Y5702D1*
X10920Y5687D1*
X10928Y5672D1*
X10934Y5657D1*
X10939Y5642D1*
X10943Y5627D1*
X10944Y5612D1*
X10945Y5597D1*
Y5582D1*
Y5567D1*
Y5552D1*
Y5537D1*
Y5522D1*
Y5507D1*
Y5492D1*
X10943Y5477D1*
X10939Y5462D1*
X10935Y5447D1*
X10933Y5432D1*
X10931Y5417D1*
X10930Y5402D1*
X10927Y5387D1*
X10922Y5372D1*
X10909Y5357D1*
X10878Y5342D1*
X10834Y5327D1*
X10780Y5312D1*
X10405Y5717D2*
Y5702D1*
Y5687D1*
Y5672D1*
Y5657D1*
Y5642D1*
Y5627D1*
Y5612D1*
Y5597D1*
Y5582D1*
Y5567D1*
Y5552D1*
Y5537D1*
Y5522D1*
Y5507D1*
Y5492D1*
Y5477D1*
Y5462D1*
Y5447D1*
Y5432D1*
Y5417D1*
Y5402D1*
Y5387D1*
Y5372D1*
Y5357D1*
Y5342D1*
Y5327D1*
Y5312D1*
Y5297D1*
X10420Y5717D2*
X10435Y5702D1*
X10450Y5687D1*
X10465Y5672D1*
X10480Y5657D1*
X10750Y5402D2*
X10735Y5387D1*
X10780Y5402D2*
X10765Y5387D1*
X10750Y5372D1*
X10735Y5357D1*
X10769Y5342D1*
X10816Y5327D1*
X10870Y5312D1*
X10705Y5342D2*
X10690Y5327D1*
X10675Y5312D1*
X10660Y5297D1*
X10690Y5342D2*
X10720Y5327D1*
X10750Y5312D1*
X10780Y5297D1*
X21401Y7438D2*
Y7422D1*
Y7408D1*
Y7392D1*
Y7378D1*
Y7362D1*
Y7348D1*
Y7332D1*
Y7318D1*
Y7302D1*
Y7288D1*
Y7272D1*
Y7258D1*
Y7242D1*
Y7228D1*
Y7212D1*
Y7198D1*
Y7182D1*
Y7167D1*
Y7152D1*
Y7137D1*
Y7122D1*
Y7107D1*
Y7092D1*
Y7077D1*
Y7062D1*
Y7047D1*
Y7032D1*
Y7017D1*
Y7002D1*
Y6987D1*
Y6972D1*
X21416Y7438D2*
X21431Y7422D1*
X21446Y7408D1*
X21461Y7392D1*
X21476Y7378D1*
X21491Y7362D1*
X21506Y7348D1*
X21521Y7332D1*
X21746Y7438D2*
X21724Y7422D1*
X21706Y7408D1*
X21690Y7392D1*
X21679Y7378D1*
X21670Y7362D1*
X21663Y7348D1*
X21659Y7332D1*
X21658Y7318D1*
X21657Y7302D1*
Y7288D1*
X21659Y7272D1*
X21663Y7258D1*
X21669Y7242D1*
X21679Y7228D1*
X21692Y7212D1*
X21709Y7198D1*
X21727Y7182D1*
X21746Y7167D1*
X21737Y7152D1*
X21728Y7137D1*
X21720Y7122D1*
X21713Y7107D1*
X21705Y7092D1*
X21698Y7077D1*
X21690Y7062D1*
X21683Y7047D1*
X21675Y7032D1*
X21668Y7017D1*
X21663Y7002D1*
X21659Y6987D1*
X21656Y6972D1*
X21926Y7438D2*
Y7422D1*
Y7408D1*
Y7392D1*
Y7378D1*
Y7362D1*
Y7348D1*
Y7332D1*
Y7318D1*
Y7302D1*
Y7288D1*
Y7272D1*
Y7258D1*
Y7242D1*
Y7228D1*
Y7212D1*
Y7198D1*
Y7182D1*
Y7167D1*
Y7152D1*
Y7137D1*
Y7122D1*
Y7107D1*
Y7092D1*
Y7077D1*
Y7062D1*
Y7047D1*
Y7032D1*
Y7017D1*
Y7002D1*
Y6987D1*
Y6972D1*
X21746Y7422D2*
X21731Y7408D1*
X21716Y7392D1*
X21702Y7378D1*
X21689Y7362D1*
X21681Y7348D1*
X21675Y7332D1*
X21673Y7318D1*
X21672Y7302D1*
Y7288D1*
X21675Y7272D1*
X21681Y7258D1*
X21692Y7242D1*
X21707Y7228D1*
X21754Y7212D1*
X21831Y7198D1*
X21926Y7182D1*
X21911Y7422D2*
Y7408D1*
Y7392D1*
Y7378D1*
Y7362D1*
Y7348D1*
Y7332D1*
Y7318D1*
Y7302D1*
Y7288D1*
Y7272D1*
Y7258D1*
Y7242D1*
Y7228D1*
Y7212D1*
Y7198D1*
X21761Y7182D1*
X21416Y7392D2*
Y7378D1*
Y7362D1*
Y7348D1*
Y7332D1*
Y7318D1*
Y7302D1*
Y7288D1*
Y7272D1*
Y7258D1*
Y7242D1*
Y7228D1*
Y7212D1*
Y7198D1*
Y7182D1*
Y7167D1*
Y7152D1*
Y7137D1*
Y7122D1*
Y7107D1*
Y7092D1*
Y7077D1*
Y7062D1*
Y7047D1*
Y7032D1*
Y7017D1*
Y7002D1*
Y6987D1*
Y6972D1*
X21431Y7392D2*
X21446Y7378D1*
X21461Y7362D1*
X21476Y7348D1*
X21491Y7332D1*
X21776Y7167D2*
X21764Y7152D1*
X21753Y7137D1*
X21744Y7122D1*
X21736Y7107D1*
X21728Y7092D1*
X21720Y7077D1*
X21713Y7062D1*
X21705Y7047D1*
X21698Y7032D1*
X21690Y7017D1*
X21683Y7002D1*
X21677Y6987D1*
X21671Y6972D1*
X21911Y7167D2*
Y7152D1*
Y7137D1*
Y7122D1*
Y7107D1*
Y7092D1*
Y7077D1*
Y7062D1*
Y7047D1*
Y7032D1*
Y7017D1*
Y7002D1*
Y6987D1*
Y6972D1*
X10092Y7813D2*
X10075Y7798D1*
X10059Y7783D1*
X10048Y7768D1*
X10040Y7753D1*
X10036Y7738D1*
X10034Y7723D1*
X10033Y7708D1*
Y7693D1*
X10035Y7678D1*
X10039Y7663D1*
X10045Y7648D1*
X10052Y7633D1*
X10059Y7618D1*
X10068Y7603D1*
X10078Y7588D1*
X10087Y7573D1*
X10097Y7558D1*
X10107Y7543D1*
X10117Y7528D1*
X10125Y7513D1*
X10134Y7498D1*
X10143Y7483D1*
X10153Y7468D1*
X10162Y7453D1*
X10172Y7438D1*
X10183Y7423D1*
X10192Y7408D1*
X10203Y7393D1*
X10215Y7378D1*
X10227Y7363D1*
X10167Y7813D2*
X10189Y7798D1*
X10208Y7783D1*
X10223Y7768D1*
X10234Y7753D1*
X10239Y7738D1*
X10242Y7723D1*
X10467Y7813D2*
X10446Y7798D1*
X10427Y7783D1*
X10412Y7768D1*
X10400Y7753D1*
X10391Y7738D1*
X10384Y7723D1*
X10381Y7708D1*
X10379Y7693D1*
X10378Y7678D1*
Y7663D1*
X10380Y7648D1*
X10384Y7633D1*
X10391Y7618D1*
X10400Y7603D1*
X10413Y7588D1*
X10430Y7573D1*
X10449Y7558D1*
X10467Y7543D1*
X10458Y7528D1*
X10450Y7513D1*
X10441Y7498D1*
X10434Y7483D1*
X10426Y7468D1*
X10419Y7453D1*
X10411Y7438D1*
X10404Y7423D1*
X10396Y7408D1*
X10389Y7393D1*
X10384Y7378D1*
X10380Y7363D1*
X10377Y7348D1*
X10647Y7813D2*
Y7798D1*
Y7783D1*
Y7768D1*
Y7753D1*
Y7738D1*
Y7723D1*
Y7708D1*
Y7693D1*
Y7678D1*
Y7663D1*
Y7648D1*
Y7633D1*
Y7618D1*
Y7603D1*
Y7588D1*
Y7573D1*
Y7558D1*
Y7543D1*
Y7528D1*
Y7513D1*
Y7498D1*
Y7483D1*
Y7468D1*
Y7453D1*
Y7438D1*
Y7423D1*
Y7408D1*
Y7393D1*
Y7378D1*
Y7363D1*
Y7348D1*
X10107Y7798D2*
X10092Y7783D1*
X10078Y7768D1*
X10066Y7753D1*
X10057Y7738D1*
X10052Y7723D1*
X10049Y7708D1*
Y7693D1*
X10051Y7678D1*
X10056Y7663D1*
X10064Y7648D1*
X10073Y7633D1*
X10083Y7618D1*
X10093Y7603D1*
X10102Y7588D1*
X10110Y7573D1*
X10119Y7558D1*
X10128Y7543D1*
X10138Y7528D1*
X10147Y7513D1*
X10157Y7498D1*
X10167Y7483D1*
X10177Y7468D1*
X10185Y7453D1*
X10194Y7438D1*
X10203Y7423D1*
X10213Y7408D1*
X10222Y7393D1*
X10230Y7378D1*
X10237Y7363D1*
X10242Y7348D1*
X10167Y7798D2*
X10182Y7783D1*
X10197Y7768D1*
X10209Y7753D1*
X10219Y7738D1*
X10227Y7723D1*
X10467Y7798D2*
X10452Y7783D1*
X10437Y7768D1*
X10423Y7753D1*
X10411Y7738D1*
X10402Y7723D1*
X10397Y7708D1*
X10394Y7693D1*
X10393Y7678D1*
Y7663D1*
X10396Y7648D1*
X10402Y7633D1*
X10413Y7618D1*
X10428Y7603D1*
X10475Y7588D1*
X10552Y7573D1*
X10647Y7558D1*
X10632Y7798D2*
Y7783D1*
Y7768D1*
Y7753D1*
Y7738D1*
Y7723D1*
Y7708D1*
Y7693D1*
Y7678D1*
Y7663D1*
Y7648D1*
Y7633D1*
Y7618D1*
Y7603D1*
Y7588D1*
Y7573D1*
X10482Y7558D1*
X10497Y7543D2*
X10485Y7528D1*
X10474Y7513D1*
X10465Y7498D1*
X10457Y7483D1*
X10449Y7468D1*
X10441Y7453D1*
X10434Y7438D1*
X10426Y7423D1*
X10419Y7408D1*
X10411Y7393D1*
X10404Y7378D1*
X10398Y7363D1*
X10392Y7348D1*
X10632Y7543D2*
Y7528D1*
Y7513D1*
Y7498D1*
Y7483D1*
Y7468D1*
Y7453D1*
Y7438D1*
Y7423D1*
Y7408D1*
Y7393D1*
Y7378D1*
Y7363D1*
Y7348D1*
X10032Y7363D2*
Y7348D1*
X11995Y8744D2*
X11974Y8729D1*
X11956Y8714D1*
X11943Y8699D1*
X11934Y8684D1*
X11927Y8669D1*
X11923Y8654D1*
X11921Y8639D1*
Y8624D1*
X11920Y8609D1*
Y8594D1*
Y8579D1*
Y8564D1*
Y8549D1*
Y8534D1*
X12130Y8744D2*
X12153Y8729D1*
X12178Y8714D1*
X12205Y8699D1*
X12250Y8744D2*
X12225Y8729D1*
X12200Y8714D1*
X12175Y8699D1*
X12325Y8744D2*
X12346Y8729D1*
X12364Y8714D1*
X12377Y8699D1*
X12386Y8684D1*
X12393Y8669D1*
X12397Y8654D1*
X12399Y8639D1*
Y8624D1*
X12400Y8609D1*
Y8594D1*
Y8579D1*
Y8564D1*
Y8549D1*
Y8534D1*
X12025Y8729D2*
X11999Y8714D1*
X11977Y8699D1*
X11961Y8684D1*
X11950Y8669D1*
X11942Y8654D1*
X11938Y8639D1*
X11936Y8624D1*
Y8609D1*
X11935Y8594D1*
Y8579D1*
Y8564D1*
Y8549D1*
Y8534D1*
X12115Y8729D2*
X12130Y8714D1*
X12144Y8699D1*
X12157Y8684D1*
X12166Y8669D1*
X12171Y8654D1*
X12173Y8639D1*
X12174Y8624D1*
X12175Y8609D1*
Y8594D1*
Y8579D1*
X12250Y8729D2*
X12236Y8714D1*
X12223Y8699D1*
X12212Y8684D1*
X12203Y8669D1*
X12197Y8654D1*
X12193Y8639D1*
X12191Y8624D1*
X12190Y8609D1*
Y8594D1*
Y8579D1*
X12295Y8729D2*
X12321Y8714D1*
X12343Y8699D1*
X12359Y8684D1*
X12370Y8669D1*
X12378Y8654D1*
X12382Y8639D1*
X12384Y8624D1*
Y8609D1*
X12385Y8594D1*
Y8579D1*
Y8564D1*
Y8549D1*
Y8534D1*
X11920Y8399D2*
X11936Y8384D1*
X11958Y8369D1*
X11983Y8354D1*
X12011Y8339D1*
X12040Y8324D1*
X12069Y8309D1*
X12094Y8294D1*
X12114Y8279D1*
X12122Y8264D1*
X12127Y8249D1*
X12129Y8234D1*
X12130Y8219D1*
Y8204D1*
Y8189D1*
Y8174D1*
Y8159D1*
Y8144D1*
X11950Y8399D2*
X11975Y8384D1*
X12001Y8369D1*
X12029Y8354D1*
X12062Y8339D1*
X12102Y8324D1*
X12145Y8309D1*
X12220Y8399D2*
X12198Y8384D1*
X12179Y8369D1*
X12165Y8354D1*
X12154Y8339D1*
X12145Y8324D1*
X12295Y8399D2*
X12321Y8384D1*
X12343Y8369D1*
X12359Y8354D1*
X12371Y8339D1*
X12380Y8324D1*
X12388Y8309D1*
X12394Y8294D1*
X12397Y8279D1*
X12399Y8264D1*
X12400Y8249D1*
Y8234D1*
Y8219D1*
Y8204D1*
Y8189D1*
Y8174D1*
Y8159D1*
Y8144D1*
Y8129D1*
X12250Y8384D2*
X12223Y8369D1*
X12199Y8354D1*
X12180Y8339D1*
X12165Y8324D1*
X12153Y8309D1*
X12149Y8294D1*
X12147Y8279D1*
X12146Y8264D1*
X12145Y8249D1*
Y8234D1*
Y8219D1*
Y8204D1*
Y8189D1*
Y8174D1*
Y8159D1*
Y8144D1*
X12280Y8384D2*
X12307Y8369D1*
X12330Y8354D1*
X12348Y8339D1*
X12360Y8324D1*
X12368Y8309D1*
X12374Y8294D1*
X12379Y8279D1*
X12382Y8264D1*
X12384Y8249D1*
X12385Y8234D1*
Y8219D1*
Y8204D1*
Y8189D1*
Y8174D1*
Y8159D1*
Y8144D1*
X11920D2*
Y8129D1*
X24888Y5854D2*
Y5839D1*
Y5824D1*
Y5809D1*
Y5794D1*
Y5779D1*
Y5764D1*
Y5749D1*
Y5734D1*
Y5719D1*
Y5704D1*
Y5689D1*
Y5674D1*
Y5659D1*
Y5644D1*
Y5629D1*
Y5614D1*
Y5599D1*
Y5584D1*
Y5569D1*
Y5554D1*
Y5539D1*
Y5524D1*
Y5509D1*
Y5494D1*
Y5479D1*
Y5464D1*
Y5449D1*
Y5434D1*
Y5419D1*
Y5404D1*
Y5389D1*
X24903Y5854D2*
X24918Y5839D1*
X24933Y5824D1*
X24948Y5809D1*
X24963Y5794D1*
X24978Y5779D1*
X24993Y5764D1*
X25008Y5749D1*
X25233Y5854D2*
X25206Y5839D1*
X25187Y5824D1*
X25173Y5809D1*
X25338Y5854D2*
X25357Y5839D1*
X25372Y5824D1*
X25383Y5809D1*
X25393Y5794D1*
X25400Y5779D1*
X25406Y5764D1*
X25409Y5749D1*
Y5734D1*
X25405Y5719D1*
X25399Y5704D1*
X25390Y5689D1*
X25376Y5674D1*
X25357Y5659D1*
X25333Y5644D1*
X25306Y5629D1*
X25279Y5614D1*
X25253Y5599D1*
X25229Y5584D1*
X25206Y5569D1*
X25187Y5554D1*
X25174Y5539D1*
X25166Y5524D1*
X25161Y5509D1*
X25160Y5494D1*
Y5479D1*
X25167Y5464D1*
X25177Y5449D1*
X25206Y5434D1*
X25251Y5419D1*
X25308Y5404D1*
X25278Y5839D2*
X25233Y5824D1*
X25188Y5809D1*
X25308Y5839D2*
X25334Y5824D1*
X25355Y5809D1*
X25372Y5794D1*
X25380Y5779D1*
X25389Y5764D1*
X25398Y5749D1*
X25390Y5734D1*
X25383Y5719D1*
X25374Y5704D1*
X25361Y5689D1*
X25342Y5674D1*
X25318Y5659D1*
X25291Y5644D1*
X25262Y5629D1*
X25233Y5614D1*
X25206Y5599D1*
X25182Y5584D1*
X25165Y5569D1*
X25152Y5554D1*
X25147Y5539D1*
X25144Y5524D1*
X25143Y5509D1*
Y5494D1*
Y5479D1*
X25146Y5464D1*
X25152Y5449D1*
X25162Y5434D1*
X25177Y5419D1*
X25196Y5404D1*
X25218Y5389D1*
X24903Y5809D2*
Y5794D1*
Y5779D1*
Y5764D1*
Y5749D1*
Y5734D1*
Y5719D1*
Y5704D1*
Y5689D1*
Y5674D1*
Y5659D1*
Y5644D1*
Y5629D1*
Y5614D1*
Y5599D1*
Y5584D1*
Y5569D1*
Y5554D1*
Y5539D1*
Y5524D1*
Y5509D1*
Y5494D1*
Y5479D1*
Y5464D1*
Y5449D1*
Y5434D1*
Y5419D1*
Y5404D1*
Y5389D1*
X24918Y5809D2*
X24933Y5794D1*
X24948Y5779D1*
X24963Y5764D1*
X24978Y5749D1*
X25383Y5449D2*
X25346Y5434D1*
X25308Y5419D1*
X25413Y5449D2*
X25396Y5434D1*
X25372Y5419D1*
X25342Y5404D1*
X25308Y5389D1*
X8028Y5854D2*
X8010Y5839D1*
X7995Y5824D1*
X7983Y5809D1*
X7975Y5794D1*
X7971Y5779D1*
X7969Y5764D1*
X7968Y5749D1*
Y5734D1*
X7970Y5719D1*
X7974Y5704D1*
X7980Y5689D1*
X7987Y5674D1*
X7994Y5659D1*
X8003Y5644D1*
X8013Y5629D1*
X8023Y5614D1*
X8032Y5599D1*
X8043Y5584D1*
X8052Y5569D1*
X8061Y5554D1*
X8069Y5539D1*
X8078Y5524D1*
X8088Y5509D1*
X8098Y5494D1*
X8107Y5479D1*
X8118Y5464D1*
X8128Y5449D1*
X8138Y5434D1*
X8150Y5419D1*
X8163Y5404D1*
X8103Y5854D2*
X8124Y5839D1*
X8143Y5824D1*
X8158Y5809D1*
X8169Y5794D1*
X8174Y5779D1*
X8178Y5764D1*
X8403Y5854D2*
X8376Y5839D1*
X8357Y5824D1*
X8343Y5809D1*
X8508Y5854D2*
X8527Y5839D1*
X8542Y5824D1*
X8553Y5809D1*
X8563Y5794D1*
X8570Y5779D1*
X8576Y5764D1*
X8579Y5749D1*
Y5734D1*
X8575Y5719D1*
X8569Y5704D1*
X8560Y5689D1*
X8546Y5674D1*
X8527Y5659D1*
X8503Y5644D1*
X8476Y5629D1*
X8449Y5614D1*
X8423Y5599D1*
X8399Y5584D1*
X8376Y5569D1*
X8357Y5554D1*
X8344Y5539D1*
X8336Y5524D1*
X8331Y5509D1*
X8330Y5494D1*
Y5479D1*
X8337Y5464D1*
X8347Y5449D1*
X8376Y5434D1*
X8421Y5419D1*
X8478Y5404D1*
X8043Y5839D2*
X8028Y5824D1*
X8013Y5809D1*
X8001Y5794D1*
X7992Y5779D1*
X7987Y5764D1*
X7984Y5749D1*
Y5734D1*
X7986Y5719D1*
X7991Y5704D1*
X7999Y5689D1*
X8008Y5674D1*
X8018Y5659D1*
X8028Y5644D1*
X8037Y5629D1*
X8046Y5614D1*
X8054Y5599D1*
X8063Y5584D1*
X8073Y5569D1*
X8083Y5554D1*
X8092Y5539D1*
X8103Y5524D1*
X8112Y5509D1*
X8121Y5494D1*
X8129Y5479D1*
X8138Y5464D1*
X8148Y5449D1*
X8157Y5434D1*
X8165Y5419D1*
X8172Y5404D1*
X8178Y5389D1*
X8103Y5839D2*
X8117Y5824D1*
X8132Y5809D1*
X8145Y5794D1*
X8154Y5779D1*
X8163Y5764D1*
X8448Y5839D2*
X8403Y5824D1*
X8358Y5809D1*
X8478Y5839D2*
X8504Y5824D1*
X8525Y5809D1*
X8542Y5794D1*
X8550Y5779D1*
X8559Y5764D1*
X8568Y5749D1*
X8560Y5734D1*
X8553Y5719D1*
X8544Y5704D1*
X8531Y5689D1*
X8512Y5674D1*
X8488Y5659D1*
X8461Y5644D1*
X8432Y5629D1*
X8403Y5614D1*
X8376Y5599D1*
X8352Y5584D1*
X8335Y5569D1*
X8322Y5554D1*
X8317Y5539D1*
X8314Y5524D1*
X8313Y5509D1*
Y5494D1*
Y5479D1*
X8316Y5464D1*
X8322Y5449D1*
X8332Y5434D1*
X8347Y5419D1*
X8366Y5404D1*
X8388Y5389D1*
X8553Y5449D2*
X8516Y5434D1*
X8478Y5419D1*
X8583Y5449D2*
X8566Y5434D1*
X8542Y5419D1*
X8512Y5404D1*
X8478Y5389D1*
X7968Y5404D2*
Y5389D1*
X8028Y17499D2*
X8010Y17484D1*
X7995Y17469D1*
X7983Y17454D1*
X7975Y17439D1*
X7971Y17424D1*
X7969Y17409D1*
X7968Y17394D1*
Y17379D1*
Y17364D1*
X7971Y17349D1*
X7977Y17334D1*
X7987Y17319D1*
X7999Y17304D1*
X8013Y17289D1*
X7998Y17274D1*
X7986Y17259D1*
X7977Y17244D1*
X7972Y17229D1*
X7969Y17214D1*
X7968Y17199D1*
Y17184D1*
Y17169D1*
Y17154D1*
Y17139D1*
Y17124D1*
X7970Y17109D1*
X7974Y17094D1*
X7981Y17079D1*
X7992Y17064D1*
X8008Y17049D1*
X8028Y17034D1*
X8178Y17499D2*
Y17484D1*
X8097Y17469D1*
X8044Y17454D1*
X8007Y17439D1*
X7993Y17424D1*
X7987Y17409D1*
X7985Y17394D1*
X7984Y17379D1*
X7985Y17364D1*
X7991Y17349D1*
X8008Y17334D1*
X8033Y17319D1*
X8064Y17304D1*
X8092Y17289D1*
X8118Y17274D1*
X8062Y17259D1*
X8023Y17244D1*
X7997Y17229D1*
X7989Y17214D1*
X7985Y17199D1*
X7984Y17184D1*
X7983Y17169D1*
Y17154D1*
Y17139D1*
X7985Y17124D1*
X7989Y17109D1*
X7999Y17094D1*
X8036Y17079D1*
X8098Y17064D1*
X8178Y17049D1*
Y17034D1*
X8403Y17499D2*
X8376Y17484D1*
X8357Y17469D1*
X8343Y17454D1*
X8508Y17499D2*
X8527Y17484D1*
X8542Y17469D1*
X8553Y17454D1*
X8563Y17439D1*
X8570Y17424D1*
X8576Y17409D1*
X8579Y17394D1*
Y17379D1*
X8575Y17364D1*
X8569Y17349D1*
X8560Y17334D1*
X8546Y17319D1*
X8527Y17304D1*
X8503Y17289D1*
X8476Y17274D1*
X8449Y17259D1*
X8423Y17244D1*
X8399Y17229D1*
X8376Y17214D1*
X8357Y17199D1*
X8344Y17184D1*
X8336Y17169D1*
X8331Y17154D1*
X8330Y17139D1*
Y17124D1*
X8337Y17109D1*
X8347Y17094D1*
X8376Y17079D1*
X8421Y17064D1*
X8478Y17049D1*
X8448Y17484D2*
X8403Y17469D1*
X8358Y17454D1*
X8478Y17484D2*
X8504Y17469D1*
X8525Y17454D1*
X8542Y17439D1*
X8550Y17424D1*
X8559Y17409D1*
X8568Y17394D1*
X8560Y17379D1*
X8553Y17364D1*
X8544Y17349D1*
X8531Y17334D1*
X8512Y17319D1*
X8488Y17304D1*
X8461Y17289D1*
X8432Y17274D1*
X8403Y17259D1*
X8376Y17244D1*
X8352Y17229D1*
X8335Y17214D1*
X8322Y17199D1*
X8317Y17184D1*
X8314Y17169D1*
X8313Y17154D1*
Y17139D1*
Y17124D1*
X8316Y17109D1*
X8322Y17094D1*
X8332Y17079D1*
X8347Y17064D1*
X8366Y17049D1*
X8388Y17034D1*
X8553Y17094D2*
X8516Y17079D1*
X8478Y17064D1*
X8583Y17094D2*
X8566Y17079D1*
X8542Y17064D1*
X8512Y17049D1*
X8478Y17034D1*
X22842Y15785D2*
X22824Y15770D1*
X22809Y15755D1*
X22798Y15740D1*
X22790Y15725D1*
X22786Y15710D1*
X22783Y15695D1*
Y15680D1*
Y15665D1*
X22785Y15650D1*
X22789Y15635D1*
X22795Y15620D1*
X22801Y15605D1*
X22809Y15590D1*
X22818Y15575D1*
X22827Y15560D1*
X22837Y15545D1*
X22847Y15530D1*
X22857Y15515D1*
X22866Y15500D1*
X22875Y15485D1*
X22883Y15470D1*
X22893Y15455D1*
X22902Y15440D1*
X22912Y15425D1*
X22922Y15410D1*
X22932Y15395D1*
X22942Y15380D1*
X22952Y15365D1*
X22964Y15350D1*
X22977Y15335D1*
X22917Y15785D2*
X22939Y15770D1*
X22958Y15755D1*
X22972Y15740D1*
X22984Y15725D1*
X22988Y15710D1*
X22992Y15695D1*
X23127Y15785D2*
Y15770D1*
Y15755D1*
Y15740D1*
Y15725D1*
Y15710D1*
Y15695D1*
Y15680D1*
Y15665D1*
Y15650D1*
Y15635D1*
Y15620D1*
Y15605D1*
Y15590D1*
Y15575D1*
Y15560D1*
Y15545D1*
Y15530D1*
Y15515D1*
Y15500D1*
Y15485D1*
Y15470D1*
Y15455D1*
Y15440D1*
X23128Y15425D1*
X23130Y15410D1*
X23136Y15395D1*
X23146Y15380D1*
X23159Y15365D1*
X23176Y15350D1*
X23195Y15335D1*
X23217Y15320D1*
X23142Y15785D2*
Y15770D1*
Y15755D1*
Y15740D1*
Y15725D1*
Y15710D1*
Y15695D1*
Y15680D1*
Y15665D1*
Y15650D1*
Y15635D1*
Y15620D1*
Y15605D1*
Y15590D1*
Y15575D1*
Y15560D1*
Y15545D1*
Y15530D1*
Y15515D1*
Y15500D1*
Y15485D1*
Y15470D1*
Y15455D1*
X23143Y15440D1*
X23145Y15425D1*
X23151Y15410D1*
X23162Y15395D1*
X23177Y15380D1*
X23196Y15365D1*
X23217Y15350D1*
X23382Y15785D2*
Y15770D1*
Y15755D1*
Y15740D1*
Y15725D1*
Y15710D1*
Y15695D1*
Y15680D1*
Y15665D1*
Y15650D1*
Y15635D1*
Y15620D1*
Y15605D1*
Y15590D1*
Y15575D1*
Y15560D1*
Y15545D1*
Y15530D1*
Y15515D1*
Y15500D1*
Y15485D1*
X23381Y15470D1*
X23380Y15455D1*
X23376Y15440D1*
X23371Y15425D1*
X23366Y15410D1*
X23360Y15395D1*
X23343Y15380D1*
X23315Y15365D1*
X23270Y15350D1*
X23217Y15335D1*
X23397Y15785D2*
Y15770D1*
Y15755D1*
Y15740D1*
Y15725D1*
Y15710D1*
Y15695D1*
Y15680D1*
Y15665D1*
Y15650D1*
Y15635D1*
Y15620D1*
Y15605D1*
Y15590D1*
Y15575D1*
Y15560D1*
Y15545D1*
Y15530D1*
Y15515D1*
Y15500D1*
Y15485D1*
Y15470D1*
X23396Y15455D1*
X23394Y15440D1*
X23390Y15425D1*
X23385Y15410D1*
X23378Y15395D1*
X23369Y15380D1*
X23358Y15365D1*
X23340Y15350D1*
X23317Y15335D1*
X23292Y15320D1*
X22857Y15770D2*
X22842Y15755D1*
X22828Y15740D1*
X22815Y15725D1*
X22806Y15710D1*
X22801Y15695D1*
X22799Y15680D1*
X22798Y15665D1*
X22800Y15650D1*
X22806Y15635D1*
X22814Y15620D1*
X22823Y15605D1*
X22832Y15590D1*
X22842Y15575D1*
X22851Y15560D1*
X22860Y15545D1*
X22868Y15530D1*
X22878Y15515D1*
X22887Y15500D1*
X22897Y15485D1*
X22907Y15470D1*
X22917Y15455D1*
X22926Y15440D1*
X22935Y15425D1*
X22943Y15410D1*
X22953Y15395D1*
X22962Y15380D1*
X22972Y15365D1*
X22980Y15350D1*
X22986Y15335D1*
X22992Y15320D1*
X22917Y15770D2*
X22932Y15755D1*
X22946Y15740D1*
X22959Y15725D1*
X22969Y15710D1*
X22977Y15695D1*
X22782Y15335D2*
Y15320D1*
X6200Y13000D2*
X6201Y12985D1*
X6202Y12970D1*
X6206Y12955D1*
X6211Y12940D1*
X6215Y12925D1*
X6220Y12910D1*
X6225Y12895D1*
X6228Y12880D1*
X6231Y12865D1*
X6236Y12850D1*
X6240Y12835D1*
X6245Y12820D1*
X6250Y12805D1*
X6255Y12790D1*
X6258Y12775D1*
X6261Y12760D1*
X6266Y12745D1*
X6270Y12730D1*
X6273Y12715D1*
X6276Y12700D1*
X6281Y12685D1*
X6286Y12670D1*
X6290Y12655D1*
X6155Y12640D1*
X6215Y13000D2*
X6217Y12985D1*
X6221Y12970D1*
X6226Y12955D1*
X6230Y12940D1*
X6235Y12925D1*
X6240Y12910D1*
X6243Y12895D1*
X6246Y12880D1*
X6251Y12865D1*
X6255Y12850D1*
X6260Y12835D1*
X6265Y12820D1*
X6270Y12805D1*
X6273Y12790D1*
X6276Y12775D1*
X6281Y12760D1*
X6285Y12745D1*
X6290Y12730D1*
X6295Y12715D1*
X6300Y12700D1*
X6303Y12685D1*
X6306Y12670D1*
X6311Y12655D1*
X6316Y12640D1*
X6320Y12625D1*
X6455Y13000D2*
Y12985D1*
Y12970D1*
Y12955D1*
Y12940D1*
Y12925D1*
Y12910D1*
Y12895D1*
Y12880D1*
Y12865D1*
Y12850D1*
Y12835D1*
Y12820D1*
Y12805D1*
Y12790D1*
Y12775D1*
Y12760D1*
Y12745D1*
Y12730D1*
Y12715D1*
Y12700D1*
Y12685D1*
Y12670D1*
Y12655D1*
X6456Y12640D1*
X6458Y12625D1*
X6464Y12610D1*
X6474Y12595D1*
X6487Y12580D1*
X6504Y12565D1*
X6523Y12550D1*
X6545Y12535D1*
X6470Y13000D2*
Y12985D1*
Y12970D1*
Y12955D1*
Y12940D1*
Y12925D1*
Y12910D1*
Y12895D1*
Y12880D1*
Y12865D1*
Y12850D1*
Y12835D1*
Y12820D1*
Y12805D1*
Y12790D1*
Y12775D1*
Y12760D1*
Y12745D1*
Y12730D1*
Y12715D1*
Y12700D1*
Y12685D1*
Y12670D1*
X6471Y12655D1*
X6473Y12640D1*
X6479Y12625D1*
X6490Y12610D1*
X6505Y12595D1*
X6524Y12580D1*
X6545Y12565D1*
X6710Y13000D2*
Y12985D1*
Y12970D1*
Y12955D1*
Y12940D1*
Y12925D1*
Y12910D1*
Y12895D1*
Y12880D1*
Y12865D1*
Y12850D1*
Y12835D1*
Y12820D1*
Y12805D1*
Y12790D1*
Y12775D1*
Y12760D1*
Y12745D1*
Y12730D1*
Y12715D1*
Y12700D1*
X6709Y12685D1*
X6708Y12670D1*
X6704Y12655D1*
X6699Y12640D1*
X6694Y12625D1*
X6688Y12610D1*
X6671Y12595D1*
X6643Y12580D1*
X6598Y12565D1*
X6545Y12550D1*
X6725Y13000D2*
Y12985D1*
Y12970D1*
Y12955D1*
Y12940D1*
Y12925D1*
Y12910D1*
Y12895D1*
Y12880D1*
Y12865D1*
Y12850D1*
Y12835D1*
Y12820D1*
Y12805D1*
Y12790D1*
Y12775D1*
Y12760D1*
Y12745D1*
Y12730D1*
Y12715D1*
Y12700D1*
Y12685D1*
X6724Y12670D1*
X6722Y12655D1*
X6718Y12640D1*
X6713Y12625D1*
X6706Y12610D1*
X6697Y12595D1*
X6685Y12580D1*
X6668Y12565D1*
X6645Y12550D1*
X6620Y12535D1*
X6125Y12745D2*
Y12730D1*
Y12715D1*
Y12700D1*
Y12685D1*
Y12670D1*
Y12655D1*
Y12640D1*
X6050D1*
Y12625D1*
Y12610D1*
X6125D1*
Y12595D1*
Y12580D1*
Y12565D1*
Y12550D1*
Y12535D1*
X6140Y12745D2*
Y12730D1*
Y12715D1*
Y12700D1*
Y12685D1*
Y12670D1*
Y12655D1*
X6275Y12640D1*
X6140Y12625D2*
Y12610D1*
Y12595D1*
Y12580D1*
Y12565D1*
Y12550D1*
Y12535D1*
X11668Y12442D2*
X11654Y12427D1*
X11641Y12412D1*
X11630Y12397D1*
X11621Y12382D1*
X11615Y12367D1*
X11611Y12352D1*
X11609Y12337D1*
X11608Y12322D1*
Y12307D1*
Y12292D1*
Y12277D1*
Y12262D1*
Y12247D1*
Y12232D1*
X11818Y12442D2*
X11838Y12427D1*
X11853Y12412D1*
X11863Y12397D1*
X11871Y12382D1*
X11875Y12367D1*
X11877Y12352D1*
Y12337D1*
X11878Y12322D1*
Y12307D1*
Y12292D1*
Y12277D1*
Y12262D1*
Y12247D1*
X11683Y12427D2*
X11669Y12412D1*
X11656Y12397D1*
X11645Y12382D1*
X11636Y12367D1*
X11630Y12352D1*
X11626Y12337D1*
X11624Y12322D1*
X11623Y12307D1*
Y12292D1*
Y12277D1*
Y12262D1*
Y12247D1*
Y12232D1*
X11788Y12427D2*
X11813Y12412D1*
X11832Y12397D1*
X11846Y12382D1*
X11856Y12367D1*
X11860Y12352D1*
X11862Y12337D1*
Y12322D1*
X11863Y12307D1*
Y12292D1*
Y12277D1*
Y12262D1*
Y12247D1*
Y12232D1*
X12073Y12412D2*
Y12397D1*
Y12382D1*
Y12367D1*
Y12352D1*
Y12337D1*
Y12322D1*
Y12307D1*
Y12292D1*
Y12277D1*
Y12262D1*
Y12247D1*
X12088Y12412D2*
Y12397D1*
Y12382D1*
Y12367D1*
Y12352D1*
Y12337D1*
Y12322D1*
Y12307D1*
Y12292D1*
Y12277D1*
Y12262D1*
Y12247D1*
Y12232D1*
X11698Y12097D2*
X11677Y12082D1*
X11659Y12067D1*
X11646Y12052D1*
X11636Y12037D1*
X11628Y12022D1*
X11620Y12007D1*
X11614Y11992D1*
X11611Y11977D1*
X11610Y11962D1*
X11611Y11947D1*
X11615Y11932D1*
X11621Y11917D1*
X11627Y11902D1*
X11636Y11887D1*
X11647Y11872D1*
X11665Y11857D1*
X11688Y11842D1*
X11713Y11827D1*
X12088Y12097D2*
Y12082D1*
X11728D2*
X11702Y12067D1*
X11680Y12052D1*
X11664Y12037D1*
X11652Y12022D1*
X11643Y12007D1*
X11635Y11992D1*
X11630Y11977D1*
X11627Y11962D1*
X11630Y11947D1*
X11634Y11932D1*
X11639Y11917D1*
X11647Y11902D1*
X11660Y11887D1*
X11679Y11872D1*
X11702Y11857D1*
X11728Y11842D1*
X12088D2*
Y11827D1*
X16731Y9960D2*
X16741Y9945D1*
X16756Y9930D1*
X16772Y9915D1*
X16789Y9900D1*
X16805Y9885D1*
X16820Y9870D1*
X16833Y9855D1*
X16844Y9840D1*
X16853Y9825D1*
X16860Y9810D1*
X16866Y9795D1*
X16873Y9780D1*
X16881Y9765D1*
X16804Y9750D1*
X16750Y9735D1*
X16716Y9720D1*
X16691Y9705D1*
X16681Y9690D1*
X16676Y9675D1*
X16673Y9660D1*
X16672Y9645D1*
X16674Y9630D1*
X16677Y9615D1*
X16681Y9600D1*
X16684Y9585D1*
X16687Y9570D1*
X16692Y9555D1*
X16699Y9540D1*
X16710Y9525D1*
X16727Y9510D1*
X16746Y9495D1*
Y9960D2*
X16773Y9945D1*
X16797Y9930D1*
X16816Y9915D1*
X16832Y9900D1*
X16844Y9885D1*
X16855Y9870D1*
X16865Y9855D1*
X16873Y9840D1*
X16880Y9825D1*
X16885Y9810D1*
X16890Y9795D1*
X16893Y9780D1*
X16895Y9765D1*
Y9750D1*
X16896Y9735D1*
Y9720D1*
Y9705D1*
Y9690D1*
Y9675D1*
Y9660D1*
Y9645D1*
Y9630D1*
X16895Y9615D1*
X16893Y9600D1*
X16890Y9585D1*
X16885Y9570D1*
X16880Y9555D1*
X16872Y9540D1*
X16859Y9525D1*
X16841Y9510D1*
X16821Y9495D1*
X17031Y9960D2*
Y9945D1*
Y9930D1*
Y9915D1*
Y9900D1*
Y9885D1*
Y9870D1*
Y9855D1*
Y9840D1*
Y9825D1*
Y9810D1*
Y9795D1*
Y9780D1*
Y9765D1*
Y9750D1*
Y9735D1*
Y9720D1*
Y9705D1*
Y9690D1*
Y9675D1*
Y9660D1*
Y9645D1*
Y9630D1*
Y9615D1*
Y9600D1*
X17034Y9585D1*
X17040Y9570D1*
X17050Y9555D1*
X17063Y9540D1*
X17079Y9525D1*
X17099Y9510D1*
X17121Y9495D1*
X17046Y9960D2*
Y9945D1*
Y9930D1*
Y9915D1*
Y9900D1*
Y9885D1*
Y9870D1*
Y9855D1*
Y9840D1*
Y9825D1*
Y9810D1*
Y9795D1*
Y9780D1*
Y9765D1*
Y9750D1*
Y9735D1*
Y9720D1*
Y9705D1*
Y9690D1*
Y9675D1*
Y9660D1*
Y9645D1*
Y9630D1*
Y9615D1*
X17049Y9600D1*
X17055Y9585D1*
X17066Y9570D1*
X17080Y9555D1*
X17100Y9540D1*
X17121Y9525D1*
X17286Y9960D2*
Y9945D1*
Y9930D1*
Y9915D1*
Y9900D1*
Y9885D1*
Y9870D1*
Y9855D1*
Y9840D1*
Y9825D1*
Y9810D1*
Y9795D1*
Y9780D1*
Y9765D1*
Y9750D1*
Y9735D1*
Y9720D1*
Y9705D1*
Y9690D1*
Y9675D1*
Y9660D1*
X17285Y9645D1*
X17283Y9630D1*
X17280Y9615D1*
X17275Y9600D1*
X17270Y9585D1*
X17264Y9570D1*
X17247Y9555D1*
X17218Y9540D1*
X17174Y9525D1*
X17121Y9510D1*
X17301Y9960D2*
Y9945D1*
Y9930D1*
Y9915D1*
Y9900D1*
Y9885D1*
Y9870D1*
Y9855D1*
Y9840D1*
Y9825D1*
Y9810D1*
Y9795D1*
Y9780D1*
Y9765D1*
Y9750D1*
Y9735D1*
Y9720D1*
Y9705D1*
Y9690D1*
Y9675D1*
Y9660D1*
Y9645D1*
X17300Y9630D1*
X17298Y9615D1*
X17294Y9600D1*
X17288Y9585D1*
X17281Y9570D1*
X17273Y9555D1*
X17261Y9540D1*
X17244Y9525D1*
X17221Y9510D1*
X17196Y9495D1*
X16746Y9735D2*
X16731Y9720D1*
X16719Y9705D1*
X16710Y9690D1*
X16705Y9675D1*
X16703Y9660D1*
X16701Y9645D1*
Y9630D1*
Y9615D1*
Y9600D1*
X16703Y9585D1*
X16708Y9570D1*
X16717Y9555D1*
X16730Y9540D1*
X16746Y9525D1*
X16881Y9735D2*
Y9720D1*
Y9705D1*
Y9690D1*
Y9675D1*
Y9660D1*
Y9645D1*
Y9630D1*
X16880Y9615D1*
X16878Y9600D1*
X16874Y9585D1*
X16867Y9570D1*
X16859Y9555D1*
X16834Y9540D1*
X16794Y9525D1*
X16746Y9510D1*
X17514Y5375D2*
Y5360D1*
Y5345D1*
Y5330D1*
Y5315D1*
Y5300D1*
Y5285D1*
Y5270D1*
Y5255D1*
Y5240D1*
Y5225D1*
Y5210D1*
Y5195D1*
Y5180D1*
Y5165D1*
Y5150D1*
Y5135D1*
Y5120D1*
Y5105D1*
Y5090D1*
Y5075D1*
Y5060D1*
Y5045D1*
Y5030D1*
Y5015D1*
Y5000D1*
Y4985D1*
Y4970D1*
Y4955D1*
Y4940D1*
Y4925D1*
Y4910D1*
X17529Y5375D2*
X17544Y5360D1*
X17559Y5345D1*
X17574Y5330D1*
X17589Y5315D1*
X17604Y5300D1*
X17619Y5285D1*
X17634Y5270D1*
X18069Y5375D2*
X18056Y5360D1*
X18045Y5345D1*
X18034Y5330D1*
X18024Y5315D1*
X18014Y5300D1*
X18004Y5285D1*
X17994Y5270D1*
X17984Y5255D1*
X17974Y5240D1*
X17964Y5225D1*
X17953Y5210D1*
X17940Y5195D1*
X17923Y5180D1*
X17904Y5165D1*
X18084Y5375D2*
X18076Y5360D1*
X18068Y5345D1*
X18058Y5330D1*
X18049Y5315D1*
X18039Y5300D1*
X18029Y5285D1*
X18019Y5270D1*
X18009Y5255D1*
X17999Y5240D1*
X17989Y5225D1*
X17979Y5210D1*
X17969Y5195D1*
X17959Y5180D1*
X17949Y5165D1*
X17942Y5150D1*
X17938Y5135D1*
X17935Y5120D1*
X17934Y5105D1*
Y5090D1*
Y5075D1*
Y5060D1*
Y5045D1*
Y5030D1*
Y5015D1*
Y5000D1*
Y4985D1*
Y4970D1*
Y4955D1*
Y4940D1*
Y4925D1*
Y4910D1*
X17769Y5360D2*
X17776Y5345D1*
X17785Y5330D1*
X17794Y5315D1*
X17804Y5300D1*
X17814Y5285D1*
X17824Y5270D1*
X17834Y5255D1*
X17844Y5240D1*
X17854Y5225D1*
X17864Y5210D1*
X17874Y5195D1*
X17884Y5180D1*
X17894Y5165D1*
X17903Y5150D1*
X17911Y5135D1*
X17915Y5120D1*
X17917Y5105D1*
X17918Y5090D1*
X17919Y5075D1*
Y5060D1*
Y5045D1*
Y5030D1*
Y5015D1*
Y5000D1*
Y4985D1*
Y4970D1*
Y4955D1*
Y4940D1*
Y4925D1*
Y4910D1*
X17784Y5360D2*
X17794Y5345D1*
X17804Y5330D1*
X17814Y5315D1*
X17824Y5300D1*
X17834Y5285D1*
X17844Y5270D1*
X17854Y5255D1*
X17864Y5240D1*
X17874Y5225D1*
X17884Y5210D1*
X17897Y5195D1*
X17914Y5180D1*
X17934Y5165D1*
X17529Y5330D2*
Y5315D1*
Y5300D1*
Y5285D1*
Y5270D1*
Y5255D1*
Y5240D1*
Y5225D1*
Y5210D1*
Y5195D1*
Y5180D1*
Y5165D1*
Y5150D1*
Y5135D1*
Y5120D1*
Y5105D1*
Y5090D1*
Y5075D1*
Y5060D1*
Y5045D1*
Y5030D1*
Y5015D1*
Y5000D1*
Y4985D1*
Y4970D1*
Y4955D1*
Y4940D1*
Y4925D1*
Y4910D1*
X17544Y5330D2*
X17559Y5315D1*
X17574Y5300D1*
X17589Y5285D1*
X17604Y5270D1*
X18144Y18005D2*
X18126Y17990D1*
X18111Y17975D1*
X18099Y17960D1*
X18091Y17945D1*
X18087Y17930D1*
X18085Y17915D1*
X18084Y17900D1*
Y17885D1*
X18086Y17870D1*
X18090Y17855D1*
X18096Y17840D1*
X18103Y17825D1*
X18110Y17810D1*
X18119Y17795D1*
X18129Y17780D1*
X18139Y17765D1*
X18148Y17750D1*
X18159Y17735D1*
X18168Y17720D1*
X18177Y17705D1*
X18185Y17690D1*
X18194Y17675D1*
X18204Y17660D1*
X18214Y17645D1*
X18223Y17630D1*
X18234Y17615D1*
X18244Y17600D1*
X18254Y17585D1*
X18266Y17570D1*
X18279Y17555D1*
X18219Y18005D2*
X18240Y17990D1*
X18259Y17975D1*
X18274Y17960D1*
X18285Y17945D1*
X18290Y17930D1*
X18294Y17915D1*
X18729Y18005D2*
X18716Y17990D1*
X18705Y17975D1*
X18694Y17960D1*
X18684Y17945D1*
X18674Y17930D1*
X18664Y17915D1*
X18653Y17900D1*
X18644Y17885D1*
X18634Y17870D1*
X18623Y17855D1*
X18613Y17840D1*
X18600Y17825D1*
X18583Y17810D1*
X18564Y17795D1*
X18744Y18005D2*
X18736Y17990D1*
X18727Y17975D1*
X18718Y17960D1*
X18708Y17945D1*
X18698Y17930D1*
X18689Y17915D1*
X18679Y17900D1*
X18668Y17885D1*
X18659Y17870D1*
X18649Y17855D1*
X18638Y17840D1*
X18629Y17825D1*
X18619Y17810D1*
X18609Y17795D1*
X18602Y17780D1*
X18597Y17765D1*
X18595Y17750D1*
X18594Y17735D1*
Y17720D1*
Y17705D1*
Y17690D1*
Y17675D1*
Y17660D1*
Y17645D1*
Y17630D1*
Y17615D1*
Y17600D1*
Y17585D1*
Y17570D1*
Y17555D1*
Y17540D1*
X18429Y17990D2*
X18436Y17975D1*
X18445Y17960D1*
X18454Y17945D1*
X18464Y17930D1*
X18474Y17915D1*
X18484Y17900D1*
X18493Y17885D1*
X18504Y17870D1*
X18513Y17855D1*
X18523Y17840D1*
X18534Y17825D1*
X18543Y17810D1*
X18553Y17795D1*
X18563Y17780D1*
X18570Y17765D1*
X18575Y17750D1*
X18577Y17735D1*
X18578Y17720D1*
Y17705D1*
Y17690D1*
Y17675D1*
X18579Y17660D1*
Y17645D1*
Y17630D1*
Y17615D1*
Y17600D1*
Y17585D1*
Y17570D1*
Y17555D1*
Y17540D1*
X18444Y17990D2*
X18453Y17975D1*
X18463Y17960D1*
X18474Y17945D1*
X18483Y17930D1*
X18493Y17915D1*
X18504Y17900D1*
X18513Y17885D1*
X18523Y17870D1*
X18534Y17855D1*
X18544Y17840D1*
X18557Y17825D1*
X18574Y17810D1*
X18594Y17795D1*
X18159Y17990D2*
X18144Y17975D1*
X18129Y17960D1*
X18117Y17945D1*
X18108Y17930D1*
X18103Y17915D1*
X18100Y17900D1*
Y17885D1*
X18102Y17870D1*
X18107Y17855D1*
X18115Y17840D1*
X18124Y17825D1*
X18134Y17810D1*
X18144Y17795D1*
X18153Y17780D1*
X18162Y17765D1*
X18170Y17750D1*
X18179Y17735D1*
X18189Y17720D1*
X18199Y17705D1*
X18208Y17690D1*
X18219Y17675D1*
X18228Y17660D1*
X18237Y17645D1*
X18245Y17630D1*
X18254Y17615D1*
X18264Y17600D1*
X18273Y17585D1*
X18281Y17570D1*
X18288Y17555D1*
X18294Y17540D1*
X18219Y17990D2*
X18233Y17975D1*
X18248Y17960D1*
X18261Y17945D1*
X18270Y17930D1*
X18279Y17915D1*
X18084Y17555D2*
Y17540D1*
X24963Y17499D2*
Y17484D1*
X24965Y17469D1*
X24969Y17454D1*
X24973Y17439D1*
X24978Y17424D1*
X24983Y17409D1*
X24987Y17394D1*
X24991Y17379D1*
X24994Y17364D1*
X24998Y17349D1*
X25003Y17334D1*
X25008Y17319D1*
X25013Y17304D1*
X25017Y17289D1*
X25021Y17274D1*
X25024Y17259D1*
X25028Y17244D1*
X25032Y17229D1*
X25036Y17214D1*
X25039Y17199D1*
X25043Y17184D1*
X25048Y17169D1*
X25053Y17154D1*
X24918Y17139D1*
X24978Y17499D2*
X24980Y17484D1*
X24984Y17469D1*
X24988Y17454D1*
X24993Y17439D1*
X24998Y17424D1*
X25002Y17409D1*
X25006Y17394D1*
X25009Y17379D1*
X25013Y17364D1*
X25018Y17349D1*
X25023Y17334D1*
X25028Y17319D1*
X25032Y17304D1*
X25036Y17289D1*
X25039Y17274D1*
X25043Y17259D1*
X25048Y17244D1*
X25053Y17229D1*
X25058Y17214D1*
X25062Y17199D1*
X25066Y17184D1*
X25069Y17169D1*
X25073Y17154D1*
X25078Y17139D1*
X25083Y17124D1*
X25308Y17499D2*
X25281Y17484D1*
X25262Y17469D1*
X25248Y17454D1*
X25413Y17499D2*
X25432Y17484D1*
X25447Y17469D1*
X25458Y17454D1*
X25468Y17439D1*
X25475Y17424D1*
X25481Y17409D1*
X25484Y17394D1*
Y17379D1*
X25480Y17364D1*
X25474Y17349D1*
X25465Y17334D1*
X25451Y17319D1*
X25432Y17304D1*
X25408Y17289D1*
X25381Y17274D1*
X25354Y17259D1*
X25328Y17244D1*
X25304Y17229D1*
X25281Y17214D1*
X25262Y17199D1*
X25249Y17184D1*
X25241Y17169D1*
X25236Y17154D1*
X25235Y17139D1*
Y17124D1*
X25242Y17109D1*
X25252Y17094D1*
X25281Y17079D1*
X25326Y17064D1*
X25383Y17049D1*
X25353Y17484D2*
X25308Y17469D1*
X25263Y17454D1*
X25383Y17484D2*
X25409Y17469D1*
X25430Y17454D1*
X25447Y17439D1*
X25455Y17424D1*
X25464Y17409D1*
X25473Y17394D1*
X25465Y17379D1*
X25458Y17364D1*
X25449Y17349D1*
X25436Y17334D1*
X25417Y17319D1*
X25393Y17304D1*
X25366Y17289D1*
X25337Y17274D1*
X25308Y17259D1*
X25281Y17244D1*
X25257Y17229D1*
X25240Y17214D1*
X25227Y17199D1*
X25222Y17184D1*
X25219Y17169D1*
X25218Y17154D1*
Y17139D1*
Y17124D1*
X25221Y17109D1*
X25227Y17094D1*
X25237Y17079D1*
X25252Y17064D1*
X25271Y17049D1*
X25293Y17034D1*
X24888Y17244D2*
Y17229D1*
Y17214D1*
Y17199D1*
Y17184D1*
Y17169D1*
Y17154D1*
Y17139D1*
X24813D1*
Y17124D1*
Y17109D1*
X24888D1*
Y17094D1*
Y17079D1*
Y17064D1*
Y17049D1*
Y17034D1*
X24903Y17244D2*
Y17229D1*
Y17214D1*
Y17199D1*
Y17184D1*
Y17169D1*
Y17154D1*
X25038Y17139D1*
X24903Y17124D2*
Y17109D1*
Y17094D1*
Y17079D1*
Y17064D1*
Y17049D1*
Y17034D1*
X25458Y17094D2*
X25421Y17079D1*
X25383Y17064D1*
X25488Y17094D2*
X25471Y17079D1*
X25447Y17064D1*
X25417Y17049D1*
X25383Y17034D1*
X10978Y17818D2*
X10961Y17803D1*
X10945Y17788D1*
X10934Y17773D1*
X10926Y17758D1*
X10922Y17743D1*
X10920Y17728D1*
X10919Y17713D1*
Y17698D1*
X10921Y17683D1*
X10925Y17668D1*
X10931Y17653D1*
X10938Y17638D1*
X10945Y17623D1*
X10954Y17608D1*
X10964Y17593D1*
X10973Y17578D1*
X10983Y17563D1*
X10993Y17548D1*
X11003Y17533D1*
X11011Y17518D1*
X11020Y17503D1*
X11029Y17488D1*
X11039Y17473D1*
X11048Y17458D1*
X11058Y17443D1*
X11068Y17428D1*
X11078Y17413D1*
X11089Y17398D1*
X11101Y17383D1*
X11113Y17368D1*
X11053Y17818D2*
X11075Y17803D1*
X11094Y17788D1*
X11109Y17773D1*
X11120Y17758D1*
X11125Y17743D1*
X11128Y17728D1*
X11353Y17818D2*
X11338Y17803D1*
X11324Y17788D1*
X11311Y17773D1*
X11303Y17758D1*
X11297Y17743D1*
X11295Y17728D1*
X11294Y17713D1*
Y17698D1*
X11296Y17683D1*
X11300Y17668D1*
X11306Y17653D1*
X11315Y17638D1*
X11326Y17623D1*
X11338Y17608D1*
X11317Y17593D1*
X11300Y17578D1*
X11287Y17563D1*
X11277Y17548D1*
X11270Y17533D1*
X11267Y17518D1*
X11265Y17503D1*
X11264Y17488D1*
Y17473D1*
Y17458D1*
X11266Y17443D1*
X11273Y17428D1*
X11283Y17413D1*
X11296Y17398D1*
X11312Y17383D1*
X11332Y17368D1*
X11353Y17353D1*
X11533Y17818D2*
Y17803D1*
Y17788D1*
Y17773D1*
Y17758D1*
Y17743D1*
Y17728D1*
Y17713D1*
Y17698D1*
Y17683D1*
Y17668D1*
Y17653D1*
Y17638D1*
Y17623D1*
Y17608D1*
Y17593D1*
Y17578D1*
Y17563D1*
Y17548D1*
Y17533D1*
Y17518D1*
Y17503D1*
Y17488D1*
Y17473D1*
Y17458D1*
Y17443D1*
Y17428D1*
Y17413D1*
Y17398D1*
Y17383D1*
Y17368D1*
Y17353D1*
X10993Y17803D2*
X10978Y17788D1*
X10964Y17773D1*
X10951Y17758D1*
X10943Y17743D1*
X10937Y17728D1*
X10935Y17713D1*
Y17698D1*
X10937Y17683D1*
X10942Y17668D1*
X10950Y17653D1*
X10959Y17638D1*
X10968Y17623D1*
X10978Y17608D1*
X10988Y17593D1*
X10996Y17578D1*
X11005Y17563D1*
X11014Y17548D1*
X11024Y17533D1*
X11033Y17518D1*
X11043Y17503D1*
X11053Y17488D1*
X11063Y17473D1*
X11071Y17458D1*
X11080Y17443D1*
X11089Y17428D1*
X11099Y17413D1*
X11108Y17398D1*
X11116Y17383D1*
X11123Y17368D1*
X11128Y17353D1*
X11053Y17803D2*
X11068Y17788D1*
X11083Y17773D1*
X11095Y17758D1*
X11105Y17743D1*
X11113Y17728D1*
X11383Y17803D2*
X11359Y17788D1*
X11339Y17773D1*
X11326Y17758D1*
X11315Y17743D1*
X11312Y17728D1*
X11310Y17713D1*
Y17698D1*
X11312Y17683D1*
X11316Y17668D1*
X11329Y17653D1*
X11368Y17638D1*
X11434Y17623D1*
X11518Y17608D1*
Y17803D2*
Y17788D1*
Y17773D1*
Y17758D1*
Y17743D1*
Y17728D1*
Y17713D1*
Y17698D1*
Y17683D1*
Y17668D1*
Y17653D1*
Y17638D1*
Y17623D1*
X11368Y17608D1*
X11353Y17593D2*
X11338Y17578D1*
X11324Y17563D1*
X11311Y17548D1*
X11300Y17533D1*
X11291Y17518D1*
X11285Y17503D1*
X11281Y17488D1*
X11280Y17473D1*
X11281Y17458D1*
X11287Y17443D1*
X11299Y17428D1*
X11314Y17413D1*
X11361Y17398D1*
X11438Y17383D1*
X11533Y17368D1*
X11518Y17593D2*
Y17578D1*
Y17563D1*
Y17548D1*
Y17533D1*
Y17518D1*
Y17503D1*
Y17488D1*
Y17473D1*
Y17458D1*
Y17443D1*
Y17428D1*
Y17413D1*
Y17398D1*
Y17383D1*
X11368Y17368D1*
X10918D2*
Y17353D1*
X21042Y11432D2*
X21021Y11417D1*
X21002Y11402D1*
X20987Y11387D1*
X20975Y11372D1*
X20966Y11357D1*
X20959Y11342D1*
X20956Y11327D1*
X20954Y11312D1*
X20953Y11297D1*
Y11282D1*
X20955Y11267D1*
X20959Y11252D1*
X20966Y11237D1*
X20974Y11222D1*
X20987Y11207D1*
X21003Y11192D1*
X21047Y11177D1*
X21119Y11162D1*
X21207Y11147D1*
Y11132D1*
Y11117D1*
Y11102D1*
Y11087D1*
Y11072D1*
Y11057D1*
Y11042D1*
Y11027D1*
Y11012D1*
Y10997D1*
Y10982D1*
Y10967D1*
X21222Y11432D2*
Y11417D1*
Y11402D1*
Y11387D1*
Y11372D1*
Y11357D1*
Y11342D1*
Y11327D1*
Y11312D1*
Y11297D1*
Y11282D1*
Y11267D1*
Y11252D1*
Y11237D1*
Y11222D1*
Y11207D1*
Y11192D1*
Y11177D1*
Y11162D1*
Y11147D1*
Y11132D1*
Y11117D1*
Y11102D1*
Y11087D1*
Y11072D1*
Y11057D1*
Y11042D1*
Y11027D1*
Y11012D1*
Y10997D1*
Y10982D1*
Y10967D1*
X21447Y11432D2*
X21421Y11417D1*
X21402Y11402D1*
X21387Y11387D1*
X21552Y11432D2*
X21572Y11417D1*
X21587Y11402D1*
X21598Y11387D1*
X21608Y11372D1*
X21615Y11357D1*
X21621Y11342D1*
X21624Y11327D1*
Y11312D1*
X21620Y11297D1*
X21614Y11282D1*
X21605Y11267D1*
X21591Y11252D1*
X21572Y11237D1*
X21548Y11222D1*
X21521Y11207D1*
X21494Y11192D1*
X21468Y11177D1*
X21444Y11162D1*
X21421Y11147D1*
X21402Y11132D1*
X21389Y11117D1*
X21381Y11102D1*
X21376Y11087D1*
X21375Y11072D1*
Y11057D1*
X21382Y11042D1*
X21392Y11027D1*
X21421Y11012D1*
X21466Y10997D1*
X21522Y10982D1*
X21762Y11432D2*
Y11417D1*
Y11402D1*
Y11387D1*
Y11372D1*
Y11357D1*
Y11342D1*
Y11327D1*
Y11312D1*
Y11297D1*
Y11282D1*
Y11267D1*
Y11252D1*
Y11237D1*
Y11222D1*
Y11207D1*
Y11192D1*
Y11177D1*
Y11162D1*
Y11147D1*
Y11132D1*
Y11117D1*
Y11102D1*
Y11087D1*
Y11072D1*
Y11057D1*
Y11042D1*
Y11027D1*
Y11012D1*
Y10997D1*
Y10982D1*
Y10967D1*
X21777Y11432D2*
Y11417D1*
Y11402D1*
Y11387D1*
Y11372D1*
Y11357D1*
Y11342D1*
Y11327D1*
Y11312D1*
Y11297D1*
Y11282D1*
Y11267D1*
Y11252D1*
Y11237D1*
Y11222D1*
Y11207D1*
Y11192D1*
Y11177D1*
Y11162D1*
Y11147D1*
Y11132D1*
Y11117D1*
Y11102D1*
Y11087D1*
Y11072D1*
Y11057D1*
Y11042D1*
Y11027D1*
Y11012D1*
Y10997D1*
Y10982D1*
Y10967D1*
X21042Y11417D2*
X21027Y11402D1*
X21013Y11387D1*
X20998Y11372D1*
X20986Y11357D1*
X20977Y11342D1*
X20972Y11327D1*
X20969Y11312D1*
X20968Y11297D1*
Y11282D1*
X20971Y11267D1*
X20977Y11252D1*
X20988Y11237D1*
X21003Y11222D1*
X21050Y11207D1*
X21127Y11192D1*
X21222Y11177D1*
X21207Y11417D2*
Y11402D1*
Y11387D1*
Y11372D1*
Y11357D1*
Y11342D1*
Y11327D1*
Y11312D1*
Y11297D1*
Y11282D1*
Y11267D1*
Y11252D1*
Y11237D1*
Y11222D1*
Y11207D1*
Y11192D1*
X21057Y11177D1*
X21492Y11417D2*
X21447Y11402D1*
X21402Y11387D1*
X21522Y11417D2*
X21549Y11402D1*
X21570Y11387D1*
X21587Y11372D1*
X21595Y11357D1*
X21603Y11342D1*
X21612Y11327D1*
X21605Y11312D1*
X21598Y11297D1*
X21589Y11282D1*
X21576Y11267D1*
X21557Y11252D1*
X21533Y11237D1*
X21506Y11222D1*
X21477Y11207D1*
X21448Y11192D1*
X21421Y11177D1*
X21397Y11162D1*
X21380Y11147D1*
X21366Y11132D1*
X21362Y11117D1*
X21359Y11102D1*
X21358Y11087D1*
Y11072D1*
Y11057D1*
X21361Y11042D1*
X21367Y11027D1*
X21377Y11012D1*
X21392Y10997D1*
X21411Y10982D1*
X21432Y10967D1*
X21597Y11027D2*
X21560Y11012D1*
X21522Y10997D1*
X21627Y11027D2*
X21611Y11012D1*
X21587Y10997D1*
X21556Y10982D1*
X21522Y10967D1*
X25435Y14152D2*
X25413Y14137D1*
X25394Y14122D1*
X25379Y14107D1*
X25367Y14092D1*
X25358Y14077D1*
X25352Y14062D1*
X25348Y14047D1*
X25346Y14032D1*
Y14017D1*
X25345Y14002D1*
Y13987D1*
Y13972D1*
Y13957D1*
Y13942D1*
Y13927D1*
Y13912D1*
Y13897D1*
Y13882D1*
Y13867D1*
Y13852D1*
Y13837D1*
Y13822D1*
X25346Y13807D1*
X25348Y13792D1*
X25352Y13777D1*
X25358Y13762D1*
X25367Y13747D1*
X25381Y13732D1*
X25400Y13717D1*
X25424Y13702D1*
X25450Y13687D1*
X25615Y14152D2*
Y14137D1*
Y14122D1*
Y14107D1*
Y14092D1*
Y14077D1*
Y14062D1*
Y14047D1*
Y14032D1*
Y14017D1*
Y14002D1*
Y13987D1*
Y13972D1*
Y13957D1*
Y13942D1*
Y13927D1*
Y13912D1*
Y13897D1*
Y13882D1*
Y13867D1*
Y13852D1*
Y13837D1*
Y13822D1*
Y13807D1*
Y13792D1*
Y13777D1*
Y13762D1*
Y13747D1*
Y13732D1*
Y13717D1*
Y13702D1*
Y13687D1*
X25750Y14152D2*
Y14137D1*
Y14122D1*
Y14107D1*
Y14092D1*
Y14077D1*
Y14062D1*
Y14047D1*
Y14032D1*
Y14017D1*
Y14002D1*
Y13987D1*
Y13972D1*
Y13957D1*
Y13942D1*
Y13927D1*
Y13912D1*
Y13897D1*
Y13882D1*
Y13867D1*
Y13852D1*
Y13837D1*
Y13822D1*
Y13807D1*
Y13792D1*
Y13777D1*
Y13762D1*
Y13747D1*
Y13732D1*
Y13717D1*
Y13702D1*
Y13687D1*
X25765Y14152D2*
Y14137D1*
Y14122D1*
Y14107D1*
Y14092D1*
Y14077D1*
Y14062D1*
Y14047D1*
Y14032D1*
Y14017D1*
Y14002D1*
Y13987D1*
Y13972D1*
Y13957D1*
Y13942D1*
Y13927D1*
Y13912D1*
Y13897D1*
Y13882D1*
Y13867D1*
Y13852D1*
Y13837D1*
Y13822D1*
X25766Y13807D1*
X25768Y13792D1*
X25773Y13777D1*
X25780Y13762D1*
X26005Y14152D2*
X25995Y14137D1*
X25985Y14122D1*
X25975Y14107D1*
X25966Y14092D1*
X25957Y14077D1*
X25949Y14062D1*
X25941Y14047D1*
X25934Y14032D1*
X25926Y14017D1*
X25918Y14002D1*
X25909Y13987D1*
X25900Y13972D1*
X25890Y13957D1*
X25882Y13942D1*
X25874Y13927D1*
X25866Y13912D1*
X25859Y13897D1*
X25851Y13882D1*
X25843Y13867D1*
X25834Y13852D1*
X25825Y13837D1*
X25815Y13822D1*
X25807Y13807D1*
X25799Y13792D1*
X25790Y13777D1*
X25780Y13762D1*
X26020Y14152D2*
Y14137D1*
Y14122D1*
Y14107D1*
Y14092D1*
Y14077D1*
Y14062D1*
Y14047D1*
Y14032D1*
Y14017D1*
Y14002D1*
Y13987D1*
Y13972D1*
Y13957D1*
Y13942D1*
Y13927D1*
Y13912D1*
Y13897D1*
Y13882D1*
Y13867D1*
Y13852D1*
Y13837D1*
Y13822D1*
Y13807D1*
Y13792D1*
Y13777D1*
Y13762D1*
Y13747D1*
Y13732D1*
Y13717D1*
Y13702D1*
Y13687D1*
X26155Y14152D2*
Y14137D1*
X26320Y14152D2*
X26346Y14137D1*
X26368Y14122D1*
X26384Y14107D1*
X26396Y14092D1*
X26405Y14077D1*
X26413Y14062D1*
X26419Y14047D1*
X26422Y14032D1*
X26424Y14017D1*
X26425Y14002D1*
Y13987D1*
Y13972D1*
Y13957D1*
Y13942D1*
Y13927D1*
Y13912D1*
Y13897D1*
Y13882D1*
Y13867D1*
Y13852D1*
Y13837D1*
X26424Y13822D1*
X26422Y13807D1*
X26418Y13792D1*
X26413Y13777D1*
X26406Y13762D1*
X26398Y13747D1*
X26388Y13732D1*
X26374Y13717D1*
X26356Y13702D1*
X26335Y13687D1*
X25465Y14137D2*
X25438Y14122D1*
X25415Y14107D1*
X25397Y14092D1*
X25383Y14077D1*
X25374Y14062D1*
X25367Y14047D1*
X25363Y14032D1*
X25361Y14017D1*
Y14002D1*
X25360Y13987D1*
Y13972D1*
Y13957D1*
Y13942D1*
Y13927D1*
Y13912D1*
Y13897D1*
Y13882D1*
Y13867D1*
Y13852D1*
Y13837D1*
X25361Y13822D1*
X25363Y13807D1*
X25367Y13792D1*
X25373Y13777D1*
X25381Y13762D1*
X25397Y13747D1*
X25444Y13732D1*
X25520Y13717D1*
X25615Y13702D1*
X25600Y14137D2*
Y14122D1*
Y14107D1*
Y14092D1*
Y14077D1*
Y14062D1*
Y14047D1*
Y14032D1*
Y14017D1*
Y14002D1*
Y13987D1*
Y13972D1*
Y13957D1*
Y13942D1*
Y13927D1*
Y13912D1*
Y13897D1*
Y13882D1*
Y13867D1*
Y13852D1*
Y13837D1*
Y13822D1*
Y13807D1*
Y13792D1*
Y13777D1*
Y13762D1*
Y13747D1*
Y13732D1*
Y13717D1*
X26305Y14137D2*
X26332Y14122D1*
X26355Y14107D1*
X26373Y14092D1*
X26385Y14077D1*
X26393Y14062D1*
X26399Y14047D1*
X26404Y14032D1*
X26407Y14017D1*
X26409Y14002D1*
X26410Y13987D1*
Y13972D1*
Y13957D1*
Y13942D1*
Y13927D1*
Y13912D1*
Y13897D1*
Y13882D1*
Y13867D1*
Y13852D1*
X26409Y13837D1*
X26408Y13822D1*
X26404Y13807D1*
X26399Y13792D1*
X26394Y13777D1*
X26388Y13762D1*
X26373Y13747D1*
X26326Y13732D1*
X26250Y13717D1*
X26155Y13702D1*
X25990Y14077D2*
X25977Y14062D1*
X25967Y14047D1*
X25957Y14032D1*
X25949Y14017D1*
X25941Y14002D1*
X25933Y13987D1*
X25924Y13972D1*
X25915Y13957D1*
X25905Y13942D1*
X25897Y13927D1*
X25889Y13912D1*
X25881Y13897D1*
X25873Y13882D1*
X25864Y13867D1*
X25855Y13852D1*
X25845Y13837D1*
X25837Y13822D1*
X25829Y13807D1*
X25821Y13792D1*
X25813Y13777D1*
X25804Y13762D1*
X25795Y13747D1*
X25786Y13732D1*
X25777Y13717D1*
X25771Y13702D1*
X25765Y13687D1*
X26005Y14077D2*
Y14062D1*
Y14047D1*
Y14032D1*
Y14017D1*
Y14002D1*
Y13987D1*
Y13972D1*
Y13957D1*
Y13942D1*
Y13927D1*
Y13912D1*
Y13897D1*
Y13882D1*
Y13867D1*
Y13852D1*
Y13837D1*
Y13822D1*
Y13807D1*
Y13792D1*
Y13777D1*
Y13762D1*
Y13747D1*
Y13732D1*
Y13717D1*
Y13702D1*
Y13687D1*
X26155Y13942D2*
Y13927D1*
Y13912D1*
Y13897D1*
Y13882D1*
Y13867D1*
Y13852D1*
Y13837D1*
Y13822D1*
Y13807D1*
Y13792D1*
Y13777D1*
Y13762D1*
Y13747D1*
Y13732D1*
Y13717D1*
Y13702D1*
Y13687D1*
X26245Y13942D2*
Y13927D1*
Y13912D1*
X26170D1*
Y13897D1*
Y13882D1*
Y13867D1*
Y13852D1*
Y13837D1*
Y13822D1*
Y13807D1*
Y13792D1*
Y13777D1*
Y13762D1*
Y13747D1*
Y13732D1*
Y13717D1*
X26320Y13702D1*
X25498Y13152D2*
X25471Y13137D1*
X25452Y13122D1*
X25438Y13107D1*
X25603Y13152D2*
X25622Y13137D1*
X25637Y13122D1*
X25648Y13107D1*
X25658Y13092D1*
X25665Y13077D1*
X25671Y13062D1*
X25674Y13047D1*
Y13032D1*
X25670Y13017D1*
X25664Y13002D1*
X25655Y12987D1*
X25641Y12972D1*
X25622Y12957D1*
X25598Y12942D1*
X25571Y12927D1*
X25544Y12912D1*
X25518Y12897D1*
X25494Y12882D1*
X25471Y12867D1*
X25452Y12852D1*
X25439Y12837D1*
X25431Y12822D1*
X25426Y12807D1*
X25425Y12792D1*
Y12777D1*
X25432Y12762D1*
X25442Y12747D1*
X25471Y12732D1*
X25516Y12717D1*
X25573Y12702D1*
X25813Y13152D2*
Y13137D1*
Y13122D1*
X25933D1*
Y13107D1*
Y13092D1*
Y13077D1*
Y13062D1*
Y13047D1*
Y13032D1*
Y13017D1*
Y13002D1*
Y12987D1*
Y12972D1*
Y12957D1*
Y12942D1*
Y12927D1*
Y12912D1*
Y12897D1*
Y12882D1*
Y12867D1*
Y12852D1*
Y12837D1*
Y12822D1*
Y12807D1*
Y12792D1*
Y12777D1*
Y12762D1*
Y12747D1*
Y12732D1*
Y12717D1*
Y12702D1*
Y12687D1*
X26083Y13152D2*
Y13137D1*
Y13122D1*
X25948D1*
Y13107D1*
Y13092D1*
Y13077D1*
Y13062D1*
Y13047D1*
Y13032D1*
Y13017D1*
Y13002D1*
Y12987D1*
Y12972D1*
Y12957D1*
Y12942D1*
Y12927D1*
Y12912D1*
Y12897D1*
Y12882D1*
Y12867D1*
Y12852D1*
Y12837D1*
Y12822D1*
Y12807D1*
Y12792D1*
Y12777D1*
Y12762D1*
Y12747D1*
Y12732D1*
Y12717D1*
Y12702D1*
Y12687D1*
X26203Y13152D2*
Y13137D1*
X26280Y13122D1*
X26333Y13107D1*
X26371Y13092D1*
X26386Y13077D1*
X26398Y13062D1*
X26405Y13047D1*
X26409Y13032D1*
X26411Y13017D1*
X26412Y13002D1*
Y12987D1*
Y12972D1*
Y12957D1*
X26413Y12942D1*
Y12927D1*
Y12912D1*
Y12897D1*
Y12882D1*
Y12867D1*
Y12852D1*
X26412Y12837D1*
Y12822D1*
X26410Y12807D1*
X26406Y12792D1*
X26399Y12777D1*
X26390Y12762D1*
X26378Y12747D1*
X26341Y12732D1*
X26280Y12717D1*
X26203Y12702D1*
Y12687D1*
X26338Y13152D2*
X26359Y13137D1*
X26378Y13122D1*
X26393Y13107D1*
X26405Y13092D1*
X26414Y13077D1*
X26421Y13062D1*
X26424Y13047D1*
X26426Y13032D1*
X26427Y13017D1*
Y13002D1*
Y12987D1*
Y12972D1*
X26428Y12957D1*
Y12942D1*
Y12927D1*
Y12912D1*
Y12897D1*
Y12882D1*
Y12867D1*
Y12852D1*
Y12837D1*
X26427Y12822D1*
Y12807D1*
X26425Y12792D1*
X26421Y12777D1*
X26414Y12762D1*
X26406Y12747D1*
X26394Y12732D1*
X26378Y12717D1*
X26359Y12702D1*
X26338Y12687D1*
X25543Y13137D2*
X25498Y13122D1*
X25453Y13107D1*
X25573Y13137D2*
X25599Y13122D1*
X25620Y13107D1*
X25637Y13092D1*
X25645Y13077D1*
X25654Y13062D1*
X25663Y13047D1*
X25655Y13032D1*
X25648Y13017D1*
X25639Y13002D1*
X25626Y12987D1*
X25607Y12972D1*
X25583Y12957D1*
X25556Y12942D1*
X25527Y12927D1*
X25498Y12912D1*
X25471Y12897D1*
X25447Y12882D1*
X25430Y12867D1*
X25416Y12852D1*
X25412Y12837D1*
X25409Y12822D1*
X25408Y12807D1*
Y12792D1*
Y12777D1*
X25411Y12762D1*
X25417Y12747D1*
X25427Y12732D1*
X25442Y12717D1*
X25461Y12702D1*
X25483Y12687D1*
X25648Y12747D2*
X25610Y12732D1*
X25573Y12717D1*
X25678Y12747D2*
X25661Y12732D1*
X25637Y12717D1*
X25607Y12702D1*
X25573Y12687D1*
X25830Y12152D2*
X25823Y12137D1*
X25816Y12122D1*
X25810Y12107D1*
X25805Y12092D1*
X25800Y12077D1*
X25795Y12062D1*
X25790Y12047D1*
X25785Y12032D1*
X25780Y12017D1*
X25775Y12002D1*
X25770Y11987D1*
X25765Y11972D1*
X25760Y11957D1*
X25755Y11942D1*
X25750Y11927D1*
X25745Y11912D1*
X25740Y11897D1*
X25735Y11882D1*
X25730Y11867D1*
X25725Y11852D1*
X25720Y11837D1*
X25715Y11822D1*
X25710Y11807D1*
X25704Y11792D1*
X25698Y11777D1*
X25689Y11762D1*
X25680Y11747D1*
X25845Y12152D2*
X25840Y12137D1*
X25835Y12122D1*
X25830Y12107D1*
X25825Y12092D1*
X25820Y12077D1*
X25815Y12062D1*
X25810Y12047D1*
X25805Y12032D1*
X25800Y12017D1*
X25795Y12002D1*
X25790Y11987D1*
X25785Y11972D1*
X25780Y11957D1*
X25775Y11942D1*
X25770Y11927D1*
X25765Y11912D1*
X25760Y11897D1*
X25755Y11882D1*
X25750Y11867D1*
X25745Y11852D1*
X25740Y11837D1*
X25735Y11822D1*
X25730Y11807D1*
X25725Y11792D1*
X25720Y11777D1*
X25715Y11762D1*
X25710Y11747D1*
X25705Y11732D1*
X25700Y11717D1*
X25697Y11702D1*
X25695Y11687D1*
X26145Y12152D2*
Y12137D1*
X26340Y12152D2*
Y12137D1*
Y12122D1*
Y12107D1*
Y12092D1*
Y12077D1*
Y12062D1*
Y12047D1*
Y12032D1*
Y12017D1*
Y12002D1*
Y11987D1*
Y11972D1*
Y11957D1*
Y11942D1*
Y11927D1*
X26258Y11912D1*
X26202Y11897D1*
X26163Y11882D1*
X26148Y11867D1*
X26137Y11852D1*
X26133Y11837D1*
X26131Y11822D1*
X26130Y11807D1*
X25530Y12137D2*
X25532Y12122D1*
X25536Y12107D1*
X25541Y12092D1*
X25545Y12077D1*
X25550Y12062D1*
X25555Y12047D1*
X25560Y12032D1*
X25565Y12017D1*
X25570Y12002D1*
X25575Y11987D1*
X25580Y11972D1*
X25585Y11957D1*
X25590Y11942D1*
X25595Y11927D1*
X25600Y11912D1*
X25605Y11897D1*
X25610Y11882D1*
X25615Y11867D1*
X25620Y11852D1*
X25625Y11837D1*
X25630Y11822D1*
X25635Y11807D1*
X25640Y11792D1*
X25645Y11777D1*
X25650Y11762D1*
X25655Y11747D1*
X25660Y11732D1*
X25665Y11717D1*
X25672Y11702D1*
X25680Y11687D1*
X25545Y12137D2*
X25547Y12122D1*
X25551Y12107D1*
X25556Y12092D1*
X25560Y12077D1*
X25565Y12062D1*
X25570Y12047D1*
X25575Y12032D1*
X25580Y12017D1*
X25585Y12002D1*
X25590Y11987D1*
X25595Y11972D1*
X25600Y11957D1*
X25605Y11942D1*
X25610Y11927D1*
X25615Y11912D1*
X25620Y11897D1*
X25625Y11882D1*
X25630Y11867D1*
X25635Y11852D1*
X25640Y11837D1*
X25645Y11822D1*
X25650Y11807D1*
X25656Y11792D1*
X25662Y11777D1*
X25671Y11762D1*
X25680Y11747D1*
X26325Y12137D2*
Y12122D1*
Y12107D1*
Y12092D1*
Y12077D1*
Y12062D1*
Y12047D1*
Y12032D1*
Y12017D1*
Y12002D1*
Y11987D1*
Y11972D1*
Y11957D1*
X26250Y11942D1*
X26196Y11927D1*
X26158Y11912D1*
X26142Y11897D1*
X26130Y11882D1*
X26123Y11867D1*
X26118Y11852D1*
X26116Y11837D1*
Y11822D1*
X26115Y11807D1*
Y11777D2*
X26121Y11762D1*
X26128Y11747D1*
X26137Y11732D1*
X26151Y11717D1*
X26169Y11702D1*
X26190Y11687D1*
X26130Y11777D2*
X26141Y11762D1*
X26154Y11747D1*
X26194Y11732D1*
X26259Y11717D1*
X26340Y11702D1*
Y11687D1*
X25830Y11152D2*
X25817Y11137D1*
X25806Y11122D1*
X25795Y11107D1*
X25785Y11092D1*
X25775Y11077D1*
X25765Y11062D1*
X25755Y11047D1*
X25745Y11032D1*
X25735Y11017D1*
X25725Y11002D1*
X25714Y10987D1*
X25702Y10972D1*
X25685Y10957D1*
X25665Y10942D1*
X25845Y11152D2*
X25837Y11137D1*
X25829Y11122D1*
X25820Y11107D1*
X25810Y11092D1*
X25800Y11077D1*
X25790Y11062D1*
X25780Y11047D1*
X25770Y11032D1*
X25760Y11017D1*
X25750Y11002D1*
X25740Y10987D1*
X25730Y10972D1*
X25720Y10957D1*
X25711Y10942D1*
X25704Y10927D1*
X25705Y10912D1*
X25713Y10897D1*
X25721Y10882D1*
X25730Y10867D1*
X25740Y10852D1*
X25750Y10837D1*
X25760Y10822D1*
X25770Y10807D1*
X25780Y10792D1*
X25790Y10777D1*
X25800Y10762D1*
X25810Y10747D1*
X25820Y10732D1*
X25830Y10717D1*
X25838Y10702D1*
X25845Y10687D1*
X26100Y11152D2*
Y11137D1*
Y11122D1*
X26220D1*
Y11107D1*
Y11092D1*
Y11077D1*
Y11062D1*
Y11047D1*
Y11032D1*
Y11017D1*
Y11002D1*
Y10987D1*
Y10972D1*
Y10957D1*
Y10942D1*
Y10927D1*
Y10912D1*
Y10897D1*
Y10882D1*
Y10867D1*
Y10852D1*
Y10837D1*
Y10822D1*
Y10807D1*
Y10792D1*
Y10777D1*
Y10762D1*
Y10747D1*
Y10732D1*
Y10717D1*
Y10702D1*
Y10687D1*
X26370Y11152D2*
Y11137D1*
Y11122D1*
X26235D1*
Y11107D1*
Y11092D1*
Y11077D1*
Y11062D1*
Y11047D1*
Y11032D1*
Y11017D1*
Y11002D1*
Y10987D1*
Y10972D1*
Y10957D1*
Y10942D1*
Y10927D1*
Y10912D1*
Y10897D1*
Y10882D1*
Y10867D1*
Y10852D1*
Y10837D1*
Y10822D1*
Y10807D1*
Y10792D1*
Y10777D1*
Y10762D1*
Y10747D1*
Y10732D1*
Y10717D1*
Y10702D1*
Y10687D1*
X25530Y11137D2*
X25537Y11122D1*
X25546Y11107D1*
X25555Y11092D1*
X25565Y11077D1*
X25575Y11062D1*
X25585Y11047D1*
X25595Y11032D1*
X25605Y11017D1*
X25615Y11002D1*
X25625Y10987D1*
X25635Y10972D1*
X25644Y10957D1*
X25652Y10942D1*
X25657Y10927D1*
X25656Y10912D1*
X25651Y10897D1*
X25643Y10882D1*
X25634Y10867D1*
X25625Y10852D1*
X25615Y10837D1*
X25605Y10822D1*
X25595Y10807D1*
X25585Y10792D1*
X25575Y10777D1*
X25565Y10762D1*
X25555Y10747D1*
X25545Y10732D1*
X25537Y10717D1*
X25530Y10702D1*
X25545Y11137D2*
X25555Y11122D1*
X25565Y11107D1*
X25575Y11092D1*
X25585Y11077D1*
X25595Y11062D1*
X25605Y11047D1*
X25615Y11032D1*
X25625Y11017D1*
X25635Y11002D1*
X25646Y10987D1*
X25658Y10972D1*
X25675Y10957D1*
X25695Y10942D1*
X25680Y10882D2*
X25666Y10867D1*
X25652Y10852D1*
X25641Y10837D1*
X25630Y10822D1*
X25620Y10807D1*
X25610Y10792D1*
X25600Y10777D1*
X25590Y10762D1*
X25580Y10747D1*
X25570Y10732D1*
X25558Y10717D1*
X25545Y10702D1*
X25680Y10882D2*
X25695Y10867D1*
X25709Y10852D1*
X25722Y10837D1*
X25734Y10822D1*
X25744Y10807D1*
X25755Y10792D1*
X25765Y10777D1*
X25775Y10762D1*
X25785Y10747D1*
X25795Y10732D1*
X25805Y10717D1*
X25817Y10702D1*
X25830Y10687D1*
Y10152D2*
X25817Y10137D1*
X25806Y10122D1*
X25796Y10107D1*
X25785Y10092D1*
X25775Y10077D1*
X25765Y10062D1*
X25755Y10047D1*
X25745Y10032D1*
X25735Y10017D1*
X25725Y10002D1*
X25714Y9987D1*
X25702Y9972D1*
X25685Y9957D1*
X25665Y9942D1*
X25845Y10152D2*
X25838Y10137D1*
X25829Y10122D1*
X25820Y10107D1*
X25810Y10092D1*
X25800Y10077D1*
X25790Y10062D1*
X25780Y10047D1*
X25770Y10032D1*
X25760Y10017D1*
X25750Y10002D1*
X25740Y9987D1*
X25730Y9972D1*
X25720Y9957D1*
X25711Y9942D1*
X25704Y9927D1*
X25705Y9912D1*
X25713Y9897D1*
X25721Y9882D1*
X25730Y9867D1*
X25740Y9852D1*
X25750Y9837D1*
X25760Y9822D1*
X25770Y9807D1*
X25780Y9792D1*
X25790Y9777D1*
X25800Y9762D1*
X25810Y9747D1*
X25820Y9732D1*
X25830Y9717D1*
X25838Y9702D1*
X25845Y9687D1*
X26190Y10152D2*
X26168Y10137D1*
X26149Y10122D1*
X26134Y10107D1*
X26122Y10092D1*
X26113Y10077D1*
X26107Y10062D1*
X26103Y10047D1*
X26101Y10032D1*
Y10017D1*
Y10002D1*
X26103Y9987D1*
X26107Y9972D1*
X26113Y9957D1*
X26122Y9942D1*
X26136Y9927D1*
X26153Y9912D1*
X26171Y9897D1*
X26190Y9882D1*
X26181Y9867D1*
X26172Y9852D1*
X26164Y9837D1*
X26156Y9822D1*
X26149Y9807D1*
X26141Y9792D1*
X26134Y9777D1*
X26126Y9762D1*
X26119Y9747D1*
X26112Y9732D1*
X26106Y9717D1*
X26103Y9702D1*
X26100Y9687D1*
X26370Y10152D2*
Y10137D1*
Y10122D1*
Y10107D1*
Y10092D1*
Y10077D1*
Y10062D1*
Y10047D1*
Y10032D1*
Y10017D1*
Y10002D1*
Y9987D1*
Y9972D1*
Y9957D1*
Y9942D1*
Y9927D1*
Y9912D1*
Y9897D1*
Y9882D1*
Y9867D1*
Y9852D1*
Y9837D1*
Y9822D1*
Y9807D1*
Y9792D1*
Y9777D1*
Y9762D1*
Y9747D1*
Y9732D1*
Y9717D1*
Y9702D1*
Y9687D1*
X25530Y10137D2*
X25538Y10122D1*
X25546Y10107D1*
X25555Y10092D1*
X25565Y10077D1*
X25575Y10062D1*
X25585Y10047D1*
X25595Y10032D1*
X25605Y10017D1*
X25615Y10002D1*
X25625Y9987D1*
X25635Y9972D1*
X25644Y9957D1*
X25652Y9942D1*
X25657Y9927D1*
X25656Y9912D1*
X25651Y9897D1*
X25643Y9882D1*
X25634Y9867D1*
X25625Y9852D1*
X25615Y9837D1*
X25605Y9822D1*
X25595Y9807D1*
X25585Y9792D1*
X25575Y9777D1*
X25565Y9762D1*
X25555Y9747D1*
X25545Y9732D1*
X25537Y9717D1*
X25530Y9702D1*
X25545Y10137D2*
X25555Y10122D1*
X25565Y10107D1*
X25575Y10092D1*
X25585Y10077D1*
X25595Y10062D1*
X25605Y10047D1*
X25615Y10032D1*
X25625Y10017D1*
X25635Y10002D1*
X25646Y9987D1*
X25658Y9972D1*
X25675Y9957D1*
X25695Y9942D1*
X26190Y10137D2*
X26175Y10122D1*
X26161Y10107D1*
X26148Y10092D1*
X26137Y10077D1*
X26128Y10062D1*
X26122Y10047D1*
X26118Y10032D1*
X26117Y10017D1*
X26118Y10002D1*
X26122Y9987D1*
X26128Y9972D1*
X26136Y9957D1*
X26152Y9942D1*
X26199Y9927D1*
X26275Y9912D1*
X26370Y9897D1*
X26355Y10137D2*
Y10122D1*
Y10107D1*
Y10092D1*
Y10077D1*
Y10062D1*
Y10047D1*
Y10032D1*
Y10017D1*
Y10002D1*
Y9987D1*
Y9972D1*
Y9957D1*
Y9942D1*
Y9927D1*
Y9912D1*
X26205Y9897D1*
X25680Y9882D2*
X25666Y9867D1*
X25653Y9852D1*
X25641Y9837D1*
X25631Y9822D1*
X25620Y9807D1*
X25610Y9792D1*
X25600Y9777D1*
X25590Y9762D1*
X25580Y9747D1*
X25570Y9732D1*
X25558Y9717D1*
X25545Y9702D1*
X25680Y9882D2*
X25695Y9867D1*
X25709Y9852D1*
X25723Y9837D1*
X25734Y9822D1*
X25744Y9807D1*
X25755Y9792D1*
X25765Y9777D1*
X25775Y9762D1*
X25785Y9747D1*
X25795Y9732D1*
X25805Y9717D1*
X25817Y9702D1*
X25830Y9687D1*
X26205Y9882D2*
X26202Y9867D1*
X26196Y9852D1*
X26188Y9837D1*
X26180Y9822D1*
X26172Y9807D1*
X26164Y9792D1*
X26156Y9777D1*
X26149Y9762D1*
X26141Y9747D1*
X26134Y9732D1*
X26127Y9717D1*
X26120Y9702D1*
X26115Y9687D1*
X26355Y9882D2*
Y9867D1*
Y9852D1*
Y9837D1*
Y9822D1*
Y9807D1*
Y9792D1*
Y9777D1*
Y9762D1*
Y9747D1*
Y9732D1*
Y9717D1*
Y9702D1*
Y9687D1*
X25435Y9215D2*
X25413Y9200D1*
X25394Y9185D1*
X25379Y9170D1*
X25367Y9155D1*
X25358Y9140D1*
X25352Y9125D1*
X25348Y9110D1*
X25346Y9095D1*
Y9080D1*
Y9065D1*
X25348Y9050D1*
X25352Y9035D1*
X25358Y9020D1*
X25367Y9005D1*
X25381Y8990D1*
X25398Y8975D1*
X25416Y8960D1*
X25435Y8945D1*
X25426Y8930D1*
X25417Y8915D1*
X25409Y8900D1*
X25401Y8885D1*
X25394Y8870D1*
X25386Y8855D1*
X25379Y8840D1*
X25371Y8825D1*
X25364Y8810D1*
X25357Y8795D1*
X25351Y8780D1*
X25348Y8765D1*
X25345Y8750D1*
X25615Y9215D2*
Y9200D1*
Y9185D1*
Y9170D1*
Y9155D1*
Y9140D1*
Y9125D1*
Y9110D1*
Y9095D1*
Y9080D1*
Y9065D1*
Y9050D1*
Y9035D1*
Y9020D1*
Y9005D1*
Y8990D1*
Y8975D1*
Y8960D1*
Y8945D1*
Y8930D1*
Y8915D1*
Y8900D1*
Y8885D1*
Y8870D1*
Y8855D1*
Y8840D1*
Y8825D1*
Y8810D1*
Y8795D1*
Y8780D1*
Y8765D1*
Y8750D1*
X25750Y9215D2*
Y9200D1*
Y9185D1*
X25870D1*
Y9170D1*
Y9155D1*
Y9140D1*
Y9125D1*
Y9110D1*
Y9095D1*
Y9080D1*
Y9065D1*
Y9050D1*
Y9035D1*
Y9020D1*
Y9005D1*
Y8990D1*
Y8975D1*
Y8960D1*
Y8945D1*
Y8930D1*
Y8915D1*
Y8900D1*
Y8885D1*
Y8870D1*
Y8855D1*
Y8840D1*
Y8825D1*
Y8810D1*
Y8795D1*
Y8780D1*
Y8765D1*
Y8750D1*
X26020Y9215D2*
Y9200D1*
Y9185D1*
X25885D1*
Y9170D1*
Y9155D1*
Y9140D1*
Y9125D1*
Y9110D1*
Y9095D1*
Y9080D1*
Y9065D1*
Y9050D1*
Y9035D1*
Y9020D1*
Y9005D1*
Y8990D1*
Y8975D1*
Y8960D1*
Y8945D1*
Y8930D1*
Y8915D1*
Y8900D1*
Y8885D1*
Y8870D1*
Y8855D1*
Y8840D1*
Y8825D1*
Y8810D1*
Y8795D1*
Y8780D1*
Y8765D1*
Y8750D1*
X26245Y9215D2*
X26223Y9200D1*
X26204Y9185D1*
X26189Y9170D1*
X26177Y9155D1*
X26168Y9140D1*
X26162Y9125D1*
X26158Y9110D1*
X26156Y9095D1*
Y9080D1*
X26155Y9065D1*
Y9050D1*
Y9035D1*
Y9020D1*
Y9005D1*
Y8990D1*
Y8975D1*
Y8960D1*
Y8945D1*
Y8930D1*
Y8915D1*
Y8900D1*
Y8885D1*
X26156Y8870D1*
X26158Y8855D1*
X26162Y8840D1*
X26168Y8825D1*
X26177Y8810D1*
X26191Y8795D1*
X26210Y8780D1*
X26234Y8765D1*
X26260Y8750D1*
X26425Y9215D2*
Y9200D1*
Y9185D1*
Y9170D1*
Y9155D1*
Y9140D1*
Y9125D1*
Y9110D1*
Y9095D1*
Y9080D1*
Y9065D1*
Y9050D1*
Y9035D1*
Y9020D1*
Y9005D1*
Y8990D1*
Y8975D1*
Y8960D1*
Y8945D1*
Y8930D1*
Y8915D1*
Y8900D1*
Y8885D1*
Y8870D1*
Y8855D1*
Y8840D1*
Y8825D1*
Y8810D1*
Y8795D1*
Y8780D1*
Y8765D1*
Y8750D1*
X25435Y9200D2*
X25420Y9185D1*
X25405Y9170D1*
X25391Y9155D1*
X25378Y9140D1*
X25369Y9125D1*
X25364Y9110D1*
X25362Y9095D1*
X25361Y9080D1*
Y9065D1*
X25363Y9050D1*
X25369Y9035D1*
X25380Y9020D1*
X25396Y9005D1*
X25443Y8990D1*
X25519Y8975D1*
X25615Y8960D1*
X25600Y9200D2*
Y9185D1*
Y9170D1*
Y9155D1*
Y9140D1*
Y9125D1*
Y9110D1*
Y9095D1*
Y9080D1*
Y9065D1*
Y9050D1*
Y9035D1*
Y9020D1*
Y9005D1*
Y8990D1*
Y8975D1*
X25450Y8960D1*
X26275Y9200D2*
X26248Y9185D1*
X26225Y9170D1*
X26207Y9155D1*
X26193Y9140D1*
X26184Y9125D1*
X26177Y9110D1*
X26173Y9095D1*
X26171Y9080D1*
Y9065D1*
X26170Y9050D1*
Y9035D1*
Y9020D1*
Y9005D1*
Y8990D1*
Y8975D1*
Y8960D1*
Y8945D1*
Y8930D1*
Y8915D1*
Y8900D1*
X26171Y8885D1*
X26173Y8870D1*
X26177Y8855D1*
X26183Y8840D1*
X26191Y8825D1*
X26207Y8810D1*
X26254Y8795D1*
X26330Y8780D1*
X26425Y8765D1*
X26410Y9200D2*
Y9185D1*
Y9170D1*
Y9155D1*
Y9140D1*
Y9125D1*
Y9110D1*
Y9095D1*
Y9080D1*
Y9065D1*
Y9050D1*
Y9035D1*
Y9020D1*
Y9005D1*
Y8990D1*
Y8975D1*
Y8960D1*
Y8945D1*
Y8930D1*
Y8915D1*
Y8900D1*
Y8885D1*
Y8870D1*
Y8855D1*
Y8840D1*
Y8825D1*
Y8810D1*
Y8795D1*
Y8780D1*
X25465Y8945D2*
X25452Y8930D1*
X25442Y8915D1*
X25432Y8900D1*
X25424Y8885D1*
X25416Y8870D1*
X25409Y8855D1*
X25401Y8840D1*
X25394Y8825D1*
X25386Y8810D1*
X25379Y8795D1*
X25372Y8780D1*
X25365Y8765D1*
X25360Y8750D1*
X25600Y8945D2*
Y8930D1*
Y8915D1*
Y8900D1*
Y8885D1*
Y8870D1*
Y8855D1*
Y8840D1*
Y8825D1*
Y8810D1*
Y8795D1*
Y8780D1*
Y8765D1*
Y8750D1*
M02*
