M48
INCH
T01C0.019
T02C0.035
T03C0.0354
T04C0.1181
%
T01
X+007395Y+012878
X+007957Y+012878
X+007957Y+013440
X+007395Y+013440
X+007395Y+014002
X+007957Y+014002
X+008520Y+014002
X+008520Y+013440
X+008520Y+012878
X+009645Y+012440
X+009645Y+011878
X+009645Y+011252
X+008582Y+010378
X+008895Y+009128
X+011707Y+008753
X+011707Y+010753
X+011707Y+011315
X+011707Y+012503
X+010457Y+014252
X+010582Y+018190
X+015832Y+016502
X+016832Y+013752
X+014895Y+012690
X+014332Y+012690
X+014895Y+012003
X+013770Y+007565
X+013270Y+006628
X+010895Y+004628
X+006707Y+005377
X+005457Y+009752
X+017645Y+006815
X+022895Y+004690
X+022957Y+013003
X+023207Y+015003
X+023582Y+017503
X+019645Y+014065
X+019082Y+014565
T02
X+020897Y+011940
X+020897Y+012940
X+020897Y+013940
X+021897Y+013940
X+021897Y+012940
X+021897Y+011940
T03
X+028207Y+013940
X+028207Y+012940
X+028207Y+011940
X+028207Y+010940
X+028207Y+009940
X+028207Y+008940
T04
X+005207Y+005190
X+005207Y+017690
X+028207Y+017690
X+028207Y+005190
T00
M30
