G04 DipTrace 2.3.0.3*
%INTop.gbr*%
%MOIN*%
%ADD13C,0.019*%
%ADD14C,0.0157*%
%ADD15C,0.01*%
%ADD18C,0.0591*%
%ADD24R,0.125X0.0157*%
%ADD34C,0.059*%
%ADD35C,0.04*%
%FSLAX44Y44*%
G04*
G70*
G90*
G75*
G01*
%LNTop*%
%LPD*%
X10707Y12590D2*
D14*
X9987D1*
D13*
X9795D1*
X9645Y12440D1*
X10707Y12275D2*
D14*
X9987D1*
D13*
X9810D1*
X9645Y12440D1*
X20897Y11940D2*
D15*
Y12188D1*
X20332Y12753D1*
X15645D1*
X14895Y12003D1*
X20897Y12940D2*
X15145D1*
X14895Y12690D1*
X10707Y11645D2*
X9975D1*
X9645Y11315D1*
Y11252D1*
X11707Y10753D2*
X11457Y11003D1*
X10719D1*
X10707Y11015D1*
X11707Y11315D2*
X10722D1*
X10707Y11330D1*
X21897Y12940D2*
X21397Y13440D1*
X20707D1*
X20395Y13128D1*
X14770D1*
X14332Y12690D1*
X10707Y11960D2*
X9727D1*
X9645Y11878D1*
X10707Y12905D2*
X11305D1*
X11707Y12503D1*
Y8753D2*
Y9815D1*
X11457Y10065D1*
X10712D1*
X10707Y10070D1*
X21897Y13940D2*
D13*
X21959Y14001D1*
X21457Y14502D1*
X20082D1*
X19645Y14065D1*
X21897Y13940D2*
X22020D1*
X22957Y13003D1*
X10707Y10385D2*
D14*
X9987D1*
D13*
X8590D1*
X8582Y10378D1*
D35*
X9645Y12440D3*
X14895Y12003D3*
Y12690D3*
X9645Y11252D3*
X11707Y10753D3*
Y11315D3*
X14332Y12690D3*
X9645Y11878D3*
X11707Y12503D3*
Y8753D3*
X19645Y14065D3*
X22957Y13003D3*
X7395Y12878D3*
X7957D3*
X8520D3*
X7957Y13440D3*
X7395D3*
X8520D3*
Y14002D3*
X7957D3*
X7395D3*
X19082Y14565D3*
X23582Y17503D3*
X10582Y18190D3*
X5457Y9752D3*
X8895Y9128D3*
X10457Y14252D3*
X6707Y5377D3*
X10895Y4628D3*
X13770Y7565D3*
X13270Y6628D3*
X17645Y6815D3*
X22895Y4690D3*
X23207Y15003D3*
X16832Y13752D3*
X8582Y10378D3*
X15832Y16502D3*
X5967Y18541D2*
D15*
X27448D1*
X6065Y18443D2*
X27350D1*
X6143Y18344D2*
X27272D1*
X6206Y18245D2*
X27209D1*
X6256Y18147D2*
X27159D1*
X6293Y18048D2*
X27122D1*
X6321Y17949D2*
X27094D1*
X6340Y17850D2*
X27075D1*
X6350Y17752D2*
X27065D1*
X6351Y17653D2*
X27064D1*
X6343Y17554D2*
X27072D1*
X6328Y17456D2*
X27087D1*
X6301Y17357D2*
X27114D1*
X6267Y17258D2*
X27148D1*
X6220Y17160D2*
X27195D1*
X6160Y17061D2*
X27255D1*
X4267Y16962D2*
X4328D1*
X6087D2*
X27328D1*
X29087D2*
X29147D1*
X4267Y16864D2*
X4422D1*
X5993D2*
X27422D1*
X28993D2*
X29147D1*
X4267Y16765D2*
X4542D1*
X5873D2*
X27542D1*
X28873D2*
X29147D1*
X4267Y16666D2*
X4711D1*
X5704D2*
X27711D1*
X28704D2*
X29147D1*
X4267Y16568D2*
X5037D1*
X5378D2*
X28037D1*
X28378D2*
X29147D1*
X4267Y16469D2*
X29147D1*
X4267Y16370D2*
X29147D1*
X4267Y16271D2*
X29147D1*
X4267Y16173D2*
X29147D1*
X4267Y16074D2*
X29147D1*
X4267Y15975D2*
X29147D1*
X4267Y15877D2*
X29147D1*
X4267Y15778D2*
X29147D1*
X4267Y15679D2*
X29147D1*
X4267Y15581D2*
X29147D1*
X4267Y15482D2*
X29147D1*
X4267Y15383D2*
X29147D1*
X4267Y15285D2*
X29147D1*
X4267Y15186D2*
X29147D1*
X4267Y15087D2*
X29147D1*
X4267Y14989D2*
X29147D1*
X4267Y14890D2*
X29147D1*
X4267Y14791D2*
X29147D1*
X4267Y14692D2*
X19912D1*
X21628D2*
X29147D1*
X4267Y14594D2*
X19812D1*
X21728D2*
X29147D1*
X4267Y14495D2*
X19714D1*
X21826D2*
X29147D1*
X4267Y14396D2*
X19511D1*
X21926D2*
X29147D1*
X4267Y14298D2*
X19369D1*
X22179D2*
X27926D1*
X28489D2*
X29147D1*
X4267Y14199D2*
X19308D1*
X20142D2*
X20520D1*
X21275D2*
X21398D1*
X22275D2*
X27831D1*
X28584D2*
X29147D1*
X4267Y14100D2*
X19283D1*
X20042D2*
X20469D1*
X21326D2*
X21469D1*
X22326D2*
X27778D1*
X28637D2*
X29147D1*
X4267Y14002D2*
X19287D1*
X20003D2*
X20444D1*
X21353D2*
X21444D1*
X22353D2*
X27753D1*
X28662D2*
X29147D1*
X4267Y13903D2*
X19320D1*
X19970D2*
X20440D1*
X21354D2*
X21440D1*
X22418D2*
X27750D1*
X28665D2*
X29147D1*
X4267Y13804D2*
X19395D1*
X19895D2*
X20459D1*
X21335D2*
X21459D1*
X22518D2*
X27769D1*
X28646D2*
X29147D1*
X4267Y13706D2*
X9919D1*
X11496D2*
X20505D1*
X21290D2*
X21505D1*
X22617D2*
X27814D1*
X28601D2*
X29147D1*
X4267Y13607D2*
X9919D1*
X11496D2*
X20581D1*
X21525D2*
X21587D1*
X22715D2*
X27897D1*
X28518D2*
X29147D1*
X4267Y13508D2*
X9919D1*
X11496D2*
X20478D1*
X21628D2*
X21765D1*
X22031D2*
X22091D1*
X22814D2*
X28073D1*
X28342D2*
X29147D1*
X4267Y13410D2*
X9919D1*
X11496D2*
X20378D1*
X21726D2*
X22189D1*
X22912D2*
X29147D1*
X4267Y13311D2*
X9919D1*
X11496D2*
X14670D1*
X22160D2*
X22287D1*
X23142D2*
X27944D1*
X28471D2*
X29147D1*
X4267Y13212D2*
X9919D1*
X11496D2*
X14556D1*
X21265D2*
X21326D1*
X22265D2*
X22386D1*
X23253D2*
X27840D1*
X28575D2*
X29147D1*
X4267Y13113D2*
X9919D1*
X11496D2*
X14458D1*
X21321D2*
X21426D1*
X22321D2*
X22484D1*
X23304D2*
X27783D1*
X28632D2*
X29147D1*
X4267Y13015D2*
X9919D1*
X11496D2*
X14183D1*
X21350D2*
X21445D1*
X22350D2*
X22583D1*
X23321D2*
X27755D1*
X28660D2*
X29147D1*
X4267Y12916D2*
X9919D1*
X11592D2*
X14050D1*
X21356D2*
X21439D1*
X22356D2*
X22605D1*
X23310D2*
X27748D1*
X28667D2*
X29147D1*
X4267Y12817D2*
X9684D1*
X11879D2*
X13992D1*
X21339D2*
X21456D1*
X22339D2*
X22645D1*
X23270D2*
X27765D1*
X28650D2*
X29147D1*
X4267Y12719D2*
X9417D1*
X11998D2*
X13970D1*
X21298D2*
X21497D1*
X22298D2*
X22736D1*
X23179D2*
X27806D1*
X28609D2*
X29147D1*
X4267Y12620D2*
X9331D1*
X12051D2*
X13975D1*
X21223D2*
X21573D1*
X22223D2*
X27883D1*
X28532D2*
X29147D1*
X4267Y12521D2*
X9290D1*
X12071D2*
X14011D1*
X15712D2*
X20265D1*
X21070D2*
X21725D1*
X22070D2*
X28034D1*
X28381D2*
X29147D1*
X4267Y12423D2*
X9281D1*
X12062D2*
X14090D1*
X14575D2*
X14653D1*
X15614D2*
X20364D1*
X20960D2*
X29147D1*
X4267Y12324D2*
X9301D1*
X12023D2*
X14737D1*
X15515D2*
X20462D1*
X21140D2*
X21655D1*
X22140D2*
X27964D1*
X28451D2*
X29147D1*
X4267Y12225D2*
X9353D1*
X11937D2*
X14611D1*
X15417D2*
X20540D1*
X21254D2*
X21540D1*
X22254D2*
X27850D1*
X28565D2*
X29147D1*
X4267Y12127D2*
X9384D1*
X11496D2*
X14553D1*
X15317D2*
X20480D1*
X21315D2*
X21480D1*
X22315D2*
X27789D1*
X28626D2*
X29147D1*
X4267Y12028D2*
X9314D1*
X11496D2*
X14533D1*
X15257D2*
X20447D1*
X21348D2*
X21447D1*
X22348D2*
X27758D1*
X28657D2*
X29147D1*
X4267Y11929D2*
X9284D1*
X11496D2*
X14539D1*
X15251D2*
X20439D1*
X21356D2*
X21439D1*
X22356D2*
X27748D1*
X28667D2*
X29147D1*
X4267Y11831D2*
X9284D1*
X11496D2*
X14576D1*
X15214D2*
X20451D1*
X21343D2*
X21451D1*
X22343D2*
X27762D1*
X28653D2*
X29147D1*
X4267Y11732D2*
X9312D1*
X11496D2*
X14658D1*
X15132D2*
X20490D1*
X21306D2*
X21490D1*
X22306D2*
X27800D1*
X28615D2*
X29147D1*
X4267Y11633D2*
X9380D1*
X11873D2*
X20559D1*
X21235D2*
X21559D1*
X22235D2*
X27870D1*
X28545D2*
X29147D1*
X4267Y11534D2*
X9422D1*
X11995D2*
X20695D1*
X21100D2*
X21695D1*
X22100D2*
X28005D1*
X28410D2*
X29147D1*
X4267Y11436D2*
X9333D1*
X12050D2*
X29147D1*
X4267Y11337D2*
X9292D1*
X12071D2*
X27987D1*
X28428D2*
X29147D1*
X4267Y11238D2*
X9281D1*
X12064D2*
X27862D1*
X28553D2*
X29147D1*
X4267Y11140D2*
X9300D1*
X12025D2*
X27795D1*
X28620D2*
X29147D1*
X4267Y11041D2*
X9351D1*
X11942D2*
X27759D1*
X28656D2*
X29147D1*
X4267Y10942D2*
X9464D1*
X9826D2*
X9919D1*
X12017D2*
X27748D1*
X28667D2*
X29147D1*
X4267Y10844D2*
X9919D1*
X12059D2*
X27759D1*
X28656D2*
X29147D1*
X4267Y10745D2*
X9919D1*
X12071D2*
X27794D1*
X28621D2*
X29147D1*
X4267Y10646D2*
X8342D1*
X8823D2*
X9919D1*
X12056D2*
X27858D1*
X28557D2*
X29147D1*
X4267Y10548D2*
X8262D1*
X12006D2*
X27980D1*
X28435D2*
X29147D1*
X4267Y10449D2*
X8226D1*
X11900D2*
X29147D1*
X4267Y10350D2*
X8220D1*
X11496D2*
X28014D1*
X28401D2*
X29147D1*
X4267Y10252D2*
X8242D1*
X11550D2*
X27873D1*
X28542D2*
X29147D1*
X4267Y10153D2*
X8300D1*
X11668D2*
X27801D1*
X28614D2*
X29147D1*
X4267Y10054D2*
X8428D1*
X8737D2*
X9919D1*
X11767D2*
X27762D1*
X28653D2*
X29147D1*
X4267Y9955D2*
X9919D1*
X11865D2*
X27748D1*
X28667D2*
X29147D1*
X4267Y9857D2*
X9919D1*
X11917D2*
X27756D1*
X28659D2*
X29147D1*
X4267Y9758D2*
X9919D1*
X11921D2*
X27787D1*
X28628D2*
X29147D1*
X4267Y9659D2*
X9919D1*
X11921D2*
X27847D1*
X28568D2*
X29147D1*
X4267Y9561D2*
X9919D1*
X11921D2*
X27958D1*
X28457D2*
X29147D1*
X4267Y9462D2*
X9919D1*
X11921D2*
X29147D1*
X4267Y9363D2*
X9919D1*
X11921D2*
X28048D1*
X28367D2*
X29147D1*
X4267Y9265D2*
X9919D1*
X11921D2*
X27887D1*
X28528D2*
X29147D1*
X4267Y9166D2*
X11494D1*
X11921D2*
X27809D1*
X28606D2*
X29147D1*
X4267Y9067D2*
X11494D1*
X11921D2*
X27767D1*
X28648D2*
X29147D1*
X4267Y8969D2*
X11417D1*
X11998D2*
X27750D1*
X28665D2*
X29147D1*
X4267Y8870D2*
X11364D1*
X12051D2*
X27755D1*
X28660D2*
X29147D1*
X4267Y8771D2*
X11344D1*
X12071D2*
X27781D1*
X28634D2*
X29147D1*
X4267Y8673D2*
X11353D1*
X12062D2*
X27837D1*
X28578D2*
X29147D1*
X4267Y8574D2*
X11392D1*
X12023D2*
X27937D1*
X28478D2*
X29147D1*
X4267Y8475D2*
X11478D1*
X11937D2*
X29147D1*
X4267Y8376D2*
X29147D1*
X4267Y8278D2*
X29147D1*
X4267Y8179D2*
X29147D1*
X4267Y8080D2*
X29147D1*
X4267Y7982D2*
X29147D1*
X4267Y7883D2*
X29147D1*
X4267Y7784D2*
X29147D1*
X4267Y7686D2*
X29147D1*
X4267Y7587D2*
X29147D1*
X4267Y7488D2*
X29147D1*
X4267Y7390D2*
X29147D1*
X4267Y7291D2*
X29147D1*
X4267Y7192D2*
X29147D1*
X4267Y7094D2*
X29147D1*
X4267Y6995D2*
X29147D1*
X4267Y6896D2*
X29147D1*
X4267Y6797D2*
X29147D1*
X4267Y6699D2*
X29147D1*
X4267Y6600D2*
X29147D1*
X4267Y6501D2*
X29147D1*
X4267Y6403D2*
X29147D1*
X4267Y6304D2*
X4986D1*
X5429D2*
X27986D1*
X28429D2*
X29147D1*
X4267Y6205D2*
X4694D1*
X5721D2*
X27694D1*
X28721D2*
X29147D1*
X4267Y6107D2*
X4530D1*
X5885D2*
X27530D1*
X28885D2*
X29147D1*
X4267Y6008D2*
X4412D1*
X6003D2*
X27412D1*
X29003D2*
X29147D1*
X4267Y5909D2*
X4322D1*
X6093D2*
X27322D1*
X29093D2*
X29147D1*
X6167Y5811D2*
X27248D1*
X6225Y5712D2*
X27190D1*
X6270Y5613D2*
X27145D1*
X6304Y5515D2*
X27111D1*
X6329Y5416D2*
X27086D1*
X6345Y5317D2*
X27070D1*
X6351Y5218D2*
X27064D1*
X6350Y5120D2*
X27065D1*
X6339Y5021D2*
X27076D1*
X6320Y4922D2*
X27095D1*
X6290Y4824D2*
X27125D1*
X6251Y4725D2*
X27164D1*
X6201Y4626D2*
X27214D1*
X6137Y4528D2*
X27278D1*
X6057Y4429D2*
X27358D1*
X5957Y4330D2*
X27458D1*
X28657Y13930D2*
X28650Y13860D1*
X28632Y13793D1*
X28604Y13729D1*
X28566Y13670D1*
X28520Y13617D1*
X28466Y13573D1*
X28406Y13537D1*
X28341Y13511D1*
X28273Y13496D1*
X28203Y13491D1*
X28134Y13497D1*
X28066Y13514D1*
X28001Y13541D1*
X27942Y13578D1*
X27889Y13623D1*
X27844Y13677D1*
X27807Y13736D1*
X27780Y13801D1*
X27764Y13869D1*
X27758Y13939D1*
X27763Y14008D1*
X27779Y14076D1*
X27806Y14141D1*
X27842Y14201D1*
X27887Y14255D1*
X27939Y14301D1*
X27999Y14338D1*
X28063Y14365D1*
X28131Y14383D1*
X28200Y14389D1*
X28270Y14385D1*
X28338Y14370D1*
X28404Y14344D1*
X28464Y14309D1*
X28518Y14265D1*
X28565Y14213D1*
X28603Y14154D1*
X28631Y14090D1*
X28649Y14022D1*
X28657Y13953D1*
Y13930D1*
Y12930D2*
X28650Y12860D1*
X28632Y12793D1*
X28604Y12729D1*
X28566Y12670D1*
X28520Y12617D1*
X28466Y12573D1*
X28406Y12537D1*
X28341Y12511D1*
X28273Y12496D1*
X28203Y12491D1*
X28134Y12497D1*
X28066Y12514D1*
X28001Y12541D1*
X27942Y12578D1*
X27889Y12623D1*
X27844Y12677D1*
X27807Y12736D1*
X27780Y12801D1*
X27764Y12869D1*
X27758Y12939D1*
X27763Y13008D1*
X27779Y13076D1*
X27806Y13141D1*
X27842Y13201D1*
X27887Y13255D1*
X27939Y13301D1*
X27999Y13338D1*
X28063Y13365D1*
X28131Y13383D1*
X28200Y13389D1*
X28270Y13385D1*
X28338Y13370D1*
X28404Y13344D1*
X28464Y13309D1*
X28518Y13265D1*
X28565Y13213D1*
X28603Y13154D1*
X28631Y13090D1*
X28649Y13022D1*
X28657Y12953D1*
Y12930D1*
X28654Y11890D2*
X28646Y11841D1*
X28632Y11793D1*
X28613Y11747D1*
X28589Y11703D1*
X28560Y11662D1*
X28527Y11624D1*
X28490Y11591D1*
X28450Y11562D1*
X28406Y11537D1*
X28360Y11517D1*
X28312Y11503D1*
X28263Y11494D1*
X28213Y11491D1*
X28163Y11493D1*
X28114Y11501D1*
X28066Y11514D1*
X28019Y11532D1*
X27975Y11556D1*
X27934Y11584D1*
X27896Y11616D1*
X27862Y11653D1*
X27832Y11693D1*
X27807Y11736D1*
X27787Y11782D1*
X27772Y11830D1*
X27762Y11879D1*
X27758Y11929D1*
X27760Y11979D1*
X27767Y12028D1*
X27779Y12076D1*
X27797Y12123D1*
X27820Y12168D1*
X27848Y12209D1*
X27880Y12247D1*
X27916Y12282D1*
X27956Y12312D1*
X27999Y12338D1*
X28044Y12359D1*
X28092Y12374D1*
X28141Y12384D1*
X28190Y12389D1*
X28240Y12388D1*
X28290Y12382D1*
X28338Y12370D1*
X28385Y12353D1*
X28430Y12330D1*
X28472Y12303D1*
X28511Y12272D1*
X28546Y12236D1*
X28576Y12196D1*
X28603Y12154D1*
X28624Y12109D1*
X28640Y12061D1*
X28651Y12013D1*
X28657Y11940D1*
X28654Y11890D1*
Y10890D2*
X28646Y10841D1*
X28632Y10793D1*
X28613Y10747D1*
X28589Y10703D1*
X28560Y10662D1*
X28527Y10624D1*
X28490Y10591D1*
X28450Y10562D1*
X28406Y10537D1*
X28360Y10517D1*
X28312Y10503D1*
X28263Y10494D1*
X28213Y10491D1*
X28163Y10493D1*
X28114Y10501D1*
X28066Y10514D1*
X28019Y10532D1*
X27975Y10556D1*
X27934Y10584D1*
X27896Y10616D1*
X27862Y10653D1*
X27832Y10693D1*
X27807Y10736D1*
X27787Y10782D1*
X27772Y10830D1*
X27762Y10879D1*
X27758Y10929D1*
X27760Y10979D1*
X27767Y11028D1*
X27779Y11076D1*
X27797Y11123D1*
X27820Y11168D1*
X27848Y11209D1*
X27880Y11247D1*
X27916Y11282D1*
X27956Y11312D1*
X27999Y11338D1*
X28044Y11359D1*
X28092Y11374D1*
X28141Y11384D1*
X28190Y11389D1*
X28240Y11388D1*
X28290Y11382D1*
X28338Y11370D1*
X28385Y11353D1*
X28430Y11330D1*
X28472Y11303D1*
X28511Y11272D1*
X28546Y11236D1*
X28576Y11196D1*
X28603Y11154D1*
X28624Y11109D1*
X28640Y11061D1*
X28651Y11013D1*
X28657Y10940D1*
X28654Y10890D1*
Y9890D2*
X28646Y9841D1*
X28632Y9793D1*
X28613Y9747D1*
X28589Y9703D1*
X28560Y9662D1*
X28527Y9624D1*
X28490Y9591D1*
X28450Y9562D1*
X28406Y9537D1*
X28360Y9517D1*
X28312Y9503D1*
X28263Y9494D1*
X28213Y9491D1*
X28163Y9493D1*
X28114Y9501D1*
X28066Y9514D1*
X28019Y9532D1*
X27975Y9556D1*
X27934Y9584D1*
X27896Y9616D1*
X27862Y9653D1*
X27832Y9693D1*
X27807Y9736D1*
X27787Y9782D1*
X27772Y9830D1*
X27762Y9879D1*
X27758Y9929D1*
X27760Y9979D1*
X27767Y10028D1*
X27779Y10076D1*
X27797Y10123D1*
X27820Y10168D1*
X27848Y10209D1*
X27880Y10247D1*
X27916Y10282D1*
X27956Y10312D1*
X27999Y10338D1*
X28044Y10359D1*
X28092Y10374D1*
X28141Y10384D1*
X28190Y10389D1*
X28240Y10388D1*
X28290Y10382D1*
X28338Y10370D1*
X28385Y10353D1*
X28430Y10330D1*
X28472Y10303D1*
X28511Y10272D1*
X28546Y10236D1*
X28576Y10196D1*
X28603Y10154D1*
X28624Y10109D1*
X28640Y10061D1*
X28651Y10013D1*
X28657Y9940D1*
X28654Y9890D1*
Y8890D2*
X28646Y8841D1*
X28632Y8793D1*
X28613Y8747D1*
X28589Y8703D1*
X28560Y8662D1*
X28527Y8624D1*
X28490Y8591D1*
X28450Y8562D1*
X28406Y8537D1*
X28360Y8517D1*
X28312Y8503D1*
X28263Y8494D1*
X28213Y8491D1*
X28163Y8493D1*
X28114Y8501D1*
X28066Y8514D1*
X28019Y8532D1*
X27975Y8556D1*
X27934Y8584D1*
X27896Y8616D1*
X27862Y8653D1*
X27832Y8693D1*
X27807Y8736D1*
X27787Y8782D1*
X27772Y8830D1*
X27762Y8879D1*
X27758Y8929D1*
X27760Y8979D1*
X27767Y9028D1*
X27779Y9076D1*
X27797Y9123D1*
X27820Y9168D1*
X27848Y9209D1*
X27880Y9247D1*
X27916Y9282D1*
X27956Y9312D1*
X27999Y9338D1*
X28044Y9359D1*
X28092Y9374D1*
X28141Y9384D1*
X28190Y9389D1*
X28240Y9388D1*
X28290Y9382D1*
X28338Y9370D1*
X28385Y9353D1*
X28430Y9330D1*
X28472Y9303D1*
X28511Y9272D1*
X28546Y9236D1*
X28576Y9196D1*
X28603Y9154D1*
X28624Y9109D1*
X28640Y9061D1*
X28651Y9013D1*
X28657Y8940D1*
X28654Y8890D1*
X11486Y9673D2*
Y9207D1*
X9928D1*
X9930Y9673D1*
X9928Y9692D1*
Y10136D1*
X8842D1*
X8777Y10082D1*
X8734Y10057D1*
X8687Y10039D1*
X8638Y10028D1*
X8589Y10024D1*
X8539Y10026D1*
X8490Y10036D1*
X8442Y10052D1*
X8398Y10075D1*
X8357Y10104D1*
X8321Y10139D1*
X8290Y10178D1*
X8265Y10221D1*
X8246Y10267D1*
X8234Y10316D1*
X8229Y10365D1*
X8231Y10415D1*
X8239Y10464D1*
X8255Y10512D1*
X8277Y10557D1*
X8305Y10598D1*
X8339Y10635D1*
X8378Y10666D1*
X8421Y10692D1*
X8466Y10712D1*
X8515Y10725D1*
X8564Y10731D1*
X8614Y10730D1*
X8664Y10722D1*
X8711Y10707D1*
X8756Y10686D1*
X8798Y10658D1*
X8825Y10634D1*
X9929D1*
X9928Y10857D1*
Y11040D1*
X9879Y10987D1*
X9840Y10957D1*
X9796Y10932D1*
X9749Y10914D1*
X9701Y10903D1*
X9651Y10899D1*
X9601Y10901D1*
X9552Y10911D1*
X9505Y10927D1*
X9461Y10950D1*
X9420Y10979D1*
X9384Y11014D1*
X9353Y11053D1*
X9327Y11096D1*
X9309Y11142D1*
X9296Y11191D1*
X9291Y11240D1*
X9293Y11290D1*
X9302Y11339D1*
X9318Y11387D1*
X9340Y11432D1*
X9368Y11473D1*
X9402Y11510D1*
X9440Y11541D1*
X9479Y11565D1*
X9420Y11604D1*
X9384Y11639D1*
X9353Y11678D1*
X9327Y11721D1*
X9309Y11767D1*
X9296Y11816D1*
X9291Y11865D1*
X9293Y11915D1*
X9302Y11964D1*
X9317Y12012D1*
X9340Y12057D1*
X9368Y12098D1*
X9402Y12135D1*
X9429Y12157D1*
X9384Y12201D1*
X9353Y12240D1*
X9327Y12283D1*
X9309Y12330D1*
X9296Y12378D1*
X9291Y12428D1*
X9293Y12478D1*
X9302Y12527D1*
X9317Y12574D1*
X9340Y12619D1*
X9368Y12660D1*
X9402Y12697D1*
X9440Y12729D1*
X9483Y12755D1*
X9529Y12774D1*
X9577Y12787D1*
X9650Y12793D1*
X9701Y12820D1*
X9749Y12834D1*
X9795Y12839D1*
X9927D1*
X9928Y13137D1*
Y13767D1*
X11486D1*
X11485Y13302D1*
X11486Y13282D1*
Y13011D1*
X11647Y12851D1*
X11689Y12856D1*
X11739Y12855D1*
X11789Y12847D1*
X11836Y12832D1*
X11881Y12811D1*
X11923Y12783D1*
X11960Y12750D1*
X11993Y12712D1*
X12019Y12670D1*
X12040Y12624D1*
X12054Y12576D1*
X12061Y12503D1*
X12058Y12453D1*
X12047Y12404D1*
X12030Y12357D1*
X12006Y12313D1*
X11977Y12273D1*
X11942Y12237D1*
X11902Y12207D1*
X11859Y12182D1*
X11812Y12164D1*
X11763Y12153D1*
X11714Y12149D1*
X11664Y12151D1*
X11615Y12161D1*
X11567Y12177D1*
X11523Y12200D1*
X11486Y12227D1*
X11485Y12042D1*
X11486Y11942D1*
X11485Y11727D1*
X11486Y11627D1*
Y11592D1*
X11546Y11630D1*
X11591Y11649D1*
X11640Y11662D1*
X11689Y11669D1*
X11739Y11668D1*
X11789Y11660D1*
X11836Y11645D1*
X11881Y11623D1*
X11923Y11596D1*
X11960Y11563D1*
X11993Y11525D1*
X12019Y11482D1*
X12040Y11437D1*
X12054Y11389D1*
X12061Y11315D1*
X12058Y11265D1*
X12047Y11216D1*
X12030Y11169D1*
X12006Y11125D1*
X11977Y11085D1*
X11921Y11034D1*
X11960Y11000D1*
X11993Y10962D1*
X12019Y10920D1*
X12040Y10874D1*
X12054Y10826D1*
X12061Y10753D1*
X12058Y10703D1*
X12047Y10654D1*
X12030Y10607D1*
X12006Y10563D1*
X11977Y10523D1*
X11942Y10487D1*
X11902Y10457D1*
X11859Y10432D1*
X11812Y10414D1*
X11763Y10403D1*
X11714Y10399D1*
X11664Y10401D1*
X11615Y10411D1*
X11567Y10427D1*
X11523Y10450D1*
X11486Y10477D1*
Y10266D1*
X11507Y10263D1*
X11554Y10245D1*
X11602Y10209D1*
X11852Y9959D1*
X11882Y9920D1*
X11903Y9874D1*
X11911Y9815D1*
Y9042D1*
X11960Y9000D1*
X11993Y8962D1*
X12019Y8920D1*
X12040Y8874D1*
X12054Y8826D1*
X12061Y8753D1*
X12058Y8703D1*
X12047Y8654D1*
X12030Y8607D1*
X12006Y8563D1*
X11977Y8523D1*
X11942Y8487D1*
X11902Y8457D1*
X11859Y8432D1*
X11812Y8414D1*
X11763Y8403D1*
X11714Y8399D1*
X11664Y8401D1*
X11615Y8411D1*
X11567Y8427D1*
X11523Y8450D1*
X11482Y8479D1*
X11446Y8514D1*
X11415Y8553D1*
X11390Y8596D1*
X11371Y8642D1*
X11359Y8691D1*
X11354Y8740D1*
X11356Y8790D1*
X11364Y8839D1*
X11380Y8887D1*
X11402Y8932D1*
X11430Y8973D1*
X11464Y9010D1*
X11504Y9042D1*
X11503Y9732D1*
X11486Y9748D1*
Y9522D1*
X21344Y11890D2*
X21335Y11841D1*
X21322Y11793D1*
X21303Y11747D1*
X21279Y11703D1*
X21250Y11662D1*
X21217Y11624D1*
X21180Y11591D1*
X21139Y11562D1*
X21096Y11537D1*
X21050Y11518D1*
X21002Y11503D1*
X20953Y11494D1*
X20903Y11491D1*
X20853Y11493D1*
X20803Y11501D1*
X20755Y11514D1*
X20709Y11533D1*
X20665Y11556D1*
X20623Y11584D1*
X20586Y11617D1*
X20552Y11654D1*
X20522Y11694D1*
X20497Y11737D1*
X20477Y11783D1*
X20462Y11831D1*
X20453Y11880D1*
X20449Y11929D1*
X20450Y11979D1*
X20457Y12029D1*
X20470Y12077D1*
X20488Y12124D1*
X20511Y12168D1*
X20560Y12235D1*
X20364Y12432D1*
X20248Y12548D1*
X15728Y12549D1*
X15542Y12361D1*
X15245Y12064D1*
X15249Y12003D1*
X15245Y11953D1*
X15235Y11904D1*
X15218Y11857D1*
X15194Y11813D1*
X15164Y11773D1*
X15129Y11737D1*
X15090Y11707D1*
X15046Y11682D1*
X14999Y11664D1*
X14951Y11653D1*
X14901Y11649D1*
X14851Y11651D1*
X14802Y11661D1*
X14755Y11677D1*
X14711Y11700D1*
X14670Y11729D1*
X14634Y11764D1*
X14603Y11803D1*
X14577Y11846D1*
X14559Y11892D1*
X14546Y11941D1*
X14541Y11990D1*
X14543Y12040D1*
X14552Y12089D1*
X14568Y12137D1*
X14590Y12182D1*
X14618Y12223D1*
X14652Y12260D1*
X14690Y12291D1*
X14733Y12317D1*
X14779Y12337D1*
X14814Y12346D1*
X14755Y12365D1*
X14711Y12388D1*
X14670Y12417D1*
X14634Y12451D1*
X14613Y12477D1*
X14567Y12425D1*
X14527Y12394D1*
X14484Y12370D1*
X14437Y12352D1*
X14388Y12340D1*
X14339Y12336D1*
X14289Y12339D1*
X14240Y12348D1*
X14192Y12365D1*
X14148Y12388D1*
X14107Y12417D1*
X14071Y12451D1*
X14040Y12490D1*
X14015Y12533D1*
X13996Y12580D1*
X13984Y12628D1*
X13979Y12678D1*
X13981Y12728D1*
X13989Y12777D1*
X14005Y12824D1*
X14027Y12869D1*
X14055Y12910D1*
X14089Y12947D1*
X14128Y12979D1*
X14171Y13005D1*
X14216Y13024D1*
X14265Y13037D1*
X14314Y13044D1*
X14364Y13043D1*
X14394Y13038D1*
X14577Y13223D1*
X14626Y13272D1*
X14665Y13302D1*
X14711Y13323D1*
X14770Y13331D1*
X20312D1*
X20498Y13519D1*
X20579Y13598D1*
X20586Y13617D1*
X20552Y13654D1*
X20522Y13694D1*
X20497Y13737D1*
X20477Y13783D1*
X20462Y13831D1*
X20453Y13880D1*
X20449Y13929D1*
X20450Y13979D1*
X20457Y14029D1*
X20470Y14077D1*
X20488Y14124D1*
X20511Y14168D1*
X20539Y14210D1*
X20576Y14253D1*
X20184D1*
X19999Y14067D1*
X19995Y14015D1*
X19985Y13966D1*
X19968Y13919D1*
X19944Y13875D1*
X19914Y13835D1*
X19879Y13800D1*
X19840Y13769D1*
X19796Y13745D1*
X19749Y13727D1*
X19701Y13715D1*
X19651Y13711D1*
X19601Y13714D1*
X19552Y13723D1*
X19505Y13740D1*
X19461Y13763D1*
X19420Y13792D1*
X19384Y13826D1*
X19353Y13865D1*
X19327Y13908D1*
X19309Y13955D1*
X19296Y14003D1*
X19291Y14053D1*
X19293Y14103D1*
X19302Y14152D1*
X19318Y14199D1*
X19340Y14244D1*
X19368Y14285D1*
X19402Y14322D1*
X19440Y14354D1*
X19483Y14380D1*
X19529Y14399D1*
X19577Y14412D1*
X19647Y14418D1*
X19906Y14679D1*
X19945Y14710D1*
X19989Y14733D1*
X20037Y14747D1*
X20082Y14751D1*
X21457D1*
X21507Y14746D1*
X21555Y14732D1*
X21599Y14708D1*
X21634Y14679D1*
X21924Y14388D1*
X21981Y14381D1*
X22030Y14369D1*
X22077Y14352D1*
X22121Y14329D1*
X22163Y14302D1*
X22202Y14270D1*
X22236Y14234D1*
X22267Y14195D1*
X22293Y14152D1*
X22314Y14107D1*
X22330Y14060D1*
X22341Y14011D1*
X22346Y13966D1*
X22955Y13357D1*
X23039Y13347D1*
X23086Y13332D1*
X23131Y13311D1*
X23173Y13283D1*
X23210Y13250D1*
X23243Y13212D1*
X23269Y13170D1*
X23290Y13124D1*
X23304Y13076D1*
X23311Y13003D1*
X23308Y12953D1*
X23297Y12904D1*
X23280Y12857D1*
X23256Y12813D1*
X23227Y12773D1*
X23192Y12737D1*
X23152Y12707D1*
X23109Y12682D1*
X23062Y12664D1*
X23013Y12653D1*
X22964Y12649D1*
X22914Y12651D1*
X22865Y12661D1*
X22817Y12677D1*
X22773Y12700D1*
X22732Y12729D1*
X22696Y12764D1*
X22665Y12803D1*
X22640Y12846D1*
X22621Y12892D1*
X22609Y12941D1*
X22604Y13004D1*
X22078Y13530D1*
X22050Y13518D1*
X22002Y13503D1*
X21953Y13494D1*
X21903Y13491D1*
X21853Y13493D1*
X21803Y13501D1*
X21755Y13514D1*
X21709Y13533D1*
X21665Y13556D1*
X21623Y13584D1*
X21586Y13617D1*
X21552Y13654D1*
X21522Y13694D1*
X21497Y13737D1*
X21477Y13783D1*
X21462Y13831D1*
X21453Y13880D1*
X21449Y13929D1*
X21450Y13979D1*
X21457Y14029D1*
X21470Y14077D1*
X21487Y14122D1*
X21355Y14253D1*
X21218D1*
X21267Y14195D1*
X21293Y14152D1*
X21314Y14107D1*
X21330Y14060D1*
X21341Y14011D1*
X21346Y13940D1*
X21344Y13890D1*
X21335Y13841D1*
X21322Y13793D1*
X21303Y13747D1*
X21279Y13703D1*
X21234Y13644D1*
X21397D1*
X21447Y13638D1*
X21494Y13620D1*
X21542Y13584D1*
X21759Y13367D1*
X21832Y13384D1*
X21882Y13389D1*
X21932Y13388D1*
X21981Y13381D1*
X22030Y13369D1*
X22077Y13352D1*
X22121Y13329D1*
X22163Y13302D1*
X22202Y13270D1*
X22236Y13234D1*
X22267Y13195D1*
X22293Y13152D1*
X22314Y13107D1*
X22330Y13060D1*
X22341Y13011D1*
X22346Y12940D1*
X22344Y12890D1*
X22335Y12841D1*
X22322Y12793D1*
X22303Y12747D1*
X22279Y12703D1*
X22250Y12662D1*
X22217Y12624D1*
X22180Y12591D1*
X22139Y12562D1*
X22096Y12537D1*
X22050Y12518D1*
X22002Y12503D1*
X21953Y12494D1*
X21903Y12491D1*
X21853Y12493D1*
X21803Y12501D1*
X21755Y12514D1*
X21709Y12533D1*
X21665Y12556D1*
X21623Y12584D1*
X21586Y12617D1*
X21552Y12654D1*
X21522Y12694D1*
X21497Y12737D1*
X21477Y12783D1*
X21462Y12831D1*
X21453Y12880D1*
X21449Y12929D1*
X21450Y12979D1*
X21457Y13029D1*
X21470Y13079D1*
X21312Y13237D1*
X21236Y13234D1*
X21267Y13195D1*
X21293Y13152D1*
X21314Y13107D1*
X21330Y13060D1*
X21341Y13011D1*
X21346Y12940D1*
X21344Y12890D1*
X21335Y12841D1*
X21322Y12793D1*
X21303Y12747D1*
X21279Y12703D1*
X21250Y12662D1*
X21217Y12624D1*
X21180Y12591D1*
X21139Y12562D1*
X21096Y12537D1*
X21050Y12518D1*
X21002Y12503D1*
X20953Y12494D1*
X20882Y12492D1*
X20995Y12379D1*
X21077Y12352D1*
X21121Y12329D1*
X21163Y12302D1*
X21202Y12270D1*
X21236Y12234D1*
X21267Y12195D1*
X21293Y12152D1*
X21314Y12107D1*
X21330Y12060D1*
X21341Y12011D1*
X21346Y11940D1*
X21344Y11890D1*
X22346Y11930D2*
X22339Y11860D1*
X22322Y11793D1*
X22294Y11729D1*
X22256Y11670D1*
X22210Y11617D1*
X22156Y11573D1*
X22096Y11537D1*
X22031Y11511D1*
X21963Y11496D1*
X21893Y11491D1*
X21823Y11497D1*
X21755Y11514D1*
X21691Y11541D1*
X21631Y11578D1*
X21579Y11624D1*
X21533Y11677D1*
X21497Y11737D1*
X21470Y11802D1*
X21454Y11870D1*
X21448Y11939D1*
X21454Y12009D1*
X21470Y12077D1*
X21496Y12142D1*
X21533Y12202D1*
X21578Y12255D1*
X21631Y12301D1*
X21690Y12338D1*
X21754Y12366D1*
X21822Y12383D1*
X21892Y12389D1*
X21961Y12384D1*
X22030Y12369D1*
X22095Y12343D1*
X22155Y12308D1*
X22209Y12263D1*
X22255Y12211D1*
X22293Y12152D1*
X22321Y12088D1*
X22339Y12021D1*
X22346Y11951D1*
Y11930D1*
X6340Y5140D2*
X6332Y5040D1*
X6314Y4942D1*
X6288Y4846D1*
X6253Y4752D1*
X6211Y4661D1*
X6160Y4575D1*
X6102Y4493D1*
X6038Y4417D1*
X5966Y4347D1*
X5889Y4284D1*
X5826Y4240D1*
X27587D1*
X27496Y4307D1*
X27421Y4373D1*
X27352Y4445D1*
X27290Y4523D1*
X27235Y4607D1*
X27187Y4695D1*
X27148Y4787D1*
X27116Y4881D1*
X27093Y4979D1*
X27079Y5078D1*
X27074Y5177D1*
X27077Y5277D1*
X27089Y5377D1*
X27110Y5474D1*
X27139Y5570D1*
X27177Y5663D1*
X27222Y5752D1*
X27276Y5836D1*
X27336Y5916D1*
X27403Y5990D1*
X27477Y6057D1*
X27556Y6118D1*
X27640Y6172D1*
X27729Y6218D1*
X27822Y6256D1*
X27917Y6286D1*
X28015Y6307D1*
X28114Y6320D1*
X28214Y6324D1*
X28314Y6319D1*
X28413Y6305D1*
X28510Y6283D1*
X28605Y6252D1*
X28697Y6213D1*
X28785Y6166D1*
X28869Y6111D1*
X28947Y6049D1*
X29020Y5981D1*
X29087Y5906D1*
X29157Y5809D1*
Y17070D1*
X29102Y16993D1*
X29038Y16917D1*
X28966Y16847D1*
X28889Y16784D1*
X28807Y16727D1*
X28720Y16678D1*
X28628Y16637D1*
X28534Y16604D1*
X28437Y16580D1*
X28338Y16564D1*
X28239Y16556D1*
X28139Y16558D1*
X28039Y16569D1*
X27941Y16588D1*
X27845Y16615D1*
X27752Y16652D1*
X27662Y16696D1*
X27577Y16748D1*
X27496Y16807D1*
X27421Y16873D1*
X27352Y16945D1*
X27290Y17023D1*
X27235Y17107D1*
X27187Y17195D1*
X27148Y17287D1*
X27116Y17381D1*
X27093Y17479D1*
X27079Y17578D1*
X27074Y17677D1*
X27077Y17777D1*
X27089Y17877D1*
X27110Y17974D1*
X27139Y18070D1*
X27177Y18163D1*
X27222Y18252D1*
X27276Y18336D1*
X27336Y18416D1*
X27403Y18490D1*
X27477Y18557D1*
X27556Y18618D1*
X27589Y18640D1*
X5828Y18639D1*
X5909Y18581D1*
X5985Y18516D1*
X6054Y18444D1*
X6117Y18367D1*
X6174Y18284D1*
X6222Y18197D1*
X6263Y18105D1*
X6295Y18011D1*
X6319Y17914D1*
X6335Y17815D1*
X6341Y17690D1*
X6337Y17590D1*
X6324Y17491D1*
X6302Y17393D1*
X6272Y17298D1*
X6233Y17206D1*
X6186Y17118D1*
X6132Y17034D1*
X6071Y16955D1*
X6003Y16882D1*
X5928Y16815D1*
X5849Y16755D1*
X5764Y16702D1*
X5674Y16657D1*
X5582Y16620D1*
X5486Y16591D1*
X5388Y16570D1*
X5289Y16559D1*
X5189Y16556D1*
X5089Y16562D1*
X4990Y16577D1*
X4893Y16601D1*
X4798Y16632D1*
X4707Y16673D1*
X4619Y16721D1*
X4536Y16776D1*
X4458Y16839D1*
X4386Y16908D1*
X4320Y16984D1*
X4257Y17071D1*
Y5810D1*
X4336Y5916D1*
X4403Y5990D1*
X4477Y6057D1*
X4556Y6118D1*
X4640Y6172D1*
X4729Y6218D1*
X4822Y6256D1*
X4917Y6286D1*
X5015Y6307D1*
X5114Y6320D1*
X5214Y6324D1*
X5314Y6319D1*
X5413Y6305D1*
X5510Y6283D1*
X5605Y6252D1*
X5697Y6213D1*
X5785Y6166D1*
X5869Y6111D1*
X5947Y6049D1*
X6020Y5981D1*
X6087Y5906D1*
X6146Y5826D1*
X6199Y5741D1*
X6243Y5651D1*
X6280Y5558D1*
X6308Y5462D1*
X6328Y5364D1*
X6339Y5265D1*
X6340Y5140D1*
X28207Y14389D2*
Y13491D1*
X27758Y13940D2*
X28657D1*
X28207Y13389D2*
Y12491D1*
X27758Y12940D2*
X28657D1*
X9928Y9755D2*
X11486D1*
X9928Y10700D2*
X10707D1*
X9928Y13220D2*
X11486D1*
X21897Y12389D2*
Y11491D1*
X21449Y11940D2*
X22346D1*
D18*
X28207Y13940D3*
Y12940D3*
Y11940D3*
Y10940D3*
Y9940D3*
Y8940D3*
D24*
X10707Y9440D3*
Y9755D3*
Y10070D3*
Y10385D3*
Y10700D3*
Y11015D3*
Y11330D3*
Y11645D3*
Y11960D3*
Y12275D3*
Y12590D3*
Y12905D3*
Y13220D3*
Y13534D3*
D34*
X20897Y11940D3*
Y12940D3*
Y13940D3*
X21897D3*
Y12940D3*
Y11940D3*
M02*
