G04 DipTrace 2.3.0.3*
%INTopSilk.gbr*%
%MOIN*%
%ADD12C,0.003*%
%FSLAX44Y44*%
G04*
G70*
G90*
G75*
G01*
%LNTopSilk*%
%LPD*%
X10527Y9052D2*
D12*
X10602D1*
X10722D2*
X10857D1*
X10506Y9037D2*
X10627D1*
X10699D2*
X10879D1*
X10489Y9022D2*
X10531D1*
X10617D2*
X10652D1*
X10674D2*
X10722D1*
X10854D2*
X10896D1*
X10476Y9007D2*
X10509D1*
X10630D2*
X10708D1*
X10875D2*
X10909D1*
X10466Y8992D2*
X10493D1*
X10640D2*
X10695D1*
X10891D2*
X10918D1*
X10459Y8977D2*
X10482D1*
X10649D2*
X10686D1*
X10902D2*
X10925D1*
X10455Y8962D2*
X10475D1*
X10655D2*
X10681D1*
X10910D2*
X10929D1*
X10454Y8947D2*
X10471D1*
X10659D2*
X10679D1*
X10914D2*
X10931D1*
X10453Y8932D2*
X10469D1*
X10661D2*
X10678D1*
X10916D2*
X10932D1*
X10452Y8917D2*
X10468D1*
X10662D2*
X10677D1*
X10917D2*
X10932D1*
X10452Y8902D2*
X10467D1*
X10662D2*
X10677D1*
X10917D2*
X10932D1*
X10452Y8887D2*
X10467D1*
X10662D2*
X10677D1*
X10917D2*
X10932D1*
X10452Y8872D2*
X10467D1*
X10917D2*
X10932D1*
X10452Y8857D2*
X10467D1*
X10917D2*
X10932D1*
X10452Y8842D2*
X10467D1*
X10917D2*
X10932D1*
X10452Y8707D2*
X10842D1*
X10452Y8692D2*
X10864D1*
X10839Y8677D2*
X10881D1*
X10860Y8662D2*
X10894D1*
X10876Y8647D2*
X10904D1*
X10888Y8632D2*
X10913D1*
X10897Y8617D2*
X10920D1*
X10905Y8602D2*
X10926D1*
X10910Y8587D2*
X10929D1*
X10913Y8572D2*
X10930D1*
X10910Y8557D2*
X10929D1*
X10906Y8542D2*
X10925D1*
X10901Y8527D2*
X10920D1*
X10893Y8512D2*
X10913D1*
X10880Y8497D2*
X10905D1*
X10861Y8482D2*
X10893D1*
X10838Y8467D2*
X10875D1*
X10452Y8452D2*
X10852D1*
X10452Y8437D2*
X10827D1*
X4523Y16145D2*
X4538D1*
X4823D2*
X4838D1*
X4508Y16130D2*
X4543D1*
X4793D2*
X4853D1*
X4517Y16115D2*
X4550D1*
X4763D2*
X4823D1*
X4526Y16100D2*
X4557D1*
X4733D2*
X4793D1*
X4534Y16085D2*
X4564D1*
X4703D2*
X4763D1*
X4541Y16070D2*
X4572D1*
X4672D2*
X4733D1*
X4549Y16055D2*
X4579D1*
X4640D2*
X4703D1*
X4556Y16040D2*
X4588D1*
X4605D2*
X4674D1*
X4564Y16025D2*
X4649D1*
X4571Y16010D2*
X4629D1*
X4579Y15995D2*
X4621D1*
X4587Y15980D2*
X4623D1*
X4595Y15965D2*
X4630D1*
X4604Y15950D2*
X4639D1*
X4616Y15935D2*
X4649D1*
X4629Y15920D2*
X4660D1*
X4283Y15905D2*
X4838D1*
X4268Y15890D2*
X4853D1*
X4283Y15875D2*
X4838D1*
X4463Y15710D2*
X4478D1*
X4823D2*
X4838D1*
X4456Y15695D2*
X4478D1*
X4823D2*
X4845D1*
X4452Y15680D2*
X4478D1*
X4823D2*
X4849D1*
X4449Y15665D2*
X4478D1*
X4823D2*
X4851D1*
X4448Y15650D2*
X4478D1*
X4823D2*
X4852D1*
X4449Y15635D2*
X4478D1*
X4823D2*
X4852D1*
X4450Y15620D2*
X4478D1*
X4822D2*
X4850D1*
X4454Y15605D2*
X4481D1*
X4820D2*
X4847D1*
X4458Y15590D2*
X4487D1*
X4814D2*
X4842D1*
X4463Y15575D2*
X4497D1*
X4804D2*
X4837D1*
X4471Y15560D2*
X4509D1*
X4791D2*
X4830D1*
X4482Y15545D2*
X4523D1*
X4777D2*
X4818D1*
X4497Y15530D2*
X4803D1*
X4516Y15515D2*
X4784D1*
X4538Y15500D2*
X4763D1*
X4553Y15335D2*
X4748D1*
X4526Y15320D2*
X4774D1*
X4504Y15305D2*
X4796D1*
X4489Y15290D2*
X4541D1*
X4763D2*
X4812D1*
X4477Y15275D2*
X4519D1*
X4778D2*
X4823D1*
X4468Y15260D2*
X4504D1*
X4792D2*
X4830D1*
X4460Y15245D2*
X4493D1*
X4805D2*
X4835D1*
X4454Y15230D2*
X4485D1*
X4814D2*
X4839D1*
X4451Y15215D2*
X4481D1*
X4819D2*
X4845D1*
X4450Y15200D2*
X4479D1*
X4820D2*
X4853D1*
X4451Y15185D2*
X4479D1*
X4820D2*
X4846D1*
X4455Y15170D2*
X4481D1*
X4814D2*
X4841D1*
X4460Y15155D2*
X4486D1*
X4803D2*
X4836D1*
X4467Y15140D2*
X4498D1*
X4789D2*
X4830D1*
X4475Y15125D2*
X4517D1*
X4753D2*
X4821D1*
X4485Y15110D2*
X4548D1*
X4695D2*
X4809D1*
X4499Y15095D2*
X4592D1*
X4619D2*
X4793D1*
X4517Y15080D2*
X4772D1*
X4538Y15065D2*
X4748D1*
X4823Y14885D2*
X4853D1*
X4815Y14870D2*
X4847D1*
X4804Y14855D2*
X4840D1*
X4283Y14840D2*
X4831D1*
X4268Y14825D2*
X4820D1*
X4283Y14810D2*
X4808D1*
X4463Y14645D2*
X4478D1*
X4823D2*
X4838D1*
X4456Y14630D2*
X4478D1*
X4823D2*
X4845D1*
X4452Y14615D2*
X4478D1*
X4823D2*
X4849D1*
X4449Y14600D2*
X4478D1*
X4823D2*
X4851D1*
X4448Y14585D2*
X4478D1*
X4823D2*
X4852D1*
X4449Y14570D2*
X4478D1*
X4823D2*
X4852D1*
X4450Y14555D2*
X4478D1*
X4822D2*
X4850D1*
X4454Y14540D2*
X4481D1*
X4820D2*
X4847D1*
X4458Y14525D2*
X4487D1*
X4814D2*
X4842D1*
X4463Y14510D2*
X4497D1*
X4804D2*
X4837D1*
X4471Y14495D2*
X4509D1*
X4791D2*
X4830D1*
X4482Y14480D2*
X4523D1*
X4777D2*
X4818D1*
X4497Y14465D2*
X4803D1*
X4516Y14450D2*
X4784D1*
X4538Y14435D2*
X4763D1*
X4448Y14270D2*
X4958D1*
X4448Y14255D2*
X4979D1*
X4448Y14240D2*
X4996D1*
X4448Y14225D2*
X4478D1*
X4823D2*
X4853D1*
X4954D2*
X5009D1*
X4448Y14210D2*
X4478D1*
X4823D2*
X4853D1*
X4976D2*
X5019D1*
X4448Y14195D2*
X4478D1*
X4823D2*
X4853D1*
X4992D2*
X5026D1*
X4448Y14180D2*
X4478D1*
X4823D2*
X4853D1*
X5003D2*
X5030D1*
X4448Y14165D2*
X4478D1*
X4823D2*
X4853D1*
X5010D2*
X5031D1*
X4448Y14150D2*
X4478D1*
X4823D2*
X4853D1*
X5014D2*
X5032D1*
X4448Y14135D2*
X4478D1*
X4823D2*
X4852D1*
X5016D2*
X5033D1*
X4448Y14120D2*
X4478D1*
X4822D2*
X4850D1*
X5017D2*
X5033D1*
X4450Y14105D2*
X4481D1*
X4820D2*
X4847D1*
X5018D2*
X5033D1*
X4454Y14090D2*
X4487D1*
X4815D2*
X4842D1*
X5018D2*
X5033D1*
X4461Y14075D2*
X4497D1*
X4801D2*
X4837D1*
X5018D2*
X5033D1*
X4470Y14060D2*
X4509D1*
X4782D2*
X4830D1*
X5018D2*
X5033D1*
X4481Y14045D2*
X4523D1*
X4758D2*
X4818D1*
X5018D2*
X5033D1*
X4494Y14030D2*
X4803D1*
X5018D2*
X5033D1*
X4508Y14015D2*
X4784D1*
X4523Y14000D2*
X4763D1*
X4538Y13835D2*
X4838D1*
X4516Y13820D2*
X4853D1*
X4497Y13805D2*
X4838D1*
X4482Y13790D2*
X4523D1*
X4470Y13775D2*
X4508D1*
X4461Y13760D2*
X4496D1*
X4455Y13745D2*
X4487D1*
X4451Y13730D2*
X4482D1*
X4449Y13715D2*
X4479D1*
X4448Y13700D2*
X4478D1*
X4448Y13685D2*
X4478D1*
X4448Y13670D2*
X4478D1*
X4448Y13655D2*
X4478D1*
X4448Y13640D2*
X4478D1*
X4448Y13625D2*
X4478D1*
X4448Y13610D2*
X4478D1*
X4451Y13595D2*
X4838D1*
X4456Y13580D2*
X4853D1*
X4463Y13565D2*
X4838D1*
X4553Y13400D2*
X4748D1*
X4526Y13385D2*
X4774D1*
X4504Y13370D2*
X4796D1*
X4489Y13355D2*
X4541D1*
X4763D2*
X4812D1*
X4477Y13340D2*
X4519D1*
X4778D2*
X4823D1*
X4468Y13325D2*
X4504D1*
X4792D2*
X4830D1*
X4460Y13310D2*
X4493D1*
X4805D2*
X4835D1*
X4454Y13295D2*
X4485D1*
X4814D2*
X4839D1*
X4451Y13280D2*
X4481D1*
X4819D2*
X4845D1*
X4450Y13265D2*
X4479D1*
X4820D2*
X4853D1*
X4451Y13250D2*
X4479D1*
X4820D2*
X4846D1*
X4455Y13235D2*
X4481D1*
X4814D2*
X4841D1*
X4460Y13220D2*
X4486D1*
X4803D2*
X4836D1*
X4467Y13205D2*
X4498D1*
X4789D2*
X4830D1*
X4475Y13190D2*
X4517D1*
X4753D2*
X4821D1*
X4485Y13175D2*
X4548D1*
X4695D2*
X4809D1*
X4499Y13160D2*
X4592D1*
X4619D2*
X4793D1*
X4517Y13145D2*
X4772D1*
X4538Y13130D2*
X4748D1*
X4538Y12965D2*
X4763D1*
X4516Y12950D2*
X4785D1*
X4497Y12935D2*
X4803D1*
X4482Y12920D2*
X4523D1*
X4778D2*
X4818D1*
X4470Y12905D2*
X4508D1*
X4792D2*
X4828D1*
X4461Y12890D2*
X4496D1*
X4805D2*
X4836D1*
X4455Y12875D2*
X4487D1*
X4814D2*
X4842D1*
X4451Y12860D2*
X4482D1*
X4819D2*
X4847D1*
X4449Y12845D2*
X4479D1*
X4821D2*
X4850D1*
X4448Y12830D2*
X4478D1*
X4822D2*
X4852D1*
X4448Y12815D2*
X4478D1*
X4823D2*
X4852D1*
X4448Y12800D2*
X4478D1*
X4823D2*
X4853D1*
X4448Y12785D2*
X4478D1*
X4823D2*
X4853D1*
X4448Y12770D2*
X4478D1*
X4823D2*
X4853D1*
X4448Y12755D2*
X4478D1*
X4823D2*
X4853D1*
X4448Y12740D2*
X4478D1*
X4823D2*
X4853D1*
X4448Y12725D2*
X5033D1*
X4448Y12710D2*
X5033D1*
X4448Y12695D2*
X5033D1*
X4283Y12530D2*
X4298D1*
X4268Y12515D2*
X4330D1*
X4293Y12500D2*
X4364D1*
X4323Y12485D2*
X4398D1*
X4354Y12470D2*
X4431D1*
X4387Y12455D2*
X4464D1*
X4419Y12440D2*
X4498D1*
X4454Y12425D2*
X4533D1*
X4488Y12410D2*
X4565D1*
X4520Y12395D2*
X4597D1*
X4552Y12380D2*
X4630D1*
X4585Y12365D2*
X4664D1*
X4619Y12350D2*
X4698D1*
X4653Y12335D2*
X4731D1*
X4686Y12320D2*
X4764D1*
X4719Y12305D2*
X4796D1*
X4754Y12290D2*
X4825D1*
X4788Y12275D2*
X4853D1*
X4823Y12260D2*
X4838D1*
X4538Y12110D2*
X4838D1*
X4516Y12095D2*
X4853D1*
X4497Y12080D2*
X4838D1*
X4482Y12065D2*
X4523D1*
X4470Y12050D2*
X4510D1*
X4461Y12035D2*
X4499D1*
X4455Y12020D2*
X4491D1*
X4451Y12005D2*
X4485D1*
X4449Y11990D2*
X4481D1*
X4448Y11975D2*
X4479D1*
X4448Y11960D2*
X4478D1*
X4448Y11945D2*
X4478D1*
X4448Y11930D2*
X4478D1*
X4448Y11915D2*
X4838D1*
X4448Y11900D2*
X4853D1*
X4448Y11885D2*
X4838D1*
X4448Y11870D2*
X4478D1*
X4448Y11855D2*
X4478D1*
X4448Y11840D2*
X4478D1*
X4448Y11825D2*
X4478D1*
X4448Y11810D2*
X4478D1*
X4448Y11795D2*
X4478D1*
X4448Y11780D2*
X4478D1*
X4448Y11765D2*
X4478D1*
X4448Y11750D2*
X4478D1*
X4448Y11735D2*
X4838D1*
X4448Y11720D2*
X4853D1*
X4448Y11705D2*
X4838D1*
X4553Y11540D2*
X4748D1*
X4526Y11525D2*
X4774D1*
X4504Y11510D2*
X4796D1*
X4489Y11495D2*
X4541D1*
X4763D2*
X4812D1*
X4477Y11480D2*
X4519D1*
X4778D2*
X4823D1*
X4468Y11465D2*
X4504D1*
X4792D2*
X4830D1*
X4460Y11450D2*
X4493D1*
X4805D2*
X4835D1*
X4454Y11435D2*
X4485D1*
X4814D2*
X4839D1*
X4451Y11420D2*
X4481D1*
X4819D2*
X4845D1*
X4450Y11405D2*
X4479D1*
X4820D2*
X4853D1*
X4451Y11390D2*
X4479D1*
X4820D2*
X4846D1*
X4455Y11375D2*
X4481D1*
X4814D2*
X4841D1*
X4460Y11360D2*
X4486D1*
X4803D2*
X4836D1*
X4467Y11345D2*
X4498D1*
X4789D2*
X4830D1*
X4475Y11330D2*
X4517D1*
X4753D2*
X4821D1*
X4485Y11315D2*
X4548D1*
X4695D2*
X4809D1*
X4499Y11300D2*
X4592D1*
X4619D2*
X4793D1*
X4517Y11285D2*
X4772D1*
X4538Y11270D2*
X4748D1*
X4463Y11105D2*
X4478D1*
X4823D2*
X4838D1*
X4456Y11090D2*
X4478D1*
X4823D2*
X4845D1*
X4452Y11075D2*
X4478D1*
X4823D2*
X4849D1*
X4449Y11060D2*
X4478D1*
X4823D2*
X4851D1*
X4448Y11045D2*
X4478D1*
X4823D2*
X4852D1*
X4449Y11030D2*
X4478D1*
X4823D2*
X4852D1*
X4450Y11015D2*
X4478D1*
X4822D2*
X4850D1*
X4454Y11000D2*
X4481D1*
X4820D2*
X4847D1*
X4458Y10985D2*
X4487D1*
X4814D2*
X4842D1*
X4463Y10970D2*
X4497D1*
X4804D2*
X4837D1*
X4471Y10955D2*
X4509D1*
X4791D2*
X4830D1*
X4482Y10940D2*
X4523D1*
X4777D2*
X4818D1*
X4497Y10925D2*
X4803D1*
X4516Y10910D2*
X4784D1*
X4538Y10895D2*
X4763D1*
X4793Y10745D2*
X4838D1*
X4793Y10730D2*
X4853D1*
X4793Y10715D2*
X4838D1*
X4448Y10550D2*
X4478D1*
X4448Y10535D2*
X4478D1*
X4448Y10520D2*
X4478D1*
X4448Y10505D2*
X4478D1*
X4448Y10490D2*
X4478D1*
X4448Y10475D2*
X4478D1*
X4448Y10460D2*
X4478D1*
X4448Y10445D2*
X4478D1*
X4366Y10430D2*
X4838D1*
X4310Y10415D2*
X4853D1*
X4268Y10400D2*
X4838D1*
X4448Y10385D2*
X4478D1*
X4448Y10370D2*
X4478D1*
X4448Y10355D2*
X4478D1*
X4448Y10340D2*
X4478D1*
X4448Y10175D2*
X4478D1*
X4448Y10160D2*
X4478D1*
X4448Y10145D2*
X4478D1*
X4448Y10130D2*
X4478D1*
X4448Y10115D2*
X4478D1*
X4448Y10100D2*
X4478D1*
X4448Y10085D2*
X4478D1*
X4448Y10070D2*
X4478D1*
X4366Y10055D2*
X4838D1*
X4310Y10040D2*
X4853D1*
X4268Y10025D2*
X4838D1*
X4448Y10010D2*
X4478D1*
X4448Y9995D2*
X4478D1*
X4448Y9980D2*
X4478D1*
X4448Y9965D2*
X4478D1*
X4553Y9800D2*
X4658D1*
X4823D2*
X4838D1*
X4524Y9785D2*
X4658D1*
X4823D2*
X4845D1*
X4503Y9770D2*
X4658D1*
X4823D2*
X4849D1*
X4488Y9755D2*
X4523D1*
X4643D2*
X4658D1*
X4823D2*
X4851D1*
X4476Y9740D2*
X4510D1*
X4643D2*
X4658D1*
X4823D2*
X4852D1*
X4468Y9725D2*
X4499D1*
X4643D2*
X4658D1*
X4823D2*
X4853D1*
X4460Y9710D2*
X4491D1*
X4643D2*
X4658D1*
X4823D2*
X4853D1*
X4454Y9695D2*
X4485D1*
X4643D2*
X4658D1*
X4823D2*
X4853D1*
X4451Y9680D2*
X4481D1*
X4643D2*
X4658D1*
X4823D2*
X4853D1*
X4450Y9665D2*
X4480D1*
X4643D2*
X4658D1*
X4823D2*
X4853D1*
X4451Y9650D2*
X4480D1*
X4643D2*
X4658D1*
X4822D2*
X4852D1*
X4455Y9635D2*
X4487D1*
X4643D2*
X4658D1*
X4820D2*
X4850D1*
X4460Y9620D2*
X4497D1*
X4643D2*
X4658D1*
X4815D2*
X4847D1*
X4467Y9605D2*
X4513D1*
X4643D2*
X4658D1*
X4803D2*
X4842D1*
X4475Y9590D2*
X4541D1*
X4643D2*
X4658D1*
X4771D2*
X4837D1*
X4485Y9575D2*
X4586D1*
X4643D2*
X4658D1*
X4721D2*
X4829D1*
X4499Y9560D2*
X4816D1*
X4517Y9545D2*
X4798D1*
X4538Y9530D2*
X4778D1*
X4463Y9365D2*
X4538D1*
X4456Y9350D2*
X4526D1*
X4452Y9335D2*
X4510D1*
X4449Y9320D2*
X4496D1*
X4448Y9305D2*
X4484D1*
X4448Y9290D2*
X4481D1*
X4448Y9275D2*
X4479D1*
X4448Y9260D2*
X4478D1*
X4448Y9245D2*
X4478D1*
X4448Y9230D2*
X4478D1*
X4448Y9215D2*
X4478D1*
X4448Y9200D2*
X4478D1*
X4448Y9185D2*
X4838D1*
X4448Y9170D2*
X4853D1*
X4448Y9155D2*
X4838D1*
X4463Y8990D2*
X4538D1*
X4456Y8975D2*
X4526D1*
X4452Y8960D2*
X4510D1*
X4449Y8945D2*
X4496D1*
X4448Y8930D2*
X4484D1*
X4448Y8915D2*
X4481D1*
X4448Y8900D2*
X4479D1*
X4448Y8885D2*
X4478D1*
X4448Y8870D2*
X4478D1*
X4448Y8855D2*
X4478D1*
X4448Y8840D2*
X4478D1*
X4448Y8825D2*
X4478D1*
X4448Y8810D2*
X4838D1*
X4448Y8795D2*
X4853D1*
X4448Y8780D2*
X4838D1*
X4538Y8615D2*
X4838D1*
X4516Y8600D2*
X4845D1*
X4497Y8585D2*
X4849D1*
X4482Y8570D2*
X4541D1*
X4643D2*
X4658D1*
X4823D2*
X4851D1*
X4470Y8555D2*
X4518D1*
X4643D2*
X4658D1*
X4823D2*
X4852D1*
X4461Y8540D2*
X4500D1*
X4643D2*
X4658D1*
X4823D2*
X4853D1*
X4455Y8525D2*
X4487D1*
X4643D2*
X4658D1*
X4823D2*
X4853D1*
X4451Y8510D2*
X4482D1*
X4643D2*
X4658D1*
X4823D2*
X4853D1*
X4449Y8495D2*
X4480D1*
X4643D2*
X4658D1*
X4823D2*
X4853D1*
X4448Y8480D2*
X4478D1*
X4643D2*
X4658D1*
X4823D2*
X4853D1*
X4448Y8465D2*
X4478D1*
X4643D2*
X4658D1*
X4823D2*
X4852D1*
X4448Y8450D2*
X4478D1*
X4643D2*
X4660D1*
X4822D2*
X4850D1*
X4448Y8435D2*
X4478D1*
X4643D2*
X4665D1*
X4821D2*
X4846D1*
X4448Y8420D2*
X4478D1*
X4645D2*
X4672D1*
X4814D2*
X4840D1*
X4451Y8405D2*
X4478D1*
X4650D2*
X4691D1*
X4787D2*
X4833D1*
X4456Y8390D2*
X4478D1*
X4656D2*
X4737D1*
X4743D2*
X4825D1*
X4463Y8375D2*
X4478D1*
X4667D2*
X4813D1*
X4684Y8360D2*
X4797D1*
X4703Y8345D2*
X4778D1*
X4538Y8180D2*
X4763D1*
X4516Y8165D2*
X4785D1*
X4497Y8150D2*
X4803D1*
X4482Y8135D2*
X4523D1*
X4778D2*
X4818D1*
X4470Y8120D2*
X4508D1*
X4792D2*
X4828D1*
X4461Y8105D2*
X4496D1*
X4805D2*
X4836D1*
X4455Y8090D2*
X4487D1*
X4814D2*
X4842D1*
X4451Y8075D2*
X4482D1*
X4819D2*
X4847D1*
X4449Y8060D2*
X4479D1*
X4821D2*
X4850D1*
X4448Y8045D2*
X4478D1*
X4822D2*
X4852D1*
X4448Y8030D2*
X4478D1*
X4823D2*
X4852D1*
X4448Y8015D2*
X4478D1*
X4823D2*
X4853D1*
X4448Y8000D2*
X4478D1*
X4823D2*
X4853D1*
X4448Y7985D2*
X4478D1*
X4823D2*
X4853D1*
X4448Y7970D2*
X4478D1*
X4823D2*
X4853D1*
X4448Y7955D2*
X4478D1*
X4823D2*
X4853D1*
X4448Y7940D2*
X5033D1*
X4448Y7925D2*
X5033D1*
X4448Y7910D2*
X5033D1*
X4538Y7745D2*
X4763D1*
X4516Y7730D2*
X4785D1*
X4497Y7715D2*
X4803D1*
X4482Y7700D2*
X4523D1*
X4777D2*
X4818D1*
X4470Y7685D2*
X4508D1*
X4790D2*
X4828D1*
X4461Y7670D2*
X4496D1*
X4801D2*
X4836D1*
X4455Y7655D2*
X4487D1*
X4810D2*
X4842D1*
X4451Y7640D2*
X4482D1*
X4816D2*
X4847D1*
X4449Y7625D2*
X4479D1*
X4820D2*
X4850D1*
X4448Y7610D2*
X4478D1*
X4821D2*
X4852D1*
X4448Y7595D2*
X4478D1*
X4822D2*
X4852D1*
X4448Y7580D2*
X4478D1*
X4823D2*
X4853D1*
X4448Y7565D2*
X4478D1*
X4823D2*
X4853D1*
X4448Y7550D2*
X4478D1*
X4823D2*
X4853D1*
X4448Y7535D2*
X4478D1*
X4823D2*
X4853D1*
X4448Y7520D2*
X4478D1*
X4823D2*
X4852D1*
X4353Y7505D2*
X4850D1*
X4268Y7490D2*
X4845D1*
X4283Y7475D2*
X4838D1*
X4553Y7310D2*
X4748D1*
X4526Y7295D2*
X4774D1*
X4504Y7280D2*
X4796D1*
X4489Y7265D2*
X4541D1*
X4763D2*
X4812D1*
X4477Y7250D2*
X4519D1*
X4778D2*
X4823D1*
X4468Y7235D2*
X4504D1*
X4792D2*
X4830D1*
X4460Y7220D2*
X4493D1*
X4805D2*
X4835D1*
X4454Y7205D2*
X4485D1*
X4814D2*
X4839D1*
X4451Y7190D2*
X4481D1*
X4819D2*
X4845D1*
X4450Y7175D2*
X4479D1*
X4820D2*
X4853D1*
X4451Y7160D2*
X4479D1*
X4820D2*
X4846D1*
X4455Y7145D2*
X4481D1*
X4814D2*
X4841D1*
X4460Y7130D2*
X4486D1*
X4803D2*
X4836D1*
X4467Y7115D2*
X4498D1*
X4789D2*
X4830D1*
X4475Y7100D2*
X4517D1*
X4753D2*
X4821D1*
X4485Y7085D2*
X4548D1*
X4695D2*
X4809D1*
X4499Y7070D2*
X4592D1*
X4619D2*
X4793D1*
X4517Y7055D2*
X4772D1*
X4538Y7040D2*
X4748D1*
X4463Y6875D2*
X4538D1*
X4456Y6860D2*
X4526D1*
X4452Y6845D2*
X4510D1*
X4449Y6830D2*
X4496D1*
X4448Y6815D2*
X4484D1*
X4448Y6800D2*
X4481D1*
X4448Y6785D2*
X4479D1*
X4448Y6770D2*
X4478D1*
X4448Y6755D2*
X4478D1*
X4448Y6740D2*
X4478D1*
X4448Y6725D2*
X4478D1*
X4448Y6710D2*
X4478D1*
X4448Y6695D2*
X4838D1*
X4448Y6680D2*
X4853D1*
X4448Y6665D2*
X4838D1*
X5289Y16109D2*
X5364D1*
X5529D2*
X5664D1*
X5260Y16094D2*
X5387D1*
X5506D2*
X5689D1*
X5239Y16079D2*
X5411D1*
X5482D2*
X5708D1*
X5224Y16064D2*
X5277D1*
X5361D2*
X5438D1*
X5454D2*
X5517D1*
X5679D2*
X5724D1*
X5213Y16049D2*
X5255D1*
X5384D2*
X5495D1*
X5694D2*
X5736D1*
X5204Y16034D2*
X5240D1*
X5401D2*
X5480D1*
X5708D2*
X5746D1*
X5196Y16019D2*
X5229D1*
X5415D2*
X5469D1*
X5721D2*
X5752D1*
X5190Y16004D2*
X5221D1*
X5419D2*
X5461D1*
X5730D2*
X5758D1*
X5187Y15989D2*
X5217D1*
X5422D2*
X5457D1*
X5735D2*
X5763D1*
X5185Y15974D2*
X5215D1*
X5423D2*
X5455D1*
X5737D2*
X5766D1*
X5184Y15959D2*
X5214D1*
X5424D2*
X5454D1*
X5738D2*
X5768D1*
X5184Y15944D2*
X5214D1*
X5424D2*
X5454D1*
X5739D2*
X5768D1*
X5184Y15929D2*
X5214D1*
X5427D2*
X5454D1*
X5739D2*
X5769D1*
X5184Y15914D2*
X5214D1*
X5432D2*
X5454D1*
X5739D2*
X5769D1*
X5184Y15899D2*
X5214D1*
X5439D2*
X5454D1*
X5739D2*
X5769D1*
X5184Y15884D2*
X5214D1*
X5739D2*
X5768D1*
X5184Y15869D2*
X5214D1*
X5739D2*
X5766D1*
X5184Y15854D2*
X5214D1*
X5739D2*
X5761D1*
X5184Y15839D2*
X5214D1*
X5739D2*
X5754D1*
X5454Y15674D2*
X5754D1*
X5432Y15659D2*
X5769D1*
X5413Y15644D2*
X5754D1*
X5398Y15629D2*
X5439D1*
X5386Y15614D2*
X5424D1*
X5377Y15599D2*
X5412D1*
X5371Y15584D2*
X5403D1*
X5367Y15569D2*
X5398D1*
X5365Y15554D2*
X5395D1*
X5364Y15539D2*
X5394D1*
X5364Y15524D2*
X5394D1*
X5364Y15509D2*
X5394D1*
X5364Y15494D2*
X5394D1*
X5364Y15479D2*
X5394D1*
X5364Y15464D2*
X5394D1*
X5364Y15449D2*
X5394D1*
X5367Y15434D2*
X5754D1*
X5372Y15419D2*
X5769D1*
X5379Y15404D2*
X5754D1*
X5469Y15239D2*
X5664D1*
X5442Y15224D2*
X5690D1*
X5420Y15209D2*
X5712D1*
X5405Y15194D2*
X5457D1*
X5679D2*
X5728D1*
X5393Y15179D2*
X5435D1*
X5694D2*
X5739D1*
X5384Y15164D2*
X5420D1*
X5708D2*
X5746D1*
X5376Y15149D2*
X5409D1*
X5721D2*
X5751D1*
X5370Y15134D2*
X5401D1*
X5730D2*
X5755D1*
X5367Y15119D2*
X5397D1*
X5735D2*
X5761D1*
X5366Y15104D2*
X5395D1*
X5736D2*
X5769D1*
X5367Y15089D2*
X5395D1*
X5736D2*
X5762D1*
X5371Y15074D2*
X5397D1*
X5730D2*
X5757D1*
X5376Y15059D2*
X5402D1*
X5719D2*
X5752D1*
X5383Y15044D2*
X5414D1*
X5705D2*
X5746D1*
X5391Y15029D2*
X5433D1*
X5669D2*
X5737D1*
X5401Y15014D2*
X5464D1*
X5611D2*
X5725D1*
X5415Y14999D2*
X5508D1*
X5535D2*
X5709D1*
X5433Y14984D2*
X5688D1*
X5454Y14969D2*
X5664D1*
X5199Y14819D2*
X5229D1*
X5379D2*
X5754D1*
X5184Y14804D2*
X5244D1*
X5364D2*
X5769D1*
X5199Y14789D2*
X5229D1*
X5379D2*
X5754D1*
X5634Y14624D2*
X5709D1*
X5619Y14609D2*
X5723D1*
X5409Y14594D2*
X5424D1*
X5606D2*
X5654D1*
X5690D2*
X5736D1*
X5400Y14579D2*
X5421D1*
X5595D2*
X5635D1*
X5711D2*
X5745D1*
X5391Y14564D2*
X5418D1*
X5586D2*
X5620D1*
X5728D2*
X5752D1*
X5385Y14549D2*
X5413D1*
X5578D2*
X5610D1*
X5733D2*
X5758D1*
X5382Y14534D2*
X5409D1*
X5570D2*
X5601D1*
X5737D2*
X5763D1*
X5379Y14519D2*
X5404D1*
X5563D2*
X5593D1*
X5738D2*
X5765D1*
X5377Y14504D2*
X5399D1*
X5555D2*
X5585D1*
X5738D2*
X5765D1*
X5373Y14489D2*
X5396D1*
X5548D2*
X5578D1*
X5738D2*
X5762D1*
X5369Y14474D2*
X5395D1*
X5540D2*
X5570D1*
X5736D2*
X5759D1*
X5367Y14459D2*
X5394D1*
X5533D2*
X5563D1*
X5733D2*
X5756D1*
X5367Y14444D2*
X5395D1*
X5525D2*
X5555D1*
X5729D2*
X5754D1*
X5371Y14429D2*
X5396D1*
X5516D2*
X5548D1*
X5726D2*
X5752D1*
X5376Y14414D2*
X5404D1*
X5504D2*
X5540D1*
X5722D2*
X5748D1*
X5384Y14399D2*
X5424D1*
X5484D2*
X5531D1*
X5718D2*
X5743D1*
X5394Y14384D2*
X5452D1*
X5456D2*
X5520D1*
X5714D2*
X5738D1*
X5407Y14369D2*
X5503D1*
X5711D2*
X5732D1*
X5424Y14354D2*
X5484D1*
X5709D2*
X5724D1*
X5199Y14204D2*
X5229D1*
X5379D2*
X5754D1*
X5184Y14189D2*
X5244D1*
X5364D2*
X5769D1*
X5199Y14174D2*
X5229D1*
X5379D2*
X5754D1*
X5364Y14009D2*
X5394D1*
X5375Y13994D2*
X5439D1*
X5400Y13979D2*
X5484D1*
X5433Y13964D2*
X5529D1*
X5473Y13949D2*
X5574D1*
X5515Y13934D2*
X5619D1*
X5559Y13919D2*
X5663D1*
X5604Y13904D2*
X5703D1*
X5649Y13889D2*
X5738D1*
X5694Y13874D2*
X5769D1*
X5649Y13859D2*
X5738D1*
X5604Y13844D2*
X5701D1*
X5559Y13829D2*
X5661D1*
X5514Y13814D2*
X5618D1*
X5470Y13799D2*
X5573D1*
X5430Y13784D2*
X5529D1*
X5395Y13769D2*
X5484D1*
X5364Y13754D2*
X5439D1*
X5379Y13739D2*
X5394D1*
X5469Y13574D2*
X5574D1*
X5739D2*
X5754D1*
X5440Y13559D2*
X5574D1*
X5739D2*
X5761D1*
X5419Y13544D2*
X5574D1*
X5739D2*
X5765D1*
X5404Y13529D2*
X5439D1*
X5559D2*
X5574D1*
X5739D2*
X5767D1*
X5393Y13514D2*
X5426D1*
X5559D2*
X5574D1*
X5739D2*
X5768D1*
X5384Y13499D2*
X5416D1*
X5559D2*
X5574D1*
X5739D2*
X5769D1*
X5376Y13484D2*
X5407D1*
X5559D2*
X5574D1*
X5739D2*
X5769D1*
X5370Y13469D2*
X5401D1*
X5559D2*
X5574D1*
X5739D2*
X5769D1*
X5367Y13454D2*
X5397D1*
X5559D2*
X5574D1*
X5739D2*
X5769D1*
X5366Y13439D2*
X5396D1*
X5559D2*
X5574D1*
X5739D2*
X5769D1*
X5367Y13424D2*
X5396D1*
X5559D2*
X5574D1*
X5738D2*
X5768D1*
X5371Y13409D2*
X5403D1*
X5559D2*
X5574D1*
X5736D2*
X5766D1*
X5376Y13394D2*
X5413D1*
X5559D2*
X5574D1*
X5731D2*
X5763D1*
X5383Y13379D2*
X5429D1*
X5559D2*
X5574D1*
X5719D2*
X5758D1*
X5391Y13364D2*
X5457D1*
X5559D2*
X5574D1*
X5687D2*
X5753D1*
X5401Y13349D2*
X5502D1*
X5559D2*
X5574D1*
X5637D2*
X5745D1*
X5415Y13334D2*
X5732D1*
X5433Y13319D2*
X5714D1*
X5454Y13304D2*
X5694D1*
X5379Y13139D2*
X5454D1*
X5372Y13124D2*
X5442D1*
X5368Y13109D2*
X5426D1*
X5365Y13094D2*
X5412D1*
X5364Y13079D2*
X5400D1*
X5364Y13064D2*
X5397D1*
X5364Y13049D2*
X5395D1*
X5364Y13034D2*
X5394D1*
X5364Y13019D2*
X5394D1*
X5364Y13004D2*
X5394D1*
X5364Y12989D2*
X5394D1*
X5364Y12974D2*
X5394D1*
X5364Y12959D2*
X5754D1*
X5364Y12944D2*
X5769D1*
X5364Y12929D2*
X5754D1*
X10527Y9052D2*
X10506Y9037D1*
X10489Y9022D1*
X10476Y9007D1*
X10466Y8992D1*
X10459Y8977D1*
X10455Y8962D1*
X10454Y8947D1*
X10453Y8932D1*
X10452Y8917D1*
Y8902D1*
Y8887D1*
Y8872D1*
Y8857D1*
Y8842D1*
X10602Y9052D2*
X10627Y9037D1*
X10652Y9022D1*
X10677Y9007D1*
X10722Y9052D2*
X10699Y9037D1*
X10674Y9022D1*
X10647Y9007D1*
X10857Y9052D2*
X10879Y9037D1*
X10896Y9022D1*
X10909Y9007D1*
X10918Y8992D1*
X10925Y8977D1*
X10929Y8962D1*
X10931Y8947D1*
X10932Y8932D1*
Y8917D1*
Y8902D1*
Y8887D1*
Y8872D1*
Y8857D1*
Y8842D1*
X10557Y9037D2*
X10531Y9022D1*
X10509Y9007D1*
X10493Y8992D1*
X10482Y8977D1*
X10475Y8962D1*
X10471Y8947D1*
X10469Y8932D1*
X10468Y8917D1*
X10467Y8902D1*
Y8887D1*
Y8872D1*
Y8857D1*
Y8842D1*
X10602Y9037D2*
X10617Y9022D1*
X10630Y9007D1*
X10640Y8992D1*
X10649Y8977D1*
X10655Y8962D1*
X10659Y8947D1*
X10661Y8932D1*
X10662Y8917D1*
Y8902D1*
Y8887D1*
X10737Y9037D2*
X10722Y9022D1*
X10708Y9007D1*
X10695Y8992D1*
X10686Y8977D1*
X10681Y8962D1*
X10679Y8947D1*
X10678Y8932D1*
X10677Y8917D1*
Y8902D1*
Y8887D1*
X10827Y9037D2*
X10854Y9022D1*
X10875Y9007D1*
X10891Y8992D1*
X10902Y8977D1*
X10910Y8962D1*
X10914Y8947D1*
X10916Y8932D1*
X10917Y8917D1*
Y8902D1*
Y8887D1*
Y8872D1*
Y8857D1*
Y8842D1*
X10452Y8707D2*
Y8692D1*
X10842Y8707D2*
X10864Y8692D1*
X10881Y8677D1*
X10894Y8662D1*
X10904Y8647D1*
X10913Y8632D1*
X10920Y8617D1*
X10926Y8602D1*
X10929Y8587D1*
X10930Y8572D1*
X10929Y8557D1*
X10925Y8542D1*
X10920Y8527D1*
X10913Y8512D1*
X10905Y8497D1*
X10893Y8482D1*
X10875Y8467D1*
X10852Y8452D1*
X10827Y8437D1*
X10812Y8692D2*
X10839Y8677D1*
X10860Y8662D1*
X10876Y8647D1*
X10888Y8632D1*
X10897Y8617D1*
X10905Y8602D1*
X10910Y8587D1*
X10913Y8572D1*
X10910Y8557D1*
X10906Y8542D1*
X10901Y8527D1*
X10893Y8512D1*
X10880Y8497D1*
X10861Y8482D1*
X10838Y8467D1*
X10812Y8452D1*
X10452D2*
Y8437D1*
X4523Y16145D2*
X4508Y16130D1*
X4517Y16115D1*
X4526Y16100D1*
X4534Y16085D1*
X4541Y16070D1*
X4549Y16055D1*
X4556Y16040D1*
X4564Y16025D1*
X4571Y16010D1*
X4579Y15995D1*
X4587Y15980D1*
X4595Y15965D1*
X4604Y15950D1*
X4616Y15935D1*
X4629Y15920D1*
X4643Y15905D1*
X4538Y16145D2*
X4543Y16130D1*
X4550Y16115D1*
X4557Y16100D1*
X4564Y16085D1*
X4572Y16070D1*
X4579Y16055D1*
X4588Y16040D1*
X4598Y16025D1*
X4823Y16145D2*
X4793Y16130D1*
X4763Y16115D1*
X4733Y16100D1*
X4703Y16085D1*
X4672Y16070D1*
X4640Y16055D1*
X4605Y16040D1*
X4568Y16025D1*
X4838Y16145D2*
X4853Y16130D1*
X4823Y16115D1*
X4793Y16100D1*
X4763Y16085D1*
X4733Y16070D1*
X4703Y16055D1*
X4674Y16040D1*
X4649Y16025D1*
X4629Y16010D1*
X4621Y15995D1*
X4623Y15980D1*
X4630Y15965D1*
X4639Y15950D1*
X4649Y15935D1*
X4660Y15920D1*
X4673Y15905D1*
X4283D2*
X4268Y15890D1*
X4283Y15875D1*
X4838Y15905D2*
X4853Y15890D1*
X4838Y15875D1*
X4463Y15710D2*
X4456Y15695D1*
X4452Y15680D1*
X4449Y15665D1*
X4448Y15650D1*
X4449Y15635D1*
X4450Y15620D1*
X4454Y15605D1*
X4458Y15590D1*
X4463Y15575D1*
X4471Y15560D1*
X4482Y15545D1*
X4497Y15530D1*
X4516Y15515D1*
X4538Y15500D1*
X4478Y15710D2*
Y15695D1*
Y15680D1*
Y15665D1*
Y15650D1*
Y15635D1*
Y15620D1*
X4481Y15605D1*
X4487Y15590D1*
X4497Y15575D1*
X4509Y15560D1*
X4523Y15545D1*
X4538Y15530D1*
X4823Y15710D2*
Y15695D1*
Y15680D1*
Y15665D1*
Y15650D1*
Y15635D1*
X4822Y15620D1*
X4820Y15605D1*
X4814Y15590D1*
X4804Y15575D1*
X4791Y15560D1*
X4777Y15545D1*
X4763Y15530D1*
X4838Y15710D2*
X4845Y15695D1*
X4849Y15680D1*
X4851Y15665D1*
X4852Y15650D1*
Y15635D1*
X4850Y15620D1*
X4847Y15605D1*
X4842Y15590D1*
X4837Y15575D1*
X4830Y15560D1*
X4818Y15545D1*
X4803Y15530D1*
X4784Y15515D1*
X4763Y15500D1*
X4553Y15335D2*
X4526Y15320D1*
X4504Y15305D1*
X4489Y15290D1*
X4477Y15275D1*
X4468Y15260D1*
X4460Y15245D1*
X4454Y15230D1*
X4451Y15215D1*
X4450Y15200D1*
X4451Y15185D1*
X4455Y15170D1*
X4460Y15155D1*
X4467Y15140D1*
X4475Y15125D1*
X4485Y15110D1*
X4499Y15095D1*
X4517Y15080D1*
X4538Y15065D1*
X4748Y15335D2*
X4774Y15320D1*
X4796Y15305D1*
X4812Y15290D1*
X4823Y15275D1*
X4830Y15260D1*
X4835Y15245D1*
X4839Y15230D1*
X4845Y15215D1*
X4853Y15200D1*
X4846Y15185D1*
X4841Y15170D1*
X4836Y15155D1*
X4830Y15140D1*
X4821Y15125D1*
X4809Y15110D1*
X4793Y15095D1*
X4772Y15080D1*
X4748Y15065D1*
X4568Y15305D2*
X4541Y15290D1*
X4519Y15275D1*
X4504Y15260D1*
X4493Y15245D1*
X4485Y15230D1*
X4481Y15215D1*
X4479Y15200D1*
Y15185D1*
X4481Y15170D1*
X4486Y15155D1*
X4498Y15140D1*
X4517Y15125D1*
X4548Y15110D1*
X4592Y15095D1*
X4643Y15080D1*
X4748Y15305D2*
X4763Y15290D1*
X4778Y15275D1*
X4792Y15260D1*
X4805Y15245D1*
X4814Y15230D1*
X4819Y15215D1*
X4820Y15200D1*
Y15185D1*
X4814Y15170D1*
X4803Y15155D1*
X4789Y15140D1*
X4753Y15125D1*
X4695Y15110D1*
X4619Y15095D1*
X4538Y15080D1*
X4823Y14885D2*
X4815Y14870D1*
X4804Y14855D1*
X4793Y14840D1*
X4853Y14885D2*
X4847Y14870D1*
X4840Y14855D1*
X4831Y14840D1*
X4820Y14825D1*
X4808Y14810D1*
X4283Y14840D2*
X4268Y14825D1*
X4283Y14810D1*
X4463Y14645D2*
X4456Y14630D1*
X4452Y14615D1*
X4449Y14600D1*
X4448Y14585D1*
X4449Y14570D1*
X4450Y14555D1*
X4454Y14540D1*
X4458Y14525D1*
X4463Y14510D1*
X4471Y14495D1*
X4482Y14480D1*
X4497Y14465D1*
X4516Y14450D1*
X4538Y14435D1*
X4478Y14645D2*
Y14630D1*
Y14615D1*
Y14600D1*
Y14585D1*
Y14570D1*
Y14555D1*
X4481Y14540D1*
X4487Y14525D1*
X4497Y14510D1*
X4509Y14495D1*
X4523Y14480D1*
X4538Y14465D1*
X4823Y14645D2*
Y14630D1*
Y14615D1*
Y14600D1*
Y14585D1*
Y14570D1*
X4822Y14555D1*
X4820Y14540D1*
X4814Y14525D1*
X4804Y14510D1*
X4791Y14495D1*
X4777Y14480D1*
X4763Y14465D1*
X4838Y14645D2*
X4845Y14630D1*
X4849Y14615D1*
X4851Y14600D1*
X4852Y14585D1*
Y14570D1*
X4850Y14555D1*
X4847Y14540D1*
X4842Y14525D1*
X4837Y14510D1*
X4830Y14495D1*
X4818Y14480D1*
X4803Y14465D1*
X4784Y14450D1*
X4763Y14435D1*
X4448Y14270D2*
Y14255D1*
Y14240D1*
Y14225D1*
Y14210D1*
Y14195D1*
Y14180D1*
Y14165D1*
Y14150D1*
Y14135D1*
Y14120D1*
X4450Y14105D1*
X4454Y14090D1*
X4461Y14075D1*
X4470Y14060D1*
X4481Y14045D1*
X4494Y14030D1*
X4508Y14015D1*
X4523Y14000D1*
X4958Y14270D2*
X4979Y14255D1*
X4996Y14240D1*
X5009Y14225D1*
X5019Y14210D1*
X5026Y14195D1*
X5030Y14180D1*
X5031Y14165D1*
X5032Y14150D1*
X5033Y14135D1*
Y14120D1*
Y14105D1*
Y14090D1*
Y14075D1*
Y14060D1*
Y14045D1*
Y14030D1*
X4478Y14240D2*
Y14225D1*
Y14210D1*
Y14195D1*
Y14180D1*
Y14165D1*
Y14150D1*
Y14135D1*
Y14120D1*
X4481Y14105D1*
X4487Y14090D1*
X4497Y14075D1*
X4509Y14060D1*
X4523Y14045D1*
X4538Y14030D1*
X4823Y14240D2*
Y14225D1*
Y14210D1*
Y14195D1*
Y14180D1*
Y14165D1*
Y14150D1*
Y14135D1*
X4822Y14120D1*
X4820Y14105D1*
X4815Y14090D1*
X4801Y14075D1*
X4782Y14060D1*
X4758Y14045D1*
X4733Y14030D1*
X4853Y14240D2*
Y14225D1*
Y14210D1*
Y14195D1*
Y14180D1*
Y14165D1*
Y14150D1*
X4852Y14135D1*
X4850Y14120D1*
X4847Y14105D1*
X4842Y14090D1*
X4837Y14075D1*
X4830Y14060D1*
X4818Y14045D1*
X4803Y14030D1*
X4784Y14015D1*
X4763Y14000D1*
X4928Y14240D2*
X4954Y14225D1*
X4976Y14210D1*
X4992Y14195D1*
X5003Y14180D1*
X5010Y14165D1*
X5014Y14150D1*
X5016Y14135D1*
X5017Y14120D1*
X5018Y14105D1*
Y14090D1*
Y14075D1*
Y14060D1*
Y14045D1*
Y14030D1*
X4538Y13835D2*
X4516Y13820D1*
X4497Y13805D1*
X4482Y13790D1*
X4470Y13775D1*
X4461Y13760D1*
X4455Y13745D1*
X4451Y13730D1*
X4449Y13715D1*
X4448Y13700D1*
Y13685D1*
Y13670D1*
Y13655D1*
Y13640D1*
Y13625D1*
Y13610D1*
X4451Y13595D1*
X4456Y13580D1*
X4463Y13565D1*
X4838Y13835D2*
X4853Y13820D1*
X4838Y13805D1*
X4538D2*
X4523Y13790D1*
X4508Y13775D1*
X4496Y13760D1*
X4487Y13745D1*
X4482Y13730D1*
X4479Y13715D1*
X4478Y13700D1*
Y13685D1*
Y13670D1*
Y13655D1*
Y13640D1*
Y13625D1*
Y13610D1*
Y13595D1*
X4838D2*
X4853Y13580D1*
X4838Y13565D1*
X4553Y13400D2*
X4526Y13385D1*
X4504Y13370D1*
X4489Y13355D1*
X4477Y13340D1*
X4468Y13325D1*
X4460Y13310D1*
X4454Y13295D1*
X4451Y13280D1*
X4450Y13265D1*
X4451Y13250D1*
X4455Y13235D1*
X4460Y13220D1*
X4467Y13205D1*
X4475Y13190D1*
X4485Y13175D1*
X4499Y13160D1*
X4517Y13145D1*
X4538Y13130D1*
X4748Y13400D2*
X4774Y13385D1*
X4796Y13370D1*
X4812Y13355D1*
X4823Y13340D1*
X4830Y13325D1*
X4835Y13310D1*
X4839Y13295D1*
X4845Y13280D1*
X4853Y13265D1*
X4846Y13250D1*
X4841Y13235D1*
X4836Y13220D1*
X4830Y13205D1*
X4821Y13190D1*
X4809Y13175D1*
X4793Y13160D1*
X4772Y13145D1*
X4748Y13130D1*
X4568Y13370D2*
X4541Y13355D1*
X4519Y13340D1*
X4504Y13325D1*
X4493Y13310D1*
X4485Y13295D1*
X4481Y13280D1*
X4479Y13265D1*
Y13250D1*
X4481Y13235D1*
X4486Y13220D1*
X4498Y13205D1*
X4517Y13190D1*
X4548Y13175D1*
X4592Y13160D1*
X4643Y13145D1*
X4748Y13370D2*
X4763Y13355D1*
X4778Y13340D1*
X4792Y13325D1*
X4805Y13310D1*
X4814Y13295D1*
X4819Y13280D1*
X4820Y13265D1*
Y13250D1*
X4814Y13235D1*
X4803Y13220D1*
X4789Y13205D1*
X4753Y13190D1*
X4695Y13175D1*
X4619Y13160D1*
X4538Y13145D1*
Y12965D2*
X4516Y12950D1*
X4497Y12935D1*
X4482Y12920D1*
X4470Y12905D1*
X4461Y12890D1*
X4455Y12875D1*
X4451Y12860D1*
X4449Y12845D1*
X4448Y12830D1*
Y12815D1*
Y12800D1*
Y12785D1*
Y12770D1*
Y12755D1*
Y12740D1*
Y12725D1*
Y12710D1*
Y12695D1*
X4763Y12965D2*
X4785Y12950D1*
X4803Y12935D1*
X4818Y12920D1*
X4828Y12905D1*
X4836Y12890D1*
X4842Y12875D1*
X4847Y12860D1*
X4850Y12845D1*
X4852Y12830D1*
Y12815D1*
X4853Y12800D1*
Y12785D1*
Y12770D1*
Y12755D1*
Y12740D1*
Y12725D1*
X4538Y12935D2*
X4523Y12920D1*
X4508Y12905D1*
X4496Y12890D1*
X4487Y12875D1*
X4482Y12860D1*
X4479Y12845D1*
X4478Y12830D1*
Y12815D1*
Y12800D1*
Y12785D1*
Y12770D1*
Y12755D1*
Y12740D1*
Y12725D1*
X4763Y12935D2*
X4778Y12920D1*
X4792Y12905D1*
X4805Y12890D1*
X4814Y12875D1*
X4819Y12860D1*
X4821Y12845D1*
X4822Y12830D1*
X4823Y12815D1*
Y12800D1*
Y12785D1*
Y12770D1*
Y12755D1*
Y12740D1*
Y12725D1*
X5033D2*
Y12710D1*
Y12695D1*
X4283Y12530D2*
X4268Y12515D1*
X4293Y12500D1*
X4323Y12485D1*
X4354Y12470D1*
X4387Y12455D1*
X4419Y12440D1*
X4454Y12425D1*
X4488Y12410D1*
X4520Y12395D1*
X4552Y12380D1*
X4585Y12365D1*
X4619Y12350D1*
X4653Y12335D1*
X4686Y12320D1*
X4719Y12305D1*
X4754Y12290D1*
X4788Y12275D1*
X4823Y12260D1*
X4298Y12530D2*
X4330Y12515D1*
X4364Y12500D1*
X4398Y12485D1*
X4431Y12470D1*
X4464Y12455D1*
X4498Y12440D1*
X4533Y12425D1*
X4565Y12410D1*
X4597Y12395D1*
X4630Y12380D1*
X4664Y12365D1*
X4698Y12350D1*
X4731Y12335D1*
X4764Y12320D1*
X4796Y12305D1*
X4825Y12290D1*
X4853Y12275D1*
X4838Y12260D1*
X4538Y12110D2*
X4516Y12095D1*
X4497Y12080D1*
X4482Y12065D1*
X4470Y12050D1*
X4461Y12035D1*
X4455Y12020D1*
X4451Y12005D1*
X4449Y11990D1*
X4448Y11975D1*
Y11960D1*
Y11945D1*
Y11930D1*
Y11915D1*
Y11900D1*
Y11885D1*
Y11870D1*
Y11855D1*
Y11840D1*
Y11825D1*
Y11810D1*
Y11795D1*
Y11780D1*
Y11765D1*
Y11750D1*
Y11735D1*
Y11720D1*
Y11705D1*
X4838Y12110D2*
X4853Y12095D1*
X4838Y12080D1*
X4538D2*
X4523Y12065D1*
X4510Y12050D1*
X4499Y12035D1*
X4491Y12020D1*
X4485Y12005D1*
X4481Y11990D1*
X4479Y11975D1*
X4478Y11960D1*
Y11945D1*
Y11930D1*
Y11915D1*
X4838D2*
X4853Y11900D1*
X4838Y11885D1*
X4478D2*
Y11870D1*
Y11855D1*
Y11840D1*
Y11825D1*
Y11810D1*
Y11795D1*
Y11780D1*
Y11765D1*
Y11750D1*
Y11735D1*
X4838D2*
X4853Y11720D1*
X4838Y11705D1*
X4553Y11540D2*
X4526Y11525D1*
X4504Y11510D1*
X4489Y11495D1*
X4477Y11480D1*
X4468Y11465D1*
X4460Y11450D1*
X4454Y11435D1*
X4451Y11420D1*
X4450Y11405D1*
X4451Y11390D1*
X4455Y11375D1*
X4460Y11360D1*
X4467Y11345D1*
X4475Y11330D1*
X4485Y11315D1*
X4499Y11300D1*
X4517Y11285D1*
X4538Y11270D1*
X4748Y11540D2*
X4774Y11525D1*
X4796Y11510D1*
X4812Y11495D1*
X4823Y11480D1*
X4830Y11465D1*
X4835Y11450D1*
X4839Y11435D1*
X4845Y11420D1*
X4853Y11405D1*
X4846Y11390D1*
X4841Y11375D1*
X4836Y11360D1*
X4830Y11345D1*
X4821Y11330D1*
X4809Y11315D1*
X4793Y11300D1*
X4772Y11285D1*
X4748Y11270D1*
X4568Y11510D2*
X4541Y11495D1*
X4519Y11480D1*
X4504Y11465D1*
X4493Y11450D1*
X4485Y11435D1*
X4481Y11420D1*
X4479Y11405D1*
Y11390D1*
X4481Y11375D1*
X4486Y11360D1*
X4498Y11345D1*
X4517Y11330D1*
X4548Y11315D1*
X4592Y11300D1*
X4643Y11285D1*
X4748Y11510D2*
X4763Y11495D1*
X4778Y11480D1*
X4792Y11465D1*
X4805Y11450D1*
X4814Y11435D1*
X4819Y11420D1*
X4820Y11405D1*
Y11390D1*
X4814Y11375D1*
X4803Y11360D1*
X4789Y11345D1*
X4753Y11330D1*
X4695Y11315D1*
X4619Y11300D1*
X4538Y11285D1*
X4463Y11105D2*
X4456Y11090D1*
X4452Y11075D1*
X4449Y11060D1*
X4448Y11045D1*
X4449Y11030D1*
X4450Y11015D1*
X4454Y11000D1*
X4458Y10985D1*
X4463Y10970D1*
X4471Y10955D1*
X4482Y10940D1*
X4497Y10925D1*
X4516Y10910D1*
X4538Y10895D1*
X4478Y11105D2*
Y11090D1*
Y11075D1*
Y11060D1*
Y11045D1*
Y11030D1*
Y11015D1*
X4481Y11000D1*
X4487Y10985D1*
X4497Y10970D1*
X4509Y10955D1*
X4523Y10940D1*
X4538Y10925D1*
X4823Y11105D2*
Y11090D1*
Y11075D1*
Y11060D1*
Y11045D1*
Y11030D1*
X4822Y11015D1*
X4820Y11000D1*
X4814Y10985D1*
X4804Y10970D1*
X4791Y10955D1*
X4777Y10940D1*
X4763Y10925D1*
X4838Y11105D2*
X4845Y11090D1*
X4849Y11075D1*
X4851Y11060D1*
X4852Y11045D1*
Y11030D1*
X4850Y11015D1*
X4847Y11000D1*
X4842Y10985D1*
X4837Y10970D1*
X4830Y10955D1*
X4818Y10940D1*
X4803Y10925D1*
X4784Y10910D1*
X4763Y10895D1*
X4793Y10745D2*
Y10730D1*
Y10715D1*
X4838Y10745D2*
X4853Y10730D1*
X4838Y10715D1*
X4448Y10550D2*
Y10535D1*
Y10520D1*
Y10505D1*
Y10490D1*
Y10475D1*
Y10460D1*
Y10445D1*
X4366Y10430D1*
X4310Y10415D1*
X4268Y10400D1*
X4478Y10550D2*
Y10535D1*
Y10520D1*
Y10505D1*
Y10490D1*
Y10475D1*
Y10460D1*
Y10445D1*
Y10430D1*
X4838D2*
X4853Y10415D1*
X4838Y10400D1*
X4448D2*
Y10385D1*
Y10370D1*
Y10355D1*
Y10340D1*
X4478Y10400D2*
Y10385D1*
Y10370D1*
Y10355D1*
Y10340D1*
X4448Y10175D2*
Y10160D1*
Y10145D1*
Y10130D1*
Y10115D1*
Y10100D1*
Y10085D1*
Y10070D1*
X4366Y10055D1*
X4310Y10040D1*
X4268Y10025D1*
X4478Y10175D2*
Y10160D1*
Y10145D1*
Y10130D1*
Y10115D1*
Y10100D1*
Y10085D1*
Y10070D1*
Y10055D1*
X4838D2*
X4853Y10040D1*
X4838Y10025D1*
X4448D2*
Y10010D1*
Y9995D1*
Y9980D1*
Y9965D1*
X4478Y10025D2*
Y10010D1*
Y9995D1*
Y9980D1*
Y9965D1*
X4553Y9800D2*
X4524Y9785D1*
X4503Y9770D1*
X4488Y9755D1*
X4476Y9740D1*
X4468Y9725D1*
X4460Y9710D1*
X4454Y9695D1*
X4451Y9680D1*
X4450Y9665D1*
X4451Y9650D1*
X4455Y9635D1*
X4460Y9620D1*
X4467Y9605D1*
X4475Y9590D1*
X4485Y9575D1*
X4499Y9560D1*
X4517Y9545D1*
X4538Y9530D1*
X4658Y9800D2*
Y9785D1*
Y9770D1*
Y9755D1*
Y9740D1*
Y9725D1*
Y9710D1*
Y9695D1*
Y9680D1*
Y9665D1*
Y9650D1*
Y9635D1*
Y9620D1*
Y9605D1*
Y9590D1*
Y9575D1*
X4763Y9560D1*
X4823Y9800D2*
Y9785D1*
Y9770D1*
Y9755D1*
Y9740D1*
Y9725D1*
Y9710D1*
Y9695D1*
Y9680D1*
Y9665D1*
X4822Y9650D1*
X4820Y9635D1*
X4815Y9620D1*
X4803Y9605D1*
X4771Y9590D1*
X4721Y9575D1*
X4658Y9560D1*
X4838Y9800D2*
X4845Y9785D1*
X4849Y9770D1*
X4851Y9755D1*
X4852Y9740D1*
X4853Y9725D1*
Y9710D1*
Y9695D1*
Y9680D1*
Y9665D1*
X4852Y9650D1*
X4850Y9635D1*
X4847Y9620D1*
X4842Y9605D1*
X4837Y9590D1*
X4829Y9575D1*
X4816Y9560D1*
X4798Y9545D1*
X4778Y9530D1*
X4538Y9770D2*
X4523Y9755D1*
X4510Y9740D1*
X4499Y9725D1*
X4491Y9710D1*
X4485Y9695D1*
X4481Y9680D1*
X4480Y9665D1*
Y9650D1*
X4487Y9635D1*
X4497Y9620D1*
X4513Y9605D1*
X4541Y9590D1*
X4586Y9575D1*
X4643Y9560D1*
Y9770D2*
Y9755D1*
Y9740D1*
Y9725D1*
Y9710D1*
Y9695D1*
Y9680D1*
Y9665D1*
Y9650D1*
Y9635D1*
Y9620D1*
Y9605D1*
Y9590D1*
Y9575D1*
X4553Y9560D1*
X4463Y9365D2*
X4456Y9350D1*
X4452Y9335D1*
X4449Y9320D1*
X4448Y9305D1*
Y9290D1*
Y9275D1*
Y9260D1*
Y9245D1*
Y9230D1*
Y9215D1*
Y9200D1*
Y9185D1*
Y9170D1*
Y9155D1*
X4538Y9365D2*
X4526Y9350D1*
X4510Y9335D1*
X4496Y9320D1*
X4484Y9305D1*
X4481Y9290D1*
X4479Y9275D1*
X4478Y9260D1*
Y9245D1*
Y9230D1*
Y9215D1*
Y9200D1*
Y9185D1*
X4838D2*
X4853Y9170D1*
X4838Y9155D1*
X4463Y8990D2*
X4456Y8975D1*
X4452Y8960D1*
X4449Y8945D1*
X4448Y8930D1*
Y8915D1*
Y8900D1*
Y8885D1*
Y8870D1*
Y8855D1*
Y8840D1*
Y8825D1*
Y8810D1*
Y8795D1*
Y8780D1*
X4538Y8990D2*
X4526Y8975D1*
X4510Y8960D1*
X4496Y8945D1*
X4484Y8930D1*
X4481Y8915D1*
X4479Y8900D1*
X4478Y8885D1*
Y8870D1*
Y8855D1*
Y8840D1*
Y8825D1*
Y8810D1*
X4838D2*
X4853Y8795D1*
X4838Y8780D1*
X4538Y8615D2*
X4516Y8600D1*
X4497Y8585D1*
X4482Y8570D1*
X4470Y8555D1*
X4461Y8540D1*
X4455Y8525D1*
X4451Y8510D1*
X4449Y8495D1*
X4448Y8480D1*
Y8465D1*
Y8450D1*
Y8435D1*
Y8420D1*
X4451Y8405D1*
X4456Y8390D1*
X4463Y8375D1*
X4838Y8615D2*
X4845Y8600D1*
X4849Y8585D1*
X4851Y8570D1*
X4852Y8555D1*
X4853Y8540D1*
Y8525D1*
Y8510D1*
Y8495D1*
Y8480D1*
X4852Y8465D1*
X4850Y8450D1*
X4846Y8435D1*
X4840Y8420D1*
X4833Y8405D1*
X4825Y8390D1*
X4813Y8375D1*
X4797Y8360D1*
X4778Y8345D1*
X4568Y8585D2*
X4541Y8570D1*
X4518Y8555D1*
X4500Y8540D1*
X4487Y8525D1*
X4482Y8510D1*
X4480Y8495D1*
X4478Y8480D1*
Y8465D1*
Y8450D1*
Y8435D1*
Y8420D1*
Y8405D1*
Y8390D1*
Y8375D1*
X4643Y8585D2*
Y8570D1*
Y8555D1*
Y8540D1*
Y8525D1*
Y8510D1*
Y8495D1*
Y8480D1*
Y8465D1*
Y8450D1*
Y8435D1*
X4645Y8420D1*
X4650Y8405D1*
X4656Y8390D1*
X4667Y8375D1*
X4684Y8360D1*
X4703Y8345D1*
X4658Y8585D2*
Y8570D1*
Y8555D1*
Y8540D1*
Y8525D1*
Y8510D1*
Y8495D1*
Y8480D1*
Y8465D1*
X4660Y8450D1*
X4665Y8435D1*
X4672Y8420D1*
X4691Y8405D1*
X4737Y8390D1*
X4793Y8375D1*
X4823Y8585D2*
Y8570D1*
Y8555D1*
Y8540D1*
Y8525D1*
Y8510D1*
Y8495D1*
Y8480D1*
Y8465D1*
X4822Y8450D1*
X4821Y8435D1*
X4814Y8420D1*
X4787Y8405D1*
X4743Y8390D1*
X4688Y8375D1*
X4538Y8180D2*
X4516Y8165D1*
X4497Y8150D1*
X4482Y8135D1*
X4470Y8120D1*
X4461Y8105D1*
X4455Y8090D1*
X4451Y8075D1*
X4449Y8060D1*
X4448Y8045D1*
Y8030D1*
Y8015D1*
Y8000D1*
Y7985D1*
Y7970D1*
Y7955D1*
Y7940D1*
Y7925D1*
Y7910D1*
X4763Y8180D2*
X4785Y8165D1*
X4803Y8150D1*
X4818Y8135D1*
X4828Y8120D1*
X4836Y8105D1*
X4842Y8090D1*
X4847Y8075D1*
X4850Y8060D1*
X4852Y8045D1*
Y8030D1*
X4853Y8015D1*
Y8000D1*
Y7985D1*
Y7970D1*
Y7955D1*
Y7940D1*
X4538Y8150D2*
X4523Y8135D1*
X4508Y8120D1*
X4496Y8105D1*
X4487Y8090D1*
X4482Y8075D1*
X4479Y8060D1*
X4478Y8045D1*
Y8030D1*
Y8015D1*
Y8000D1*
Y7985D1*
Y7970D1*
Y7955D1*
Y7940D1*
X4763Y8150D2*
X4778Y8135D1*
X4792Y8120D1*
X4805Y8105D1*
X4814Y8090D1*
X4819Y8075D1*
X4821Y8060D1*
X4822Y8045D1*
X4823Y8030D1*
Y8015D1*
Y8000D1*
Y7985D1*
Y7970D1*
Y7955D1*
Y7940D1*
X5033D2*
Y7925D1*
Y7910D1*
X4538Y7745D2*
X4516Y7730D1*
X4497Y7715D1*
X4482Y7700D1*
X4470Y7685D1*
X4461Y7670D1*
X4455Y7655D1*
X4451Y7640D1*
X4449Y7625D1*
X4448Y7610D1*
Y7595D1*
Y7580D1*
Y7565D1*
Y7550D1*
Y7535D1*
Y7520D1*
X4353Y7505D1*
X4268Y7490D1*
X4283Y7475D1*
X4763Y7745D2*
X4785Y7730D1*
X4803Y7715D1*
X4818Y7700D1*
X4828Y7685D1*
X4836Y7670D1*
X4842Y7655D1*
X4847Y7640D1*
X4850Y7625D1*
X4852Y7610D1*
Y7595D1*
X4853Y7580D1*
Y7565D1*
Y7550D1*
Y7535D1*
X4852Y7520D1*
X4850Y7505D1*
X4845Y7490D1*
X4838Y7475D1*
X4538Y7715D2*
X4523Y7700D1*
X4508Y7685D1*
X4496Y7670D1*
X4487Y7655D1*
X4482Y7640D1*
X4479Y7625D1*
X4478Y7610D1*
Y7595D1*
Y7580D1*
Y7565D1*
Y7550D1*
Y7535D1*
Y7520D1*
Y7505D1*
X4763Y7715D2*
X4777Y7700D1*
X4790Y7685D1*
X4801Y7670D1*
X4810Y7655D1*
X4816Y7640D1*
X4820Y7625D1*
X4821Y7610D1*
X4822Y7595D1*
X4823Y7580D1*
Y7565D1*
Y7550D1*
Y7535D1*
Y7520D1*
Y7505D1*
X4553Y7310D2*
X4526Y7295D1*
X4504Y7280D1*
X4489Y7265D1*
X4477Y7250D1*
X4468Y7235D1*
X4460Y7220D1*
X4454Y7205D1*
X4451Y7190D1*
X4450Y7175D1*
X4451Y7160D1*
X4455Y7145D1*
X4460Y7130D1*
X4467Y7115D1*
X4475Y7100D1*
X4485Y7085D1*
X4499Y7070D1*
X4517Y7055D1*
X4538Y7040D1*
X4748Y7310D2*
X4774Y7295D1*
X4796Y7280D1*
X4812Y7265D1*
X4823Y7250D1*
X4830Y7235D1*
X4835Y7220D1*
X4839Y7205D1*
X4845Y7190D1*
X4853Y7175D1*
X4846Y7160D1*
X4841Y7145D1*
X4836Y7130D1*
X4830Y7115D1*
X4821Y7100D1*
X4809Y7085D1*
X4793Y7070D1*
X4772Y7055D1*
X4748Y7040D1*
X4568Y7280D2*
X4541Y7265D1*
X4519Y7250D1*
X4504Y7235D1*
X4493Y7220D1*
X4485Y7205D1*
X4481Y7190D1*
X4479Y7175D1*
Y7160D1*
X4481Y7145D1*
X4486Y7130D1*
X4498Y7115D1*
X4517Y7100D1*
X4548Y7085D1*
X4592Y7070D1*
X4643Y7055D1*
X4748Y7280D2*
X4763Y7265D1*
X4778Y7250D1*
X4792Y7235D1*
X4805Y7220D1*
X4814Y7205D1*
X4819Y7190D1*
X4820Y7175D1*
Y7160D1*
X4814Y7145D1*
X4803Y7130D1*
X4789Y7115D1*
X4753Y7100D1*
X4695Y7085D1*
X4619Y7070D1*
X4538Y7055D1*
X4463Y6875D2*
X4456Y6860D1*
X4452Y6845D1*
X4449Y6830D1*
X4448Y6815D1*
Y6800D1*
Y6785D1*
Y6770D1*
Y6755D1*
Y6740D1*
Y6725D1*
Y6710D1*
Y6695D1*
Y6680D1*
Y6665D1*
X4538Y6875D2*
X4526Y6860D1*
X4510Y6845D1*
X4496Y6830D1*
X4484Y6815D1*
X4481Y6800D1*
X4479Y6785D1*
X4478Y6770D1*
Y6755D1*
Y6740D1*
Y6725D1*
Y6710D1*
Y6695D1*
X4838D2*
X4853Y6680D1*
X4838Y6665D1*
X5289Y16109D2*
X5260Y16094D1*
X5239Y16079D1*
X5224Y16064D1*
X5213Y16049D1*
X5204Y16034D1*
X5196Y16019D1*
X5190Y16004D1*
X5187Y15989D1*
X5185Y15974D1*
X5184Y15959D1*
Y15944D1*
Y15929D1*
Y15914D1*
Y15899D1*
Y15884D1*
Y15869D1*
Y15854D1*
Y15839D1*
X5364Y16109D2*
X5387Y16094D1*
X5411Y16079D1*
X5438Y16064D1*
X5469Y16049D1*
X5529Y16109D2*
X5506Y16094D1*
X5482Y16079D1*
X5454Y16064D1*
X5424Y16049D1*
X5664Y16109D2*
X5689Y16094D1*
X5708Y16079D1*
X5724Y16064D1*
X5736Y16049D1*
X5746Y16034D1*
X5752Y16019D1*
X5758Y16004D1*
X5763Y15989D1*
X5766Y15974D1*
X5768Y15959D1*
Y15944D1*
X5769Y15929D1*
Y15914D1*
Y15899D1*
X5768Y15884D1*
X5766Y15869D1*
X5761Y15854D1*
X5754Y15839D1*
X5304Y16079D2*
X5277Y16064D1*
X5255Y16049D1*
X5240Y16034D1*
X5229Y16019D1*
X5221Y16004D1*
X5217Y15989D1*
X5215Y15974D1*
X5214Y15959D1*
Y15944D1*
Y15929D1*
Y15914D1*
Y15899D1*
Y15884D1*
Y15869D1*
Y15854D1*
Y15839D1*
X5334Y16079D2*
X5361Y16064D1*
X5384Y16049D1*
X5401Y16034D1*
X5415Y16019D1*
X5419Y16004D1*
X5422Y15989D1*
X5423Y15974D1*
X5424Y15959D1*
Y15944D1*
X5427Y15929D1*
X5432Y15914D1*
X5439Y15899D1*
X5544Y16079D2*
X5517Y16064D1*
X5495Y16049D1*
X5480Y16034D1*
X5469Y16019D1*
X5461Y16004D1*
X5457Y15989D1*
X5455Y15974D1*
X5454Y15959D1*
Y15944D1*
Y15929D1*
Y15914D1*
Y15899D1*
X5664Y16079D2*
X5679Y16064D1*
X5694Y16049D1*
X5708Y16034D1*
X5721Y16019D1*
X5730Y16004D1*
X5735Y15989D1*
X5737Y15974D1*
X5738Y15959D1*
X5739Y15944D1*
Y15929D1*
Y15914D1*
Y15899D1*
Y15884D1*
Y15869D1*
Y15854D1*
Y15839D1*
X5454Y15674D2*
X5432Y15659D1*
X5413Y15644D1*
X5398Y15629D1*
X5386Y15614D1*
X5377Y15599D1*
X5371Y15584D1*
X5367Y15569D1*
X5365Y15554D1*
X5364Y15539D1*
Y15524D1*
Y15509D1*
Y15494D1*
Y15479D1*
Y15464D1*
Y15449D1*
X5367Y15434D1*
X5372Y15419D1*
X5379Y15404D1*
X5754Y15674D2*
X5769Y15659D1*
X5754Y15644D1*
X5454D2*
X5439Y15629D1*
X5424Y15614D1*
X5412Y15599D1*
X5403Y15584D1*
X5398Y15569D1*
X5395Y15554D1*
X5394Y15539D1*
Y15524D1*
Y15509D1*
Y15494D1*
Y15479D1*
Y15464D1*
Y15449D1*
Y15434D1*
X5754D2*
X5769Y15419D1*
X5754Y15404D1*
X5469Y15239D2*
X5442Y15224D1*
X5420Y15209D1*
X5405Y15194D1*
X5393Y15179D1*
X5384Y15164D1*
X5376Y15149D1*
X5370Y15134D1*
X5367Y15119D1*
X5366Y15104D1*
X5367Y15089D1*
X5371Y15074D1*
X5376Y15059D1*
X5383Y15044D1*
X5391Y15029D1*
X5401Y15014D1*
X5415Y14999D1*
X5433Y14984D1*
X5454Y14969D1*
X5664Y15239D2*
X5690Y15224D1*
X5712Y15209D1*
X5728Y15194D1*
X5739Y15179D1*
X5746Y15164D1*
X5751Y15149D1*
X5755Y15134D1*
X5761Y15119D1*
X5769Y15104D1*
X5762Y15089D1*
X5757Y15074D1*
X5752Y15059D1*
X5746Y15044D1*
X5737Y15029D1*
X5725Y15014D1*
X5709Y14999D1*
X5688Y14984D1*
X5664Y14969D1*
X5484Y15209D2*
X5457Y15194D1*
X5435Y15179D1*
X5420Y15164D1*
X5409Y15149D1*
X5401Y15134D1*
X5397Y15119D1*
X5395Y15104D1*
Y15089D1*
X5397Y15074D1*
X5402Y15059D1*
X5414Y15044D1*
X5433Y15029D1*
X5464Y15014D1*
X5508Y14999D1*
X5559Y14984D1*
X5664Y15209D2*
X5679Y15194D1*
X5694Y15179D1*
X5708Y15164D1*
X5721Y15149D1*
X5730Y15134D1*
X5735Y15119D1*
X5736Y15104D1*
Y15089D1*
X5730Y15074D1*
X5719Y15059D1*
X5705Y15044D1*
X5669Y15029D1*
X5611Y15014D1*
X5535Y14999D1*
X5454Y14984D1*
X5199Y14819D2*
X5184Y14804D1*
X5199Y14789D1*
X5229Y14819D2*
X5244Y14804D1*
X5229Y14789D1*
X5379Y14819D2*
X5364Y14804D1*
X5379Y14789D1*
X5754Y14819D2*
X5769Y14804D1*
X5754Y14789D1*
X5634Y14624D2*
X5619Y14609D1*
X5606Y14594D1*
X5595Y14579D1*
X5586Y14564D1*
X5578Y14549D1*
X5570Y14534D1*
X5563Y14519D1*
X5555Y14504D1*
X5548Y14489D1*
X5540Y14474D1*
X5533Y14459D1*
X5525Y14444D1*
X5516Y14429D1*
X5504Y14414D1*
X5484Y14399D1*
X5456Y14384D1*
X5424Y14369D1*
X5709Y14624D2*
X5723Y14609D1*
X5736Y14594D1*
X5745Y14579D1*
X5752Y14564D1*
X5758Y14549D1*
X5763Y14534D1*
X5765Y14519D1*
Y14504D1*
X5762Y14489D1*
X5759Y14474D1*
X5756Y14459D1*
X5754Y14444D1*
X5752Y14429D1*
X5748Y14414D1*
X5743Y14399D1*
X5738Y14384D1*
X5732Y14369D1*
X5724Y14354D1*
X5409Y14594D2*
X5400Y14579D1*
X5391Y14564D1*
X5385Y14549D1*
X5382Y14534D1*
X5379Y14519D1*
X5377Y14504D1*
X5373Y14489D1*
X5369Y14474D1*
X5367Y14459D1*
Y14444D1*
X5371Y14429D1*
X5376Y14414D1*
X5384Y14399D1*
X5394Y14384D1*
X5407Y14369D1*
X5424Y14354D1*
Y14594D2*
X5421Y14579D1*
X5418Y14564D1*
X5413Y14549D1*
X5409Y14534D1*
X5404Y14519D1*
X5399Y14504D1*
X5396Y14489D1*
X5395Y14474D1*
X5394Y14459D1*
X5395Y14444D1*
X5396Y14429D1*
X5404Y14414D1*
X5424Y14399D1*
X5452Y14384D1*
X5484Y14369D1*
X5679Y14609D2*
X5654Y14594D1*
X5635Y14579D1*
X5620Y14564D1*
X5610Y14549D1*
X5601Y14534D1*
X5593Y14519D1*
X5585Y14504D1*
X5578Y14489D1*
X5570Y14474D1*
X5563Y14459D1*
X5555Y14444D1*
X5548Y14429D1*
X5540Y14414D1*
X5531Y14399D1*
X5520Y14384D1*
X5503Y14369D1*
X5484Y14354D1*
X5664Y14609D2*
X5690Y14594D1*
X5711Y14579D1*
X5728Y14564D1*
X5733Y14549D1*
X5737Y14534D1*
X5738Y14519D1*
Y14504D1*
Y14489D1*
X5736Y14474D1*
X5733Y14459D1*
X5729Y14444D1*
X5726Y14429D1*
X5722Y14414D1*
X5718Y14399D1*
X5714Y14384D1*
X5711Y14369D1*
X5709Y14354D1*
X5199Y14204D2*
X5184Y14189D1*
X5199Y14174D1*
X5229Y14204D2*
X5244Y14189D1*
X5229Y14174D1*
X5379Y14204D2*
X5364Y14189D1*
X5379Y14174D1*
X5754Y14204D2*
X5769Y14189D1*
X5754Y14174D1*
X5364Y14009D2*
X5375Y13994D1*
X5400Y13979D1*
X5433Y13964D1*
X5473Y13949D1*
X5515Y13934D1*
X5559Y13919D1*
X5604Y13904D1*
X5649Y13889D1*
X5694Y13874D1*
X5649Y13859D1*
X5604Y13844D1*
X5559Y13829D1*
X5514Y13814D1*
X5470Y13799D1*
X5430Y13784D1*
X5395Y13769D1*
X5364Y13754D1*
X5379Y13739D1*
X5394Y14009D2*
X5439Y13994D1*
X5484Y13979D1*
X5529Y13964D1*
X5574Y13949D1*
X5619Y13934D1*
X5663Y13919D1*
X5703Y13904D1*
X5738Y13889D1*
X5769Y13874D1*
X5738Y13859D1*
X5701Y13844D1*
X5661Y13829D1*
X5618Y13814D1*
X5573Y13799D1*
X5529Y13784D1*
X5484Y13769D1*
X5439Y13754D1*
X5394Y13739D1*
X5469Y13574D2*
X5440Y13559D1*
X5419Y13544D1*
X5404Y13529D1*
X5393Y13514D1*
X5384Y13499D1*
X5376Y13484D1*
X5370Y13469D1*
X5367Y13454D1*
X5366Y13439D1*
X5367Y13424D1*
X5371Y13409D1*
X5376Y13394D1*
X5383Y13379D1*
X5391Y13364D1*
X5401Y13349D1*
X5415Y13334D1*
X5433Y13319D1*
X5454Y13304D1*
X5574Y13574D2*
Y13559D1*
Y13544D1*
Y13529D1*
Y13514D1*
Y13499D1*
Y13484D1*
Y13469D1*
Y13454D1*
Y13439D1*
Y13424D1*
Y13409D1*
Y13394D1*
Y13379D1*
Y13364D1*
Y13349D1*
X5679Y13334D1*
X5739Y13574D2*
Y13559D1*
Y13544D1*
Y13529D1*
Y13514D1*
Y13499D1*
Y13484D1*
Y13469D1*
Y13454D1*
Y13439D1*
X5738Y13424D1*
X5736Y13409D1*
X5731Y13394D1*
X5719Y13379D1*
X5687Y13364D1*
X5637Y13349D1*
X5574Y13334D1*
X5754Y13574D2*
X5761Y13559D1*
X5765Y13544D1*
X5767Y13529D1*
X5768Y13514D1*
X5769Y13499D1*
Y13484D1*
Y13469D1*
Y13454D1*
Y13439D1*
X5768Y13424D1*
X5766Y13409D1*
X5763Y13394D1*
X5758Y13379D1*
X5753Y13364D1*
X5745Y13349D1*
X5732Y13334D1*
X5714Y13319D1*
X5694Y13304D1*
X5454Y13544D2*
X5439Y13529D1*
X5426Y13514D1*
X5416Y13499D1*
X5407Y13484D1*
X5401Y13469D1*
X5397Y13454D1*
X5396Y13439D1*
Y13424D1*
X5403Y13409D1*
X5413Y13394D1*
X5429Y13379D1*
X5457Y13364D1*
X5502Y13349D1*
X5559Y13334D1*
Y13544D2*
Y13529D1*
Y13514D1*
Y13499D1*
Y13484D1*
Y13469D1*
Y13454D1*
Y13439D1*
Y13424D1*
Y13409D1*
Y13394D1*
Y13379D1*
Y13364D1*
Y13349D1*
X5469Y13334D1*
X5379Y13139D2*
X5372Y13124D1*
X5368Y13109D1*
X5365Y13094D1*
X5364Y13079D1*
Y13064D1*
Y13049D1*
Y13034D1*
Y13019D1*
Y13004D1*
Y12989D1*
Y12974D1*
Y12959D1*
Y12944D1*
Y12929D1*
X5454Y13139D2*
X5442Y13124D1*
X5426Y13109D1*
X5412Y13094D1*
X5400Y13079D1*
X5397Y13064D1*
X5395Y13049D1*
X5394Y13034D1*
Y13019D1*
Y13004D1*
Y12989D1*
Y12974D1*
Y12959D1*
X5754D2*
X5769Y12944D1*
X5754Y12929D1*
M02*
